<svg xmlns="http://www.w3.org/2000/svg" width="28.448ex" height="11.885ex" viewBox="0 -2150 12574 5253.3" aria-hidden="true" style="vertical-align:-7.021ex" data-darkmode-bgcolor-15895936460081="rgb(36, 36, 36)" data-darkmode-original-bgcolor-15895936460081="rgb(255, 255, 255)"><g data-mml-node="math" data-darkmode-bgcolor-15895936460081="rgb(36, 36, 36)" data-darkmode-original-bgcolor-15895936460081="rgb(255, 255, 255)" stroke="currentColor" fill="currentColor" stroke-width="0"><g data-mml-node="munder" data-darkmode-bgcolor-15895936460081="rgb(36, 36, 36)" data-darkmode-original-bgcolor-15895936460081="rgb(255, 255, 255)"><g data-mml-node="TeXAtom"><g data-mml-node="munder" data-darkmode-bgcolor-15895936460081="rgb(36, 36, 36)" data-darkmode-original-bgcolor-15895936460081="rgb(255, 255, 255)" data-mjx-texclass="OP"><g data-mml-node="mrow" data-darkmode-bgcolor-15895936460081="rgb(36, 36, 36)" data-darkmode-original-bgcolor-15895936460081="rgb(255, 255, 255)"><g data-mml-node="mo" data-darkmode-bgcolor-15895936460081="rgb(36, 36, 36)" data-darkmode-original-bgcolor-15895936460081="rgb(255, 255, 255)" transform="scale(1 -1)"><path data-c="23A1" d="M319 351v1799h347v-84H403V351h-84z" data-darkmode-bgcolor-15895936460081="rgb(36, 36, 36)" data-darkmode-original-bgcolor-15895936460081="rgb(255, 255, 255)" stroke="none"/><path data-c="23A3" d="M319-1650V149h84v-1715h263v-84H319z" data-darkmode-bgcolor-15895936460081="rgb(36, 36, 36)" data-darkmode-original-bgcolor-15895936460081="rgb(255, 255, 255)" stroke="none"/><svg width="667" height="402" y="49" viewBox="0 100.5 667 402" data-darkmode-bgcolor-15895936460081="rgb(36, 36, 36)" data-darkmode-original-bgcolor-15895936460081="rgb(255, 255, 255)"><path data-c="23A2" d="M319 0v603.204h84V0h-84z" data-darkmode-bgcolor-15895936460081="rgb(36, 36, 36)" data-darkmode-original-bgcolor-15895936460081="rgb(255, 255, 255)" stroke="none"/></svg></g><g data-mml-node="mtable" data-darkmode-bgcolor-15895936460081="rgb(36, 36, 36)" data-darkmode-original-bgcolor-15895936460081="rgb(255, 255, 255)"><g data-mml-node="mtr" data-darkmode-bgcolor-15895936460081="rgb(36, 36, 36)" data-darkmode-original-bgcolor-15895936460081="rgb(255, 255, 255)"><g data-mml-node="mtd"><path data-c="32" d="M776-1829q-27 0-43-18t-16-44q0-71 53-123t132-52q91 0 152 56t62 145q0 43-20 82t-48 68-80 74q-36 31-100 92l-59 56 76 1q157 0 167-5 7-2 24-89v-3h40v3q-1 3-13 91t-15 92v3H717v-31q0-7 6-15t30-35q29-32 50-56 9-10 34-37t34-37 29-33 28-34 23-30 21-32 15-29 13-32 7-30 3-33q0-63-34-109t-97-46q-33 0-58 17t-35 33-10 19q0 1 5 1 18 0 37 14t19 46q0 25-16 42t-45 18z" data-darkmode-bgcolor-15895936460081="rgb(36, 36, 36)" data-darkmode-original-bgcolor-15895936460081="rgb(255, 255, 255)" stroke="none" data-mml-node="mn"/></g><g data-mml-node="mtd"><path data-c="30" d="M2263-1985q56-81 153-81 48 0 96 26t78 92q37 83 37 228 0 155-43 237-20 42-55 67t-61 31-51 7q-26 0-52-6t-61-32-55-67q-43-82-43-237 0-174 57-265zm225-12q-30-32-71-32-42 0-72 32-25 26-33 72t-8 192q0 158 8 208t36 79q28 30 69 30 40 0 68-30 29-30 36-84t8-203q0-145-8-191t-33-73z" data-darkmode-bgcolor-15895936460081="rgb(36, 36, 36)" data-darkmode-original-bgcolor-15895936460081="rgb(255, 255, 255)" stroke="none" data-mml-node="mn"/></g><g data-mml-node="mtd"><path data-c="30" d="M3763-1985q56-81 153-81 48 0 96 26t78 92q37 83 37 228 0 155-43 237-20 42-55 67t-61 31-51 7q-26 0-52-6t-61-32-55-67q-43-82-43-237 0-174 57-265zm225-12q-30-32-71-32-42 0-72 32-25 26-33 72t-8 192q0 158 8 208t36 79q28 30 69 30 40 0 68-30 29-30 36-84t8-203q0-145-8-191t-33-73z" data-darkmode-bgcolor-15895936460081="rgb(36, 36, 36)" data-darkmode-original-bgcolor-15895936460081="rgb(255, 255, 255)" stroke="none" data-mml-node="mn"/></g></g><g data-mml-node="mtr" data-darkmode-bgcolor-15895936460081="rgb(36, 36, 36)" data-darkmode-original-bgcolor-15895936460081="rgb(255, 255, 255)"><g data-mml-node="mtd"><path data-c="30" d="M763-585q56-81 153-81 48 0 96 26t78 92q37 83 37 228 0 155-43 237-20 42-55 67t-61 31-51 7q-26 0-52-6t-61-32-55-67q-43-82-43-237 0-174 57-265zm225-12q-30-32-71-32-42 0-72 32-25 26-33 72t-8 192q0 158 8 208t36 79q28 30 69 30 40 0 68-30 29-30 36-84t8-203q0-145-8-191t-33-73z" data-darkmode-bgcolor-15895936460081="rgb(36, 36, 36)" data-darkmode-original-bgcolor-15895936460081="rgb(255, 255, 255)" stroke="none" data-mml-node="mn"/></g><g data-mml-node="mtd"><path data-c="34" d="M2629 0q-18-3-129-3-116 0-134 3h-9v-46h58q7 0 17-2t14-5 7-8q1-2 1-54v-50h-259v-46l151-231q153-232 155-233 2-2 21-2h18l6 6v460h92v46h-92v99q0 7 6 12 8 7 57 8h29V0h-9zm-169-211v-334l-219 333 109 1h110z" data-darkmode-bgcolor-15895936460081="rgb(36, 36, 36)" data-darkmode-original-bgcolor-15895936460081="rgb(255, 255, 255)" stroke="none" data-mml-node="mn"/></g><g data-mml-node="mtd"><path data-c="30" d="M3763-585q56-81 153-81 48 0 96 26t78 92q37 83 37 228 0 155-43 237-20 42-55 67t-61 31-51 7q-26 0-52-6t-61-32-55-67q-43-82-43-237 0-174 57-265zm225-12q-30-32-71-32-42 0-72 32-25 26-33 72t-8 192q0 158 8 208t36 79q28 30 69 30 40 0 68-30 29-30 36-84t8-203q0-145-8-191t-33-73z" data-darkmode-bgcolor-15895936460081="rgb(36, 36, 36)" data-darkmode-original-bgcolor-15895936460081="rgb(255, 255, 255)" stroke="none" data-mml-node="mn"/></g></g><g data-mml-node="mtr" data-darkmode-bgcolor-15895936460081="rgb(36, 36, 36)" data-darkmode-original-bgcolor-15895936460081="rgb(255, 255, 255)"><g data-mml-node="mtd"><path data-c="30" d="M763 815q56-81 153-81 48 0 96 26t78 92q37 83 37 228 0 155-43 237-20 42-55 67t-61 31-51 7q-26 0-52-6t-61-32-55-67q-43-82-43-237 0-174 57-265zm225-12q-30-32-71-32-42 0-72 32-25 26-33 72t-8 192q0 158 8 208t36 79q28 30 69 30 40 0 68-30 29-30 36-84t8-203q0-145-8-191t-33-73z" data-darkmode-bgcolor-15895936460081="rgb(36, 36, 36)" data-darkmode-original-bgcolor-15895936460081="rgb(255, 255, 255)" stroke="none" data-mml-node="mn"/></g><g data-mml-node="mtd"><path data-c="30" d="M2263 815q56-81 153-81 48 0 96 26t78 92q37 83 37 228 0 155-43 237-20 42-55 67t-61 31-51 7q-26 0-52-6t-61-32-55-67q-43-82-43-237 0-174 57-265zm225-12q-30-32-71-32-42 0-72 32-25 26-33 72t-8 192q0 158 8 208t36 79q28 30 69 30 40 0 68-30 29-30 36-84t8-203q0-145-8-191t-33-73z" data-darkmode-bgcolor-15895936460081="rgb(36, 36, 36)" data-darkmode-original-bgcolor-15895936460081="rgb(255, 255, 255)" stroke="none" data-mml-node="mn"/></g><g data-mml-node="mtd"><path data-c="31" d="M3880 822l-13 5q-14 5-40 10t-58 7h-19v-46h19q47-2 87-15t56-24 28-22q2-3 12-3 9 0 17 6v299l1 300q7 7 12 9t24 4 62 2h26v46h-11q-21-3-159-3-136 0-157 3h-12v-46h64q16 0 25-1t16-3 8-2 6-5 6-4V822z" data-darkmode-bgcolor-15895936460081="rgb(36, 36, 36)" data-darkmode-original-bgcolor-15895936460081="rgb(255, 255, 255)" stroke="none" data-mml-node="mn"/></g></g></g><g data-mml-node="mo" transform="matrix(1 0 0 -1 4167 0)" data-darkmode-bgcolor-15895936460081="rgb(36, 36, 36)" data-darkmode-original-bgcolor-15895936460081="rgb(255, 255, 255)"><path data-c="23A4" d="M0 2066v84h347V351h-84v1715H0z" data-darkmode-bgcolor-15895936460081="rgb(36, 36, 36)" data-darkmode-original-bgcolor-15895936460081="rgb(255, 255, 255)" stroke="none"/><path data-c="23A6" d="M263-1566V149h84v-1799H0v84h263z" data-darkmode-bgcolor-15895936460081="rgb(36, 36, 36)" data-darkmode-original-bgcolor-15895936460081="rgb(255, 255, 255)" stroke="none"/><svg width="667" height="402" y="49" viewBox="0 100.5 667 402" data-darkmode-bgcolor-15895936460081="rgb(36, 36, 36)" data-darkmode-original-bgcolor-15895936460081="rgb(255, 255, 255)"><path data-c="23A5" d="M263 0v603.204h84V0h-84z" data-darkmode-bgcolor-15895936460081="rgb(36, 36, 36)" data-darkmode-original-bgcolor-15895936460081="rgb(255, 255, 255)" stroke="none"/></svg></g></g><g data-mml-node="mo" transform="matrix(1 0 0 -1 0 2030)" data-darkmode-bgcolor-15895936460081="rgb(36, 36, 36)" data-darkmode-original-bgcolor-15895936460081="rgb(255, 255, 255)"><path data-c="E152" d="M-24 327l6 6h33q4 0 7-4t5-7 8-14 19-24q61-81 171-122t216-42q13 0 16-3t3-22V28q0-20-3-24t-15-4q-87 0-182 36Q75 118-16 278l-8 14v35z" data-darkmode-bgcolor-15895936460081="rgb(36, 36, 36)" data-darkmode-original-bgcolor-15895936460081="rgb(255, 255, 255)" stroke="none"/><path data-c="E153" d="M4374 60v35q0 18 3 21t16 4q142 0 241 51t146 113q8 9 16 21t12 19 7 7q2 2 20 2h17l6-6v-35l-8-14q-91-160-276-242-95-36-182-36-13 0-15 3t-3 21v36z" data-darkmode-bgcolor-15895936460081="rgb(36, 36, 36)" data-darkmode-original-bgcolor-15895936460081="rgb(255, 255, 255)" stroke="none"/><g data-c="E156" data-darkmode-bgcolor-15895936460081="rgb(36, 36, 36)" data-darkmode-original-bgcolor-15895936460081="rgb(255, 255, 255)" stroke="none"><path data-c="E151" d="M1957 60v51q0 7 5 7 4 2 15 2 86 0 180-36 185-82 276-242l8-14v-35l-6-6h-34q-3 0-6 4t-5 7-9 15-18 24q-65 81-172 122T1976 0q-13 0-16 3t-3 22v35z" data-darkmode-bgcolor-15895936460081="rgb(36, 36, 36)" data-darkmode-original-bgcolor-15895936460081="rgb(255, 255, 255)"/><path data-c="E150" d="M2399-213l-6 6v35l8 14q91 160 276 242 74 29 155 35h12q9 0 13 1 14 0 17-3t3-19V25q0-18-3-21t-16-4q-133 0-248-55t-168-150q-4-6-7-7t-19-1h-17z" data-darkmode-bgcolor-15895936460081="rgb(36, 36, 36)" data-darkmode-original-bgcolor-15895936460081="rgb(255, 255, 255)"/></g><svg width="1717" height="720" x="350" y="-300" viewBox="429.2 -300 1717 720" data-darkmode-bgcolor-15895936460081="rgb(36, 36, 36)" data-darkmode-original-bgcolor-15895936460081="rgb(255, 255, 255)"><path data-c="E154" d="M-64.39 0v120h2704.38V0H-64.39z" data-darkmode-bgcolor-15895936460081="rgb(36, 36, 36)" data-darkmode-original-bgcolor-15895936460081="rgb(255, 255, 255)" stroke="none"/></svg><svg width="1717" height="720" x="2767" y="-300" viewBox="429.2 -300 1717 720" data-darkmode-bgcolor-15895936460081="rgb(36, 36, 36)" data-darkmode-original-bgcolor-15895936460081="rgb(255, 255, 255)"><path data-c="E154" d="M-64.39 0v120h2704.38V0H-64.39z" data-darkmode-bgcolor-15895936460081="rgb(36, 36, 36)" data-darkmode-original-bgcolor-15895936460081="rgb(255, 255, 255)" stroke="none"/></svg></g></g></g><g data-mml-node="TeXAtom"><path data-c="42" d="M2312.017 2529.641q-19.089 0-22.624-.707t-3.535-7.777q0-19.089 7.777-23.331.707-.707 91.91-.707 183.113 0 193.011 1.414 44.541 7.07 74.235 31.815t30.401 65.044q0 45.248-41.006 81.305t-94.031 48.783l-7.07 2.121q45.248 6.363 74.235 32.522t29.694 65.044q0 51.611-50.904 99.687t-125.139 54.439q-4.949.707-149.177.707-141.4 0-143.521-1.414-2.828-2.121-2.828-5.656 0-4.949 1.414-9.898 3.535-13.433 7.07-14.847 2.828-.707 10.605-.707h4.242q19.089 0 42.42-2.121 9.898-2.121 13.433-8.484 2.121-2.828 50.904-196.546t48.783-204.323q0-4.949-40.299-6.363zm295.526 65.751q0-21.21-10.605-39.592t-34.643-24.038q-4.949-1.414-65.044-2.121h-29.694q-15.554 0-24.745.707h-9.191q-10.605.707-13.433 7.07-1.414 2.828-22.624 84.84 0 2.121-.707 4.242l-21.917 89.082h57.267q57.267 0 65.751-1.414 42.42-7.07 75.649-41.006t33.936-77.77zm-38.178 222.705q0-31.108-16.261-51.611t-42.42-24.038q-4.242-.707-58.681-.707-83.426 0-84.133.707 0 1.414-12.019 51.611t-24.745 99.687l-12.726 49.49q0 2.828 8.484 2.828t57.267 1.414q62.923 0 67.872-.707 43.834-4.949 80.598-41.006t36.764-87.668z" data-darkmode-bgcolor-15895936460081="rgb(36, 36, 36)" data-darkmode-original-bgcolor-15895936460081="rgb(255, 255, 255)" stroke="none" data-mml-node="mi" data-mjx-texclass="ORD"/></g></g><g data-mml-node="munder" data-darkmode-bgcolor-15895936460081="rgb(36, 36, 36)" data-darkmode-original-bgcolor-15895936460081="rgb(255, 255, 255)"><g data-mml-node="TeXAtom"><g data-mml-node="munder" data-darkmode-bgcolor-15895936460081="rgb(36, 36, 36)" data-darkmode-original-bgcolor-15895936460081="rgb(255, 255, 255)" data-mjx-texclass="OP"><g data-mml-node="mrow" data-darkmode-bgcolor-15895936460081="rgb(36, 36, 36)" data-darkmode-original-bgcolor-15895936460081="rgb(255, 255, 255)"><g data-mml-node="mo" data-darkmode-bgcolor-15895936460081="rgb(36, 36, 36)" data-darkmode-original-bgcolor-15895936460081="rgb(255, 255, 255)" transform="matrix(1 0 0 -1 4834 0)"><path data-c="23A1" d="M319 351v1799h347v-84H403V351h-84z" data-darkmode-bgcolor-15895936460081="rgb(36, 36, 36)" data-darkmode-original-bgcolor-15895936460081="rgb(255, 255, 255)" stroke="none"/><path data-c="23A3" d="M319-1650V149h84v-1715h263v-84H319z" data-darkmode-bgcolor-15895936460081="rgb(36, 36, 36)" data-darkmode-original-bgcolor-15895936460081="rgb(255, 255, 255)" stroke="none"/><svg width="667" height="402" y="49" viewBox="0 100.5 667 402" data-darkmode-bgcolor-15895936460081="rgb(36, 36, 36)" data-darkmode-original-bgcolor-15895936460081="rgb(255, 255, 255)"><path data-c="23A2" d="M319 0v603.204h84V0h-84z" data-darkmode-bgcolor-15895936460081="rgb(36, 36, 36)" data-darkmode-original-bgcolor-15895936460081="rgb(255, 255, 255)" stroke="none"/></svg></g><g data-mml-node="mtable" data-darkmode-bgcolor-15895936460081="rgb(36, 36, 36)" data-darkmode-original-bgcolor-15895936460081="rgb(255, 255, 255)"><g data-mml-node="mtr" data-darkmode-bgcolor-15895936460081="rgb(36, 36, 36)" data-darkmode-original-bgcolor-15895936460081="rgb(255, 255, 255)"><g data-mml-node="mtd"><path data-c="31" d="M5714-1978l-13 5q-14 5-40 10t-58 7h-19v-46h19q47-2 87-15t56-24 28-22q2-3 12-3 9 0 17 6v299l1 300q7 7 12 9t24 4 62 2h26v46h-11q-21-3-159-3-136 0-157 3h-12v-46h64q16 0 25-1t16-3 8-2 6-5 6-4v-517z" data-darkmode-bgcolor-15895936460081="rgb(36, 36, 36)" data-darkmode-original-bgcolor-15895936460081="rgb(255, 255, 255)" stroke="none" data-mml-node="mn"/></g><g data-mml-node="mtd"><path data-c="30" d="M7097-1985q56-81 153-81 48 0 96 26t78 92q37 83 37 228 0 155-43 237-20 42-55 67t-61 31-51 7q-26 0-52-6t-61-32-55-67q-43-82-43-237 0-174 57-265zm225-12q-30-32-71-32-42 0-72 32-25 26-33 72t-8 192q0 158 8 208t36 79q28 30 69 30 40 0 68-30 29-30 36-84t8-203q0-145-8-191t-33-73z" data-darkmode-bgcolor-15895936460081="rgb(36, 36, 36)" data-darkmode-original-bgcolor-15895936460081="rgb(255, 255, 255)" stroke="none" data-mml-node="mn"/></g><g data-mml-node="mtd"><g data-mml-node="mn" data-darkmode-bgcolor-15895936460081="rgb(36, 36, 36)" data-darkmode-original-bgcolor-15895936460081="rgb(255, 255, 255)" stroke="none"><path data-c="31" d="M8714-1978l-13 5q-14 5-40 10t-58 7h-19v-46h19q47-2 87-15t56-24 28-22q2-3 12-3 9 0 17 6v299l1 300q7 7 12 9t24 4 62 2h26v46h-11q-21-3-159-3-136 0-157 3h-12v-46h64q16 0 25-1t16-3 8-2 6-5 6-4v-517z" data-darkmode-bgcolor-15895936460081="rgb(36, 36, 36)" data-darkmode-original-bgcolor-15895936460081="rgb(255, 255, 255)"/><path data-c="30" d="M9097-1985q56-81 153-81 48 0 96 26t78 92q37 83 37 228 0 155-43 237-20 42-55 67t-61 31-51 7q-26 0-52-6t-61-32-55-67q-43-82-43-237 0-174 57-265zm225-12q-30-32-71-32-42 0-72 32-25 26-33 72t-8 192q0 158 8 208t36 79q28 30 69 30 40 0 68-30 29-30 36-84t8-203q0-145-8-191t-33-73zM9597-1985q56-81 153-81 48 0 96 26t78 92q37 83 37 228 0 155-43 237-20 42-55 67t-61 31-51 7q-26 0-52-6t-61-32-55-67q-43-82-43-237 0-174 57-265zm225-12q-30-32-71-32-42 0-72 32-25 26-33 72t-8 192q0 158 8 208t36 79q28 30 69 30 40 0 68-30 29-30 36-84t8-203q0-145-8-191t-33-73z" data-darkmode-bgcolor-15895936460081="rgb(36, 36, 36)" data-darkmode-original-bgcolor-15895936460081="rgb(255, 255, 255)"/></g></g></g><g data-mml-node="mtr" data-darkmode-bgcolor-15895936460081="rgb(36, 36, 36)" data-darkmode-original-bgcolor-15895936460081="rgb(255, 255, 255)"><g data-mml-node="mtd"><path data-c="30" d="M5597-585q56-81 153-81 48 0 96 26t78 92q37 83 37 228 0 155-43 237-20 42-55 67t-61 31-51 7q-26 0-52-6t-61-32-55-67q-43-82-43-237 0-174 57-265zm225-12q-30-32-71-32-42 0-72 32-25 26-33 72t-8 192q0 158 8 208t36 79q28 30 69 30 40 0 68-30 29-30 36-84t8-203q0-145-8-191t-33-73z" data-darkmode-bgcolor-15895936460081="rgb(36, 36, 36)" data-darkmode-original-bgcolor-15895936460081="rgb(255, 255, 255)" stroke="none" data-mml-node="mn"/></g><g data-mml-node="mtd"><path data-c="31" d="M7214-578l-13 5q-14 5-40 10t-58 7h-19v-46h19q47-2 87-15t56-24 28-22q2-3 12-3 9 0 17 6v299l1 300q7 7 12 9t24 4 62 2h26V0h-11q-21-3-159-3-136 0-157 3h-12v-46h64q16 0 25-1t16-3 8-2 6-5 6-4v-517z" data-darkmode-bgcolor-15895936460081="rgb(36, 36, 36)" data-darkmode-original-bgcolor-15895936460081="rgb(255, 255, 255)" stroke="none" data-mml-node="mn"/></g><g data-mml-node="mtd"><g data-mml-node="mn" data-darkmode-bgcolor-15895936460081="rgb(36, 36, 36)" data-darkmode-original-bgcolor-15895936460081="rgb(255, 255, 255)" stroke="none"><path data-c="31" d="M8714-578l-13 5q-14 5-40 10t-58 7h-19v-46h19q47-2 87-15t56-24 28-22q2-3 12-3 9 0 17 6v299l1 300q7 7 12 9t24 4 62 2h26V0h-11q-21-3-159-3-136 0-157 3h-12v-46h64q16 0 25-1t16-3 8-2 6-5 6-4v-517z" data-darkmode-bgcolor-15895936460081="rgb(36, 36, 36)" data-darkmode-original-bgcolor-15895936460081="rgb(255, 255, 255)"/><path data-c="30" d="M9097-585q56-81 153-81 48 0 96 26t78 92q37 83 37 228 0 155-43 237-20 42-55 67t-61 31-51 7q-26 0-52-6t-61-32-55-67q-43-82-43-237 0-174 57-265zm225-12q-30-32-71-32-42 0-72 32-25 26-33 72t-8 192q0 158 8 208t36 79q28 30 69 30 40 0 68-30 29-30 36-84t8-203q0-145-8-191t-33-73zM9597-585q56-81 153-81 48 0 96 26t78 92q37 83 37 228 0 155-43 237-20 42-55 67t-61 31-51 7q-26 0-52-6t-61-32-55-67q-43-82-43-237 0-174 57-265zm225-12q-30-32-71-32-42 0-72 32-25 26-33 72t-8 192q0 158 8 208t36 79q28 30 69 30 40 0 68-30 29-30 36-84t8-203q0-145-8-191t-33-73z" data-darkmode-bgcolor-15895936460081="rgb(36, 36, 36)" data-darkmode-original-bgcolor-15895936460081="rgb(255, 255, 255)"/></g></g></g><g data-mml-node="mtr" data-darkmode-bgcolor-15895936460081="rgb(36, 36, 36)" data-darkmode-original-bgcolor-15895936460081="rgb(255, 255, 255)"><g data-mml-node="mtd"><path data-c="30" d="M5597 815q56-81 153-81 48 0 96 26t78 92q37 83 37 228 0 155-43 237-20 42-55 67t-61 31-51 7q-26 0-52-6t-61-32-55-67q-43-82-43-237 0-174 57-265zm225-12q-30-32-71-32-42 0-72 32-25 26-33 72t-8 192q0 158 8 208t36 79q28 30 69 30 40 0 68-30 29-30 36-84t8-203q0-145-8-191t-33-73z" data-darkmode-bgcolor-15895936460081="rgb(36, 36, 36)" data-darkmode-original-bgcolor-15895936460081="rgb(255, 255, 255)" stroke="none" data-mml-node="mn"/></g><g data-mml-node="mtd"><path data-c="30" d="M7097 815q56-81 153-81 48 0 96 26t78 92q37 83 37 228 0 155-43 237-20 42-55 67t-61 31-51 7q-26 0-52-6t-61-32-55-67q-43-82-43-237 0-174 57-265zm225-12q-30-32-71-32-42 0-72 32-25 26-33 72t-8 192q0 158 8 208t36 79q28 30 69 30 40 0 68-30 29-30 36-84t8-203q0-145-8-191t-33-73z" data-darkmode-bgcolor-15895936460081="rgb(36, 36, 36)" data-darkmode-original-bgcolor-15895936460081="rgb(255, 255, 255)" stroke="none" data-mml-node="mn"/></g><g data-mml-node="mtd"><path data-c="31" d="M9214 822l-13 5q-14 5-40 10t-58 7h-19v-46h19q47-2 87-15t56-24 28-22q2-3 12-3 9 0 17 6v299l1 300q7 7 12 9t24 4 62 2h26v46h-11q-21-3-159-3-136 0-157 3h-12v-46h64q16 0 25-1t16-3 8-2 6-5 6-4V822z" data-darkmode-bgcolor-15895936460081="rgb(36, 36, 36)" data-darkmode-original-bgcolor-15895936460081="rgb(255, 255, 255)" stroke="none" data-mml-node="mn"/></g></g></g><g data-mml-node="mo" transform="matrix(1 0 0 -1 10001 0)" data-darkmode-bgcolor-15895936460081="rgb(36, 36, 36)" data-darkmode-original-bgcolor-15895936460081="rgb(255, 255, 255)"><path data-c="23A4" d="M0 2066v84h347V351h-84v1715H0z" data-darkmode-bgcolor-15895936460081="rgb(36, 36, 36)" data-darkmode-original-bgcolor-15895936460081="rgb(255, 255, 255)" stroke="none"/><path data-c="23A6" d="M263-1566V149h84v-1799H0v84h263z" data-darkmode-bgcolor-15895936460081="rgb(36, 36, 36)" data-darkmode-original-bgcolor-15895936460081="rgb(255, 255, 255)" stroke="none"/><svg width="667" height="402" y="49" viewBox="0 100.5 667 402" data-darkmode-bgcolor-15895936460081="rgb(36, 36, 36)" data-darkmode-original-bgcolor-15895936460081="rgb(255, 255, 255)"><path data-c="23A5" d="M263 0v603.204h84V0h-84z" data-darkmode-bgcolor-15895936460081="rgb(36, 36, 36)" data-darkmode-original-bgcolor-15895936460081="rgb(255, 255, 255)" stroke="none"/></svg></g></g><g data-mml-node="mo" transform="matrix(1 0 0 -1 4834 2030)" data-darkmode-bgcolor-15895936460081="rgb(36, 36, 36)" data-darkmode-original-bgcolor-15895936460081="rgb(255, 255, 255)"><path data-c="E152" d="M-24 327l6 6h33q4 0 7-4t5-7 8-14 19-24q61-81 171-122t216-42q13 0 16-3t3-22V28q0-20-3-24t-15-4q-87 0-182 36Q75 118-16 278l-8 14v35z" data-darkmode-bgcolor-15895936460081="rgb(36, 36, 36)" data-darkmode-original-bgcolor-15895936460081="rgb(255, 255, 255)" stroke="none"/><path data-c="E153" d="M5374 60v35q0 18 3 21t16 4q142 0 241 51t146 113q8 9 16 21t12 19 7 7q2 2 20 2h17l6-6v-35l-8-14q-91-160-276-242-95-36-182-36-13 0-15 3t-3 21v36z" data-darkmode-bgcolor-15895936460081="rgb(36, 36, 36)" data-darkmode-original-bgcolor-15895936460081="rgb(255, 255, 255)" stroke="none"/><g data-c="E156" data-darkmode-bgcolor-15895936460081="rgb(36, 36, 36)" data-darkmode-original-bgcolor-15895936460081="rgb(255, 255, 255)" stroke="none"><path data-c="E151" d="M2457 60v51q0 7 5 7 4 2 15 2 86 0 180-36 185-82 276-242l8-14v-35l-6-6h-34q-3 0-6 4t-5 7-9 15-18 24q-65 81-172 122T2476 0q-13 0-16 3t-3 22v35z" data-darkmode-bgcolor-15895936460081="rgb(36, 36, 36)" data-darkmode-original-bgcolor-15895936460081="rgb(255, 255, 255)"/><path data-c="E150" d="M2899-213l-6 6v35l8 14q91 160 276 242 74 29 155 35h12q9 0 13 1 14 0 17-3t3-19V25q0-18-3-21t-16-4q-133 0-248-55t-168-150q-4-6-7-7t-19-1h-17z" data-darkmode-bgcolor-15895936460081="rgb(36, 36, 36)" data-darkmode-original-bgcolor-15895936460081="rgb(255, 255, 255)"/></g><svg width="2217" height="720" x="350" y="-300" viewBox="554.3 -300 2217 720" data-darkmode-bgcolor-15895936460081="rgb(36, 36, 36)" data-darkmode-original-bgcolor-15895936460081="rgb(255, 255, 255)"><path data-c="E154" d="M-83.14 0v120h3491.88V0H-83.14z" data-darkmode-bgcolor-15895936460081="rgb(36, 36, 36)" data-darkmode-original-bgcolor-15895936460081="rgb(255, 255, 255)" stroke="none"/></svg><svg width="2217" height="720" x="3267" y="-300" viewBox="554.3 -300 2217 720" data-darkmode-bgcolor-15895936460081="rgb(36, 36, 36)" data-darkmode-original-bgcolor-15895936460081="rgb(255, 255, 255)"><path data-c="E154" d="M-83.14 0v120h3491.88V0H-83.14z" data-darkmode-bgcolor-15895936460081="rgb(36, 36, 36)" data-darkmode-original-bgcolor-15895936460081="rgb(255, 255, 255)" stroke="none"/></svg></g></g></g><g data-mml-node="TeXAtom"><path data-c="41" d="M7632.856 2950.982q0 16.968 32.522 19.796 12.726 0 12.726 7.777 0 .707-1.414 9.191-2.121 9.898-4.242 12.726t-9.191 2.828h-8.484q-7.07 0-24.038-.707t-45.248-.707q-50.197 0-64.337 1.414h-5.656q-4.949-4.949-4.949-7.777 1.414-19.089 9.191-24.745h9.898q49.49-2.121 72.114-35.35 4.242-4.242 127.967-215.635t125.846-214.221q4.949-8.484 16.968-8.484h17.675q4.242 6.363 4.242 7.07l19.796 228.361q19.796 228.361 21.21 230.482 3.535 7.777 45.955 7.777 17.675 0 17.675 7.07 0 1.414-2.121 9.898-2.121 10.605-3.535 12.726t-9.898 2.828h-9.898q-7.777 0-27.573-.707t-51.611-.707q-66.458 0-86.961 1.414h-8.484q-4.242-4.242-4.242-6.363t1.414-12.726q2.828-9.191 4.242-11.312l2.828-2.121h14.14q38.178-2.121 45.248-12.019l-8.484-106.05h-168.266l-24.038 41.006q-28.987 48.783-28.987 57.267zm217.756-131.502q0-7.777-8.484-110.292t-9.898-103.222l-19.089 30.401q-11.312 19.089-44.541 75.649l-63.63 107.464 72.821.707q72.821 0 72.821-.707z" data-darkmode-bgcolor-15895936460081="rgb(36, 36, 36)" data-darkmode-original-bgcolor-15895936460081="rgb(255, 255, 255)" stroke="none" data-mml-node="mi" data-mjx-texclass="ORD"/></g></g><g data-mml-node="mrow" data-darkmode-bgcolor-15895936460081="rgb(36, 36, 36)" data-darkmode-original-bgcolor-15895936460081="rgb(255, 255, 255)"><g data-mml-node="mo" data-darkmode-bgcolor-15895936460081="rgb(36, 36, 36)" data-darkmode-original-bgcolor-15895936460081="rgb(255, 255, 255)" transform="matrix(1 0 0 -1 10668 0)"><path data-c="23A1" d="M319 351v1799h347v-84H403V351h-84z" data-darkmode-bgcolor-15895936460081="rgb(36, 36, 36)" data-darkmode-original-bgcolor-15895936460081="rgb(255, 255, 255)" stroke="none"/><path data-c="23A3" d="M319-1650V149h84v-1715h263v-84H319z" data-darkmode-bgcolor-15895936460081="rgb(36, 36, 36)" data-darkmode-original-bgcolor-15895936460081="rgb(255, 255, 255)" stroke="none"/><svg width="667" height="402" y="49" viewBox="0 100.5 667 402" data-darkmode-bgcolor-15895936460081="rgb(36, 36, 36)" data-darkmode-original-bgcolor-15895936460081="rgb(255, 255, 255)"><path data-c="23A2" d="M319 0v603.204h84V0h-84z" data-darkmode-bgcolor-15895936460081="rgb(36, 36, 36)" data-darkmode-original-bgcolor-15895936460081="rgb(255, 255, 255)" stroke="none"/></svg></g><g data-mml-node="mtable" data-darkmode-bgcolor-15895936460081="rgb(36, 36, 36)" data-darkmode-original-bgcolor-15895936460081="rgb(255, 255, 255)"><g data-mml-node="mtr"><g data-mml-node="mtd" data-darkmode-bgcolor-15895936460081="rgb(36, 36, 36)" data-darkmode-original-bgcolor-15895936460081="rgb(255, 255, 255)"><path data-c="78" d="M11387-1689q7-42 54-97t116-56q35 0 64 18t43 45q42-63 101-63 37 0 64 22t28 59q0 29-14 47t-27 22-23 4q-19 0-31-11t-12-29q0-46 50-63-11-13-40-13-13 0-19 2-38 16-56 66-60 221-60 258 0 28 16 40t35 12q37 0 73-33t49-81q3-10 6-11t16-2h4q15 0 15 8 0 1-2 11-16 57-62 101t-107 44q-70 0-106-63-41 62-94 62h-6q-49 0-70-26t-22-55q0-32 19-52t45-20q43 0 43 42 0 20-12 35t-23 20-13 5l-3 1q0 1 6 4t16 7 19 3q36 0 62-45 9-16 23-68t28-108 16-66q5-27 5-39 0-28-15-40t-34-12q-40 0-75 32t-49 82q-2 9-5 10t-16 2h-14q-6-6-6-11z" data-darkmode-bgcolor-15895936460081="rgb(36, 36, 36)" data-darkmode-original-bgcolor-15895936460081="rgb(255, 255, 255)" stroke="none" data-mml-node="mi"/></g></g><g data-mml-node="mtr"><g data-mml-node="mtd" data-darkmode-bgcolor-15895936460081="rgb(36, 36, 36)" data-darkmode-original-bgcolor-15895936460081="rgb(255, 255, 255)"><path data-c="79" d="M11397-287q0-14 15-48t48-71 74-36q41 0 66 23t26 64q-2 19-3 21 0 3-16 46t-33 97-16 86q0 43 14 60t42 18q23 0 43-11t31-23 27-33q0-1 5-20t14-59 19-74q38-150 42-157 13-27 43-27 13 0 21 7t11 12 2 9q0 13-49 210t-56 216q-28 83-97 132t-138 50q-45 0-79-22t-34-66q0-22 7-37t19-22 20-10 17-3q44 0 44 42 0 20-12 35t-23 20-13 5l-3 1q2 5 19 12t34 7h8q17 0 26-2 33-9 61-38t43-62 23-56 8-30l-6 4q-6 4-19 11t-26 12q-20 5-39 5-46 0-81-22t-46-71q-1-7-1-31 0-57 35-149t35-117v-2-12q0-3-4-7t-11-4h-4q-23 0-42 19t-30 41-17 42-8 22q-2 2-16 2h-14q-6-6-6-9z" data-darkmode-bgcolor-15895936460081="rgb(36, 36, 36)" data-darkmode-original-bgcolor-15895936460081="rgb(255, 255, 255)" stroke="none" data-mml-node="mi"/></g></g><g data-mml-node="mtr"><g data-mml-node="mtd" data-darkmode-bgcolor-15895936460081="rgb(36, 36, 36)" data-darkmode-original-bgcolor-15895936460081="rgb(255, 255, 255)"><path data-c="7A" d="M11735.5 1062q-10 0-53-11t-63-11q-20 0-34 4t-23 10-12 11-7 11l-2 4q-3 3-15 3-21 0-21-8 0-5 3-14 13-39 43-67t66-34q12-2 17-2 25 0 45 17t38 33 38 17q22 0 44-33t23-33q1-1 15-1h13q6 6 6 8 0 4-5 14t-14 21-17 22-14 19l-7 9q-43 51-136 135t-115 108l-12 12 15 1q22 0 64 11t63 11q38 0 70-19t42-50q4-9 7-11t15-2q19 0 19 10 0 5-1 9-17 62-66 103t-98 42q-26 0-46-17t-39-34-38-17q-44 0-79 60-6 8-17 8h-18q-6-6-6-9 0-15 58-86 39-45 132-130t115-108q12-16 7-16z" data-darkmode-bgcolor-15895936460081="rgb(36, 36, 36)" data-darkmode-original-bgcolor-15895936460081="rgb(255, 255, 255)" stroke="none" data-mml-node="mi"/></g></g></g><g data-mml-node="mo" transform="matrix(1 0 0 -1 11907 0)" data-darkmode-bgcolor-15895936460081="rgb(36, 36, 36)" data-darkmode-original-bgcolor-15895936460081="rgb(255, 255, 255)"><path data-c="23A4" d="M0 2066v84h347V351h-84v1715H0z" data-darkmode-bgcolor-15895936460081="rgb(36, 36, 36)" data-darkmode-original-bgcolor-15895936460081="rgb(255, 255, 255)" stroke="none"/><path data-c="23A6" d="M263-1566V149h84v-1799H0v84h263z" data-darkmode-bgcolor-15895936460081="rgb(36, 36, 36)" data-darkmode-original-bgcolor-15895936460081="rgb(255, 255, 255)" stroke="none"/><svg width="667" height="402" y="49" viewBox="0 100.5 667 402" data-darkmode-bgcolor-15895936460081="rgb(36, 36, 36)" data-darkmode-original-bgcolor-15895936460081="rgb(255, 255, 255)"><path data-c="23A5" d="M263 0v603.204h84V0h-84z" data-darkmode-bgcolor-15895936460081="rgb(36, 36, 36)" data-darkmode-original-bgcolor-15895936460081="rgb(255, 255, 255)" stroke="none"/></svg></g></g></g></svg>