<svg xmlns="http://www.w3.org/2000/svg" width="28.448ex" height="11.885ex" role="img" focusable="false"
  viewBox="0 -2150 12574 5253.3" aria-hidden="true" style="vertical-align: -7.021ex;"
  data-darkmode-bgcolor-15895936460081="rgb(36, 36, 36)"
  data-darkmode-original-bgcolor-15895936460081="rgb(255, 255, 255)">
  <g stroke="currentColor" fill="currentColor" stroke-width="0" transform="matrix(1 0 0 -1 0 0)"
    data-darkmode-bgcolor-15895936460081="rgb(36, 36, 36)"
    data-darkmode-original-bgcolor-15895936460081="rgb(255, 255, 255)">
    <g data-mml-node="math" data-darkmode-bgcolor-15895936460081="rgb(36, 36, 36)"
      data-darkmode-original-bgcolor-15895936460081="rgb(255, 255, 255)">
      <g data-mml-node="munder" data-darkmode-bgcolor-15895936460081="rgb(36, 36, 36)"
        data-darkmode-original-bgcolor-15895936460081="rgb(255, 255, 255)">
        <g data-mml-node="TeXAtom" data-mjx-texclass="OP" data-darkmode-bgcolor-15895936460081="rgb(36, 36, 36)"
          data-darkmode-original-bgcolor-15895936460081="rgb(255, 255, 255)">
          <g data-mml-node="munder" data-darkmode-bgcolor-15895936460081="rgb(36, 36, 36)"
            data-darkmode-original-bgcolor-15895936460081="rgb(255, 255, 255)">
            <g data-mml-node="mrow" data-darkmode-bgcolor-15895936460081="rgb(36, 36, 36)"
              data-darkmode-original-bgcolor-15895936460081="rgb(255, 255, 255)">
              <g data-mml-node="mo" data-darkmode-bgcolor-15895936460081="rgb(36, 36, 36)"
                data-darkmode-original-bgcolor-15895936460081="rgb(255, 255, 255)">
                <path data-c="23A1" d="M319 -645V1154H666V1070H403V-645H319Z" transform="translate(0, 996)"
                  data-darkmode-bgcolor-15895936460081="rgb(36, 36, 36)"
                  data-darkmode-original-bgcolor-15895936460081="rgb(255, 255, 255)"></path>
                <path data-c="23A3" d="M319 -644V1155H403V-560H666V-644H319Z" transform="translate(0, -1006)"
                  data-darkmode-bgcolor-15895936460081="rgb(36, 36, 36)"
                  data-darkmode-original-bgcolor-15895936460081="rgb(255, 255, 255)"></path><svg width="667"
                  height="402" y="49" x="0" viewBox="0 100.5 667 402"
                  data-darkmode-bgcolor-15895936460081="rgb(36, 36, 36)"
                  data-darkmode-original-bgcolor-15895936460081="rgb(255, 255, 255)">
                  <path data-c="23A2" d="M319 0V602H403V0H319Z" transform="scale(1, 1.002)"
                    data-darkmode-bgcolor-15895936460081="rgb(36, 36, 36)"
                    data-darkmode-original-bgcolor-15895936460081="rgb(255, 255, 255)"></path>
                </svg>
              </g>
              <g data-mml-node="mtable" transform="translate(667, 0)"
                data-darkmode-bgcolor-15895936460081="rgb(36, 36, 36)"
                data-darkmode-original-bgcolor-15895936460081="rgb(255, 255, 255)">
                <g data-mml-node="mtr" transform="translate(0, 1400)"
                  data-darkmode-bgcolor-15895936460081="rgb(36, 36, 36)"
                  data-darkmode-original-bgcolor-15895936460081="rgb(255, 255, 255)">
                  <g data-mml-node="mtd" data-darkmode-bgcolor-15895936460081="rgb(36, 36, 36)"
                    data-darkmode-original-bgcolor-15895936460081="rgb(255, 255, 255)">
                    <g data-mml-node="mn" data-darkmode-bgcolor-15895936460081="rgb(36, 36, 36)"
                      data-darkmode-original-bgcolor-15895936460081="rgb(255, 255, 255)">
                      <path data-c="32"
                        d="M109 429Q82 429 66 447T50 491Q50 562 103 614T235 666Q326 666 387 610T449 465Q449 422 429 383T381 315T301 241Q265 210 201 149L142 93L218 92Q375 92 385 97Q392 99 409 186V189H449V186Q448 183 436 95T421 3V0H50V19V31Q50 38 56 46T86 81Q115 113 136 137Q145 147 170 174T204 211T233 244T261 278T284 308T305 340T320 369T333 401T340 431T343 464Q343 527 309 573T212 619Q179 619 154 602T119 569T109 550Q109 549 114 549Q132 549 151 535T170 489Q170 464 154 447T109 429Z"
                        data-darkmode-bgcolor-15895936460081="rgb(36, 36, 36)"
                        data-darkmode-original-bgcolor-15895936460081="rgb(255, 255, 255)"></path>
                    </g>
                  </g>
                  <g data-mml-node="mtd" transform="translate(1500, 0)"
                    data-darkmode-bgcolor-15895936460081="rgb(36, 36, 36)"
                    data-darkmode-original-bgcolor-15895936460081="rgb(255, 255, 255)">
                    <g data-mml-node="mn" data-darkmode-bgcolor-15895936460081="rgb(36, 36, 36)"
                      data-darkmode-original-bgcolor-15895936460081="rgb(255, 255, 255)">
                      <path data-c="30"
                        d="M96 585Q152 666 249 666Q297 666 345 640T423 548Q460 465 460 320Q460 165 417 83Q397 41 362 16T301 -15T250 -22Q224 -22 198 -16T137 16T82 83Q39 165 39 320Q39 494 96 585ZM321 597Q291 629 250 629Q208 629 178 597Q153 571 145 525T137 333Q137 175 145 125T181 46Q209 16 250 16Q290 16 318 46Q347 76 354 130T362 333Q362 478 354 524T321 597Z"
                        data-darkmode-bgcolor-15895936460081="rgb(36, 36, 36)"
                        data-darkmode-original-bgcolor-15895936460081="rgb(255, 255, 255)"></path>
                    </g>
                  </g>
                  <g data-mml-node="mtd" transform="translate(3000, 0)"
                    data-darkmode-bgcolor-15895936460081="rgb(36, 36, 36)"
                    data-darkmode-original-bgcolor-15895936460081="rgb(255, 255, 255)">
                    <g data-mml-node="mn" data-darkmode-bgcolor-15895936460081="rgb(36, 36, 36)"
                      data-darkmode-original-bgcolor-15895936460081="rgb(255, 255, 255)">
                      <path data-c="30"
                        d="M96 585Q152 666 249 666Q297 666 345 640T423 548Q460 465 460 320Q460 165 417 83Q397 41 362 16T301 -15T250 -22Q224 -22 198 -16T137 16T82 83Q39 165 39 320Q39 494 96 585ZM321 597Q291 629 250 629Q208 629 178 597Q153 571 145 525T137 333Q137 175 145 125T181 46Q209 16 250 16Q290 16 318 46Q347 76 354 130T362 333Q362 478 354 524T321 597Z"
                        data-darkmode-bgcolor-15895936460081="rgb(36, 36, 36)"
                        data-darkmode-original-bgcolor-15895936460081="rgb(255, 255, 255)"></path>
                    </g>
                  </g>
                </g>
                <g data-mml-node="mtr" data-darkmode-bgcolor-15895936460081="rgb(36, 36, 36)"
                  data-darkmode-original-bgcolor-15895936460081="rgb(255, 255, 255)">
                  <g data-mml-node="mtd" data-darkmode-bgcolor-15895936460081="rgb(36, 36, 36)"
                    data-darkmode-original-bgcolor-15895936460081="rgb(255, 255, 255)">
                    <g data-mml-node="mn" data-darkmode-bgcolor-15895936460081="rgb(36, 36, 36)"
                      data-darkmode-original-bgcolor-15895936460081="rgb(255, 255, 255)">
                      <path data-c="30"
                        d="M96 585Q152 666 249 666Q297 666 345 640T423 548Q460 465 460 320Q460 165 417 83Q397 41 362 16T301 -15T250 -22Q224 -22 198 -16T137 16T82 83Q39 165 39 320Q39 494 96 585ZM321 597Q291 629 250 629Q208 629 178 597Q153 571 145 525T137 333Q137 175 145 125T181 46Q209 16 250 16Q290 16 318 46Q347 76 354 130T362 333Q362 478 354 524T321 597Z"
                        data-darkmode-bgcolor-15895936460081="rgb(36, 36, 36)"
                        data-darkmode-original-bgcolor-15895936460081="rgb(255, 255, 255)"></path>
                    </g>
                  </g>
                  <g data-mml-node="mtd" transform="translate(1500, 0)"
                    data-darkmode-bgcolor-15895936460081="rgb(36, 36, 36)"
                    data-darkmode-original-bgcolor-15895936460081="rgb(255, 255, 255)">
                    <g data-mml-node="mn" data-darkmode-bgcolor-15895936460081="rgb(36, 36, 36)"
                      data-darkmode-original-bgcolor-15895936460081="rgb(255, 255, 255)">
                      <path data-c="34"
                        d="M462 0Q444 3 333 3Q217 3 199 0H190V46H221Q241 46 248 46T265 48T279 53T286 61Q287 63 287 115V165H28V211L179 442Q332 674 334 675Q336 677 355 677H373L379 671V211H471V165H379V114Q379 73 379 66T385 54Q393 47 442 46H471V0H462ZM293 211V545L74 212L183 211H293Z"
                        data-darkmode-bgcolor-15895936460081="rgb(36, 36, 36)"
                        data-darkmode-original-bgcolor-15895936460081="rgb(255, 255, 255)"></path>
                    </g>
                  </g>
                  <g data-mml-node="mtd" transform="translate(3000, 0)"
                    data-darkmode-bgcolor-15895936460081="rgb(36, 36, 36)"
                    data-darkmode-original-bgcolor-15895936460081="rgb(255, 255, 255)">
                    <g data-mml-node="mn" data-darkmode-bgcolor-15895936460081="rgb(36, 36, 36)"
                      data-darkmode-original-bgcolor-15895936460081="rgb(255, 255, 255)">
                      <path data-c="30"
                        d="M96 585Q152 666 249 666Q297 666 345 640T423 548Q460 465 460 320Q460 165 417 83Q397 41 362 16T301 -15T250 -22Q224 -22 198 -16T137 16T82 83Q39 165 39 320Q39 494 96 585ZM321 597Q291 629 250 629Q208 629 178 597Q153 571 145 525T137 333Q137 175 145 125T181 46Q209 16 250 16Q290 16 318 46Q347 76 354 130T362 333Q362 478 354 524T321 597Z"
                        data-darkmode-bgcolor-15895936460081="rgb(36, 36, 36)"
                        data-darkmode-original-bgcolor-15895936460081="rgb(255, 255, 255)"></path>
                    </g>
                  </g>
                </g>
                <g data-mml-node="mtr" transform="translate(0, -1400)"
                  data-darkmode-bgcolor-15895936460081="rgb(36, 36, 36)"
                  data-darkmode-original-bgcolor-15895936460081="rgb(255, 255, 255)">
                  <g data-mml-node="mtd" data-darkmode-bgcolor-15895936460081="rgb(36, 36, 36)"
                    data-darkmode-original-bgcolor-15895936460081="rgb(255, 255, 255)">
                    <g data-mml-node="mn" data-darkmode-bgcolor-15895936460081="rgb(36, 36, 36)"
                      data-darkmode-original-bgcolor-15895936460081="rgb(255, 255, 255)">
                      <path data-c="30"
                        d="M96 585Q152 666 249 666Q297 666 345 640T423 548Q460 465 460 320Q460 165 417 83Q397 41 362 16T301 -15T250 -22Q224 -22 198 -16T137 16T82 83Q39 165 39 320Q39 494 96 585ZM321 597Q291 629 250 629Q208 629 178 597Q153 571 145 525T137 333Q137 175 145 125T181 46Q209 16 250 16Q290 16 318 46Q347 76 354 130T362 333Q362 478 354 524T321 597Z"
                        data-darkmode-bgcolor-15895936460081="rgb(36, 36, 36)"
                        data-darkmode-original-bgcolor-15895936460081="rgb(255, 255, 255)"></path>
                    </g>
                  </g>
                  <g data-mml-node="mtd" transform="translate(1500, 0)"
                    data-darkmode-bgcolor-15895936460081="rgb(36, 36, 36)"
                    data-darkmode-original-bgcolor-15895936460081="rgb(255, 255, 255)">
                    <g data-mml-node="mn" data-darkmode-bgcolor-15895936460081="rgb(36, 36, 36)"
                      data-darkmode-original-bgcolor-15895936460081="rgb(255, 255, 255)">
                      <path data-c="30"
                        d="M96 585Q152 666 249 666Q297 666 345 640T423 548Q460 465 460 320Q460 165 417 83Q397 41 362 16T301 -15T250 -22Q224 -22 198 -16T137 16T82 83Q39 165 39 320Q39 494 96 585ZM321 597Q291 629 250 629Q208 629 178 597Q153 571 145 525T137 333Q137 175 145 125T181 46Q209 16 250 16Q290 16 318 46Q347 76 354 130T362 333Q362 478 354 524T321 597Z"
                        data-darkmode-bgcolor-15895936460081="rgb(36, 36, 36)"
                        data-darkmode-original-bgcolor-15895936460081="rgb(255, 255, 255)"></path>
                    </g>
                  </g>
                  <g data-mml-node="mtd" transform="translate(3000, 0)"
                    data-darkmode-bgcolor-15895936460081="rgb(36, 36, 36)"
                    data-darkmode-original-bgcolor-15895936460081="rgb(255, 255, 255)">
                    <g data-mml-node="mn" data-darkmode-bgcolor-15895936460081="rgb(36, 36, 36)"
                      data-darkmode-original-bgcolor-15895936460081="rgb(255, 255, 255)">
                      <path data-c="31"
                        d="M213 578L200 573Q186 568 160 563T102 556H83V602H102Q149 604 189 617T245 641T273 663Q275 666 285 666Q294 666 302 660V361L303 61Q310 54 315 52T339 48T401 46H427V0H416Q395 3 257 3Q121 3 100 0H88V46H114Q136 46 152 46T177 47T193 50T201 52T207 57T213 61V578Z"
                        data-darkmode-bgcolor-15895936460081="rgb(36, 36, 36)"
                        data-darkmode-original-bgcolor-15895936460081="rgb(255, 255, 255)"></path>
                    </g>
                  </g>
                </g>
              </g>
              <g data-mml-node="mo" transform="translate(4167, 0)"
                data-darkmode-bgcolor-15895936460081="rgb(36, 36, 36)"
                data-darkmode-original-bgcolor-15895936460081="rgb(255, 255, 255)">
                <path data-c="23A4" d="M0 1070V1154H347V-645H263V1070H0Z" transform="translate(0, 996)"
                  data-darkmode-bgcolor-15895936460081="rgb(36, 36, 36)"
                  data-darkmode-original-bgcolor-15895936460081="rgb(255, 255, 255)"></path>
                <path data-c="23A6" d="M263 -560V1155H347V-644H0V-560H263Z" transform="translate(0, -1006)"
                  data-darkmode-bgcolor-15895936460081="rgb(36, 36, 36)"
                  data-darkmode-original-bgcolor-15895936460081="rgb(255, 255, 255)"></path><svg width="667"
                  height="402" y="49" x="0" viewBox="0 100.5 667 402"
                  data-darkmode-bgcolor-15895936460081="rgb(36, 36, 36)"
                  data-darkmode-original-bgcolor-15895936460081="rgb(255, 255, 255)">
                  <path data-c="23A5" d="M263 0V602H347V0H263Z" transform="scale(1, 1.002)"
                    data-darkmode-bgcolor-15895936460081="rgb(36, 36, 36)"
                    data-darkmode-original-bgcolor-15895936460081="rgb(255, 255, 255)"></path>
                </svg>
              </g>
            </g>
            <g data-mml-node="mo" transform="translate(0, -2030)" data-darkmode-bgcolor-15895936460081="rgb(36, 36, 36)"
              data-darkmode-original-bgcolor-15895936460081="rgb(255, 255, 255)">
              <path data-c="E152"
                d="M-24 327L-18 333H-1Q11 333 15 333T22 329T27 322T35 308T54 284Q115 203 225 162T441 120Q454 120 457 117T460 95V60V28Q460 8 457 4T442 0Q355 0 260 36Q75 118 -16 278L-24 292V327Z"
                data-darkmode-bgcolor-15895936460081="rgb(36, 36, 36)"
                data-darkmode-original-bgcolor-15895936460081="rgb(255, 255, 255)"></path>
              <path data-c="E153"
                d="M-10 60V95Q-10 113 -7 116T9 120Q151 120 250 171T396 284Q404 293 412 305T424 324T431 331Q433 333 451 333H468L474 327V292L466 278Q375 118 190 36Q95 0 8 0Q-5 0 -7 3T-10 24V60Z"
                transform="translate(4384, 0)" data-darkmode-bgcolor-15895936460081="rgb(36, 36, 36)"
                data-darkmode-original-bgcolor-15895936460081="rgb(255, 255, 255)"></path>
              <g data-c="E156" transform="translate(1967, 0)" data-darkmode-bgcolor-15895936460081="rgb(36, 36, 36)"
                data-darkmode-original-bgcolor-15895936460081="rgb(255, 255, 255)">
                <path data-c="E151"
                  d="M-10 60Q-10 104 -10 111T-5 118Q-1 120 10 120Q96 120 190 84Q375 2 466 -158L474 -172V-207L468 -213H451H447Q437 -213 434 -213T428 -209T423 -202T414 -187T396 -163Q331 -82 224 -41T9 0Q-4 0 -7 3T-10 25V60Z"
                  data-darkmode-bgcolor-15895936460081="rgb(36, 36, 36)"
                  data-darkmode-original-bgcolor-15895936460081="rgb(255, 255, 255)"></path>
                <path data-c="E150"
                  d="M-18 -213L-24 -207V-172L-16 -158Q75 2 260 84Q334 113 415 119Q418 119 427 119T440 120Q454 120 457 117T460 98V60V25Q460 7 457 4T441 0Q308 0 193 -55T25 -205Q21 -211 18 -212T-1 -213H-18Z"
                  transform="translate(450, 0)" data-darkmode-bgcolor-15895936460081="rgb(36, 36, 36)"
                  data-darkmode-original-bgcolor-15895936460081="rgb(255, 255, 255)"></path>
              </g><svg width="1717" height="720" x="350" y="-300" viewBox="429.2 -300 1717 720"
                data-darkmode-bgcolor-15895936460081="rgb(36, 36, 36)"
                data-darkmode-original-bgcolor-15895936460081="rgb(255, 255, 255)">
                <path data-c="E154" d="M-10 0V120H410V0H-10Z" transform="scale(6.439, 1)"
                  data-darkmode-bgcolor-15895936460081="rgb(36, 36, 36)"
                  data-darkmode-original-bgcolor-15895936460081="rgb(255, 255, 255)"></path>
              </svg><svg width="1717" height="720" x="2767" y="-300" viewBox="429.2 -300 1717 720"
                data-darkmode-bgcolor-15895936460081="rgb(36, 36, 36)"
                data-darkmode-original-bgcolor-15895936460081="rgb(255, 255, 255)">
                <path data-c="E154" d="M-10 0V120H410V0H-10Z" transform="scale(6.439, 1)"
                  data-darkmode-bgcolor-15895936460081="rgb(36, 36, 36)"
                  data-darkmode-original-bgcolor-15895936460081="rgb(255, 255, 255)"></path>
              </svg>
            </g>
          </g>
        </g>
        <g data-mml-node="TeXAtom" transform="translate(2148.7, -2980) scale(0.707)" data-mjx-texclass="ORD"
          data-darkmode-bgcolor-15895936460081="rgb(36, 36, 36)"
          data-darkmode-original-bgcolor-15895936460081="rgb(255, 255, 255)">
          <g data-mml-node="mi" data-darkmode-bgcolor-15895936460081="rgb(36, 36, 36)"
            data-darkmode-original-bgcolor-15895936460081="rgb(255, 255, 255)">
            <path data-c="42"
              d="M231 637Q204 637 199 638T194 649Q194 676 205 682Q206 683 335 683Q594 683 608 681Q671 671 713 636T756 544Q756 480 698 429T565 360L555 357Q619 348 660 311T702 219Q702 146 630 78T453 1Q446 0 242 0Q42 0 39 2Q35 5 35 10Q35 17 37 24Q42 43 47 45Q51 46 62 46H68Q95 46 128 49Q142 52 147 61Q150 65 219 339T288 628Q288 635 231 637ZM649 544Q649 574 634 600T585 634Q578 636 493 637Q473 637 451 637T416 636H403Q388 635 384 626Q382 622 352 506Q352 503 351 500L320 374H401Q482 374 494 376Q554 386 601 434T649 544ZM595 229Q595 273 572 302T512 336Q506 337 429 337Q311 337 310 336Q310 334 293 263T258 122L240 52Q240 48 252 48T333 46Q422 46 429 47Q491 54 543 105T595 229Z"
              data-darkmode-bgcolor-15895936460081="rgb(36, 36, 36)"
              data-darkmode-original-bgcolor-15895936460081="rgb(255, 255, 255)"></path>
          </g>
        </g>
      </g>
      <g data-mml-node="munder" transform="translate(4834, 0)" data-darkmode-bgcolor-15895936460081="rgb(36, 36, 36)"
        data-darkmode-original-bgcolor-15895936460081="rgb(255, 255, 255)">
        <g data-mml-node="TeXAtom" data-mjx-texclass="OP" data-darkmode-bgcolor-15895936460081="rgb(36, 36, 36)"
          data-darkmode-original-bgcolor-15895936460081="rgb(255, 255, 255)">
          <g data-mml-node="munder" data-darkmode-bgcolor-15895936460081="rgb(36, 36, 36)"
            data-darkmode-original-bgcolor-15895936460081="rgb(255, 255, 255)">
            <g data-mml-node="mrow" data-darkmode-bgcolor-15895936460081="rgb(36, 36, 36)"
              data-darkmode-original-bgcolor-15895936460081="rgb(255, 255, 255)">
              <g data-mml-node="mo" data-darkmode-bgcolor-15895936460081="rgb(36, 36, 36)"
                data-darkmode-original-bgcolor-15895936460081="rgb(255, 255, 255)">
                <path data-c="23A1" d="M319 -645V1154H666V1070H403V-645H319Z" transform="translate(0, 996)"
                  data-darkmode-bgcolor-15895936460081="rgb(36, 36, 36)"
                  data-darkmode-original-bgcolor-15895936460081="rgb(255, 255, 255)"></path>
                <path data-c="23A3" d="M319 -644V1155H403V-560H666V-644H319Z" transform="translate(0, -1006)"
                  data-darkmode-bgcolor-15895936460081="rgb(36, 36, 36)"
                  data-darkmode-original-bgcolor-15895936460081="rgb(255, 255, 255)"></path><svg width="667"
                  height="402" y="49" x="0" viewBox="0 100.5 667 402"
                  data-darkmode-bgcolor-15895936460081="rgb(36, 36, 36)"
                  data-darkmode-original-bgcolor-15895936460081="rgb(255, 255, 255)">
                  <path data-c="23A2" d="M319 0V602H403V0H319Z" transform="scale(1, 1.002)"
                    data-darkmode-bgcolor-15895936460081="rgb(36, 36, 36)"
                    data-darkmode-original-bgcolor-15895936460081="rgb(255, 255, 255)"></path>
                </svg>
              </g>
              <g data-mml-node="mtable" transform="translate(667, 0)"
                data-darkmode-bgcolor-15895936460081="rgb(36, 36, 36)"
                data-darkmode-original-bgcolor-15895936460081="rgb(255, 255, 255)">
                <g data-mml-node="mtr" transform="translate(0, 1400)"
                  data-darkmode-bgcolor-15895936460081="rgb(36, 36, 36)"
                  data-darkmode-original-bgcolor-15895936460081="rgb(255, 255, 255)">
                  <g data-mml-node="mtd" data-darkmode-bgcolor-15895936460081="rgb(36, 36, 36)"
                    data-darkmode-original-bgcolor-15895936460081="rgb(255, 255, 255)">
                    <g data-mml-node="mn" data-darkmode-bgcolor-15895936460081="rgb(36, 36, 36)"
                      data-darkmode-original-bgcolor-15895936460081="rgb(255, 255, 255)">
                      <path data-c="31"
                        d="M213 578L200 573Q186 568 160 563T102 556H83V602H102Q149 604 189 617T245 641T273 663Q275 666 285 666Q294 666 302 660V361L303 61Q310 54 315 52T339 48T401 46H427V0H416Q395 3 257 3Q121 3 100 0H88V46H114Q136 46 152 46T177 47T193 50T201 52T207 57T213 61V578Z"
                        data-darkmode-bgcolor-15895936460081="rgb(36, 36, 36)"
                        data-darkmode-original-bgcolor-15895936460081="rgb(255, 255, 255)"></path>
                    </g>
                  </g>
                  <g data-mml-node="mtd" transform="translate(1500, 0)"
                    data-darkmode-bgcolor-15895936460081="rgb(36, 36, 36)"
                    data-darkmode-original-bgcolor-15895936460081="rgb(255, 255, 255)">
                    <g data-mml-node="mn" data-darkmode-bgcolor-15895936460081="rgb(36, 36, 36)"
                      data-darkmode-original-bgcolor-15895936460081="rgb(255, 255, 255)">
                      <path data-c="30"
                        d="M96 585Q152 666 249 666Q297 666 345 640T423 548Q460 465 460 320Q460 165 417 83Q397 41 362 16T301 -15T250 -22Q224 -22 198 -16T137 16T82 83Q39 165 39 320Q39 494 96 585ZM321 597Q291 629 250 629Q208 629 178 597Q153 571 145 525T137 333Q137 175 145 125T181 46Q209 16 250 16Q290 16 318 46Q347 76 354 130T362 333Q362 478 354 524T321 597Z"
                        data-darkmode-bgcolor-15895936460081="rgb(36, 36, 36)"
                        data-darkmode-original-bgcolor-15895936460081="rgb(255, 255, 255)"></path>
                    </g>
                  </g>
                  <g data-mml-node="mtd" transform="translate(3000, 0)"
                    data-darkmode-bgcolor-15895936460081="rgb(36, 36, 36)"
                    data-darkmode-original-bgcolor-15895936460081="rgb(255, 255, 255)">
                    <g data-mml-node="mn" data-darkmode-bgcolor-15895936460081="rgb(36, 36, 36)"
                      data-darkmode-original-bgcolor-15895936460081="rgb(255, 255, 255)">
                      <path data-c="31"
                        d="M213 578L200 573Q186 568 160 563T102 556H83V602H102Q149 604 189 617T245 641T273 663Q275 666 285 666Q294 666 302 660V361L303 61Q310 54 315 52T339 48T401 46H427V0H416Q395 3 257 3Q121 3 100 0H88V46H114Q136 46 152 46T177 47T193 50T201 52T207 57T213 61V578Z"
                        data-darkmode-bgcolor-15895936460081="rgb(36, 36, 36)"
                        data-darkmode-original-bgcolor-15895936460081="rgb(255, 255, 255)"></path>
                      <path data-c="30"
                        d="M96 585Q152 666 249 666Q297 666 345 640T423 548Q460 465 460 320Q460 165 417 83Q397 41 362 16T301 -15T250 -22Q224 -22 198 -16T137 16T82 83Q39 165 39 320Q39 494 96 585ZM321 597Q291 629 250 629Q208 629 178 597Q153 571 145 525T137 333Q137 175 145 125T181 46Q209 16 250 16Q290 16 318 46Q347 76 354 130T362 333Q362 478 354 524T321 597Z"
                        transform="translate(500, 0)" data-darkmode-bgcolor-15895936460081="rgb(36, 36, 36)"
                        data-darkmode-original-bgcolor-15895936460081="rgb(255, 255, 255)"></path>
                      <path data-c="30"
                        d="M96 585Q152 666 249 666Q297 666 345 640T423 548Q460 465 460 320Q460 165 417 83Q397 41 362 16T301 -15T250 -22Q224 -22 198 -16T137 16T82 83Q39 165 39 320Q39 494 96 585ZM321 597Q291 629 250 629Q208 629 178 597Q153 571 145 525T137 333Q137 175 145 125T181 46Q209 16 250 16Q290 16 318 46Q347 76 354 130T362 333Q362 478 354 524T321 597Z"
                        transform="translate(1000, 0)" data-darkmode-bgcolor-15895936460081="rgb(36, 36, 36)"
                        data-darkmode-original-bgcolor-15895936460081="rgb(255, 255, 255)"></path>
                    </g>
                  </g>
                </g>
                <g data-mml-node="mtr" data-darkmode-bgcolor-15895936460081="rgb(36, 36, 36)"
                  data-darkmode-original-bgcolor-15895936460081="rgb(255, 255, 255)">
                  <g data-mml-node="mtd" data-darkmode-bgcolor-15895936460081="rgb(36, 36, 36)"
                    data-darkmode-original-bgcolor-15895936460081="rgb(255, 255, 255)">
                    <g data-mml-node="mn" data-darkmode-bgcolor-15895936460081="rgb(36, 36, 36)"
                      data-darkmode-original-bgcolor-15895936460081="rgb(255, 255, 255)">
                      <path data-c="30"
                        d="M96 585Q152 666 249 666Q297 666 345 640T423 548Q460 465 460 320Q460 165 417 83Q397 41 362 16T301 -15T250 -22Q224 -22 198 -16T137 16T82 83Q39 165 39 320Q39 494 96 585ZM321 597Q291 629 250 629Q208 629 178 597Q153 571 145 525T137 333Q137 175 145 125T181 46Q209 16 250 16Q290 16 318 46Q347 76 354 130T362 333Q362 478 354 524T321 597Z"
                        data-darkmode-bgcolor-15895936460081="rgb(36, 36, 36)"
                        data-darkmode-original-bgcolor-15895936460081="rgb(255, 255, 255)"></path>
                    </g>
                  </g>
                  <g data-mml-node="mtd" transform="translate(1500, 0)"
                    data-darkmode-bgcolor-15895936460081="rgb(36, 36, 36)"
                    data-darkmode-original-bgcolor-15895936460081="rgb(255, 255, 255)">
                    <g data-mml-node="mn" data-darkmode-bgcolor-15895936460081="rgb(36, 36, 36)"
                      data-darkmode-original-bgcolor-15895936460081="rgb(255, 255, 255)">
                      <path data-c="31"
                        d="M213 578L200 573Q186 568 160 563T102 556H83V602H102Q149 604 189 617T245 641T273 663Q275 666 285 666Q294 666 302 660V361L303 61Q310 54 315 52T339 48T401 46H427V0H416Q395 3 257 3Q121 3 100 0H88V46H114Q136 46 152 46T177 47T193 50T201 52T207 57T213 61V578Z"
                        data-darkmode-bgcolor-15895936460081="rgb(36, 36, 36)"
                        data-darkmode-original-bgcolor-15895936460081="rgb(255, 255, 255)"></path>
                    </g>
                  </g>
                  <g data-mml-node="mtd" transform="translate(3000, 0)"
                    data-darkmode-bgcolor-15895936460081="rgb(36, 36, 36)"
                    data-darkmode-original-bgcolor-15895936460081="rgb(255, 255, 255)">
                    <g data-mml-node="mn" data-darkmode-bgcolor-15895936460081="rgb(36, 36, 36)"
                      data-darkmode-original-bgcolor-15895936460081="rgb(255, 255, 255)">
                      <path data-c="31"
                        d="M213 578L200 573Q186 568 160 563T102 556H83V602H102Q149 604 189 617T245 641T273 663Q275 666 285 666Q294 666 302 660V361L303 61Q310 54 315 52T339 48T401 46H427V0H416Q395 3 257 3Q121 3 100 0H88V46H114Q136 46 152 46T177 47T193 50T201 52T207 57T213 61V578Z"
                        data-darkmode-bgcolor-15895936460081="rgb(36, 36, 36)"
                        data-darkmode-original-bgcolor-15895936460081="rgb(255, 255, 255)"></path>
                      <path data-c="30"
                        d="M96 585Q152 666 249 666Q297 666 345 640T423 548Q460 465 460 320Q460 165 417 83Q397 41 362 16T301 -15T250 -22Q224 -22 198 -16T137 16T82 83Q39 165 39 320Q39 494 96 585ZM321 597Q291 629 250 629Q208 629 178 597Q153 571 145 525T137 333Q137 175 145 125T181 46Q209 16 250 16Q290 16 318 46Q347 76 354 130T362 333Q362 478 354 524T321 597Z"
                        transform="translate(500, 0)" data-darkmode-bgcolor-15895936460081="rgb(36, 36, 36)"
                        data-darkmode-original-bgcolor-15895936460081="rgb(255, 255, 255)"></path>
                      <path data-c="30"
                        d="M96 585Q152 666 249 666Q297 666 345 640T423 548Q460 465 460 320Q460 165 417 83Q397 41 362 16T301 -15T250 -22Q224 -22 198 -16T137 16T82 83Q39 165 39 320Q39 494 96 585ZM321 597Q291 629 250 629Q208 629 178 597Q153 571 145 525T137 333Q137 175 145 125T181 46Q209 16 250 16Q290 16 318 46Q347 76 354 130T362 333Q362 478 354 524T321 597Z"
                        transform="translate(1000, 0)" data-darkmode-bgcolor-15895936460081="rgb(36, 36, 36)"
                        data-darkmode-original-bgcolor-15895936460081="rgb(255, 255, 255)"></path>
                    </g>
                  </g>
                </g>
                <g data-mml-node="mtr" transform="translate(0, -1400)"
                  data-darkmode-bgcolor-15895936460081="rgb(36, 36, 36)"
                  data-darkmode-original-bgcolor-15895936460081="rgb(255, 255, 255)">
                  <g data-mml-node="mtd" data-darkmode-bgcolor-15895936460081="rgb(36, 36, 36)"
                    data-darkmode-original-bgcolor-15895936460081="rgb(255, 255, 255)">
                    <g data-mml-node="mn" data-darkmode-bgcolor-15895936460081="rgb(36, 36, 36)"
                      data-darkmode-original-bgcolor-15895936460081="rgb(255, 255, 255)">
                      <path data-c="30"
                        d="M96 585Q152 666 249 666Q297 666 345 640T423 548Q460 465 460 320Q460 165 417 83Q397 41 362 16T301 -15T250 -22Q224 -22 198 -16T137 16T82 83Q39 165 39 320Q39 494 96 585ZM321 597Q291 629 250 629Q208 629 178 597Q153 571 145 525T137 333Q137 175 145 125T181 46Q209 16 250 16Q290 16 318 46Q347 76 354 130T362 333Q362 478 354 524T321 597Z"
                        data-darkmode-bgcolor-15895936460081="rgb(36, 36, 36)"
                        data-darkmode-original-bgcolor-15895936460081="rgb(255, 255, 255)"></path>
                    </g>
                  </g>
                  <g data-mml-node="mtd" transform="translate(1500, 0)"
                    data-darkmode-bgcolor-15895936460081="rgb(36, 36, 36)"
                    data-darkmode-original-bgcolor-15895936460081="rgb(255, 255, 255)">
                    <g data-mml-node="mn" data-darkmode-bgcolor-15895936460081="rgb(36, 36, 36)"
                      data-darkmode-original-bgcolor-15895936460081="rgb(255, 255, 255)">
                      <path data-c="30"
                        d="M96 585Q152 666 249 666Q297 666 345 640T423 548Q460 465 460 320Q460 165 417 83Q397 41 362 16T301 -15T250 -22Q224 -22 198 -16T137 16T82 83Q39 165 39 320Q39 494 96 585ZM321 597Q291 629 250 629Q208 629 178 597Q153 571 145 525T137 333Q137 175 145 125T181 46Q209 16 250 16Q290 16 318 46Q347 76 354 130T362 333Q362 478 354 524T321 597Z"
                        data-darkmode-bgcolor-15895936460081="rgb(36, 36, 36)"
                        data-darkmode-original-bgcolor-15895936460081="rgb(255, 255, 255)"></path>
                    </g>
                  </g>
                  <g data-mml-node="mtd" transform="translate(3500, 0)"
                    data-darkmode-bgcolor-15895936460081="rgb(36, 36, 36)"
                    data-darkmode-original-bgcolor-15895936460081="rgb(255, 255, 255)">
                    <g data-mml-node="mn" data-darkmode-bgcolor-15895936460081="rgb(36, 36, 36)"
                      data-darkmode-original-bgcolor-15895936460081="rgb(255, 255, 255)">
                      <path data-c="31"
                        d="M213 578L200 573Q186 568 160 563T102 556H83V602H102Q149 604 189 617T245 641T273 663Q275 666 285 666Q294 666 302 660V361L303 61Q310 54 315 52T339 48T401 46H427V0H416Q395 3 257 3Q121 3 100 0H88V46H114Q136 46 152 46T177 47T193 50T201 52T207 57T213 61V578Z"
                        data-darkmode-bgcolor-15895936460081="rgb(36, 36, 36)"
                        data-darkmode-original-bgcolor-15895936460081="rgb(255, 255, 255)"></path>
                    </g>
                  </g>
                </g>
              </g>
              <g data-mml-node="mo" transform="translate(5167, 0)"
                data-darkmode-bgcolor-15895936460081="rgb(36, 36, 36)"
                data-darkmode-original-bgcolor-15895936460081="rgb(255, 255, 255)">
                <path data-c="23A4" d="M0 1070V1154H347V-645H263V1070H0Z" transform="translate(0, 996)"
                  data-darkmode-bgcolor-15895936460081="rgb(36, 36, 36)"
                  data-darkmode-original-bgcolor-15895936460081="rgb(255, 255, 255)"></path>
                <path data-c="23A6" d="M263 -560V1155H347V-644H0V-560H263Z" transform="translate(0, -1006)"
                  data-darkmode-bgcolor-15895936460081="rgb(36, 36, 36)"
                  data-darkmode-original-bgcolor-15895936460081="rgb(255, 255, 255)"></path><svg width="667"
                  height="402" y="49" x="0" viewBox="0 100.5 667 402"
                  data-darkmode-bgcolor-15895936460081="rgb(36, 36, 36)"
                  data-darkmode-original-bgcolor-15895936460081="rgb(255, 255, 255)">
                  <path data-c="23A5" d="M263 0V602H347V0H263Z" transform="scale(1, 1.002)"
                    data-darkmode-bgcolor-15895936460081="rgb(36, 36, 36)"
                    data-darkmode-original-bgcolor-15895936460081="rgb(255, 255, 255)"></path>
                </svg>
              </g>
            </g>
            <g data-mml-node="mo" transform="translate(0, -2030)" data-darkmode-bgcolor-15895936460081="rgb(36, 36, 36)"
              data-darkmode-original-bgcolor-15895936460081="rgb(255, 255, 255)">
              <path data-c="E152"
                d="M-24 327L-18 333H-1Q11 333 15 333T22 329T27 322T35 308T54 284Q115 203 225 162T441 120Q454 120 457 117T460 95V60V28Q460 8 457 4T442 0Q355 0 260 36Q75 118 -16 278L-24 292V327Z"
                data-darkmode-bgcolor-15895936460081="rgb(36, 36, 36)"
                data-darkmode-original-bgcolor-15895936460081="rgb(255, 255, 255)"></path>
              <path data-c="E153"
                d="M-10 60V95Q-10 113 -7 116T9 120Q151 120 250 171T396 284Q404 293 412 305T424 324T431 331Q433 333 451 333H468L474 327V292L466 278Q375 118 190 36Q95 0 8 0Q-5 0 -7 3T-10 24V60Z"
                transform="translate(5384, 0)" data-darkmode-bgcolor-15895936460081="rgb(36, 36, 36)"
                data-darkmode-original-bgcolor-15895936460081="rgb(255, 255, 255)"></path>
              <g data-c="E156" transform="translate(2467, 0)" data-darkmode-bgcolor-15895936460081="rgb(36, 36, 36)"
                data-darkmode-original-bgcolor-15895936460081="rgb(255, 255, 255)">
                <path data-c="E151"
                  d="M-10 60Q-10 104 -10 111T-5 118Q-1 120 10 120Q96 120 190 84Q375 2 466 -158L474 -172V-207L468 -213H451H447Q437 -213 434 -213T428 -209T423 -202T414 -187T396 -163Q331 -82 224 -41T9 0Q-4 0 -7 3T-10 25V60Z"
                  data-darkmode-bgcolor-15895936460081="rgb(36, 36, 36)"
                  data-darkmode-original-bgcolor-15895936460081="rgb(255, 255, 255)"></path>
                <path data-c="E150"
                  d="M-18 -213L-24 -207V-172L-16 -158Q75 2 260 84Q334 113 415 119Q418 119 427 119T440 120Q454 120 457 117T460 98V60V25Q460 7 457 4T441 0Q308 0 193 -55T25 -205Q21 -211 18 -212T-1 -213H-18Z"
                  transform="translate(450, 0)" data-darkmode-bgcolor-15895936460081="rgb(36, 36, 36)"
                  data-darkmode-original-bgcolor-15895936460081="rgb(255, 255, 255)"></path>
              </g><svg width="2217" height="720" x="350" y="-300" viewBox="554.3 -300 2217 720"
                data-darkmode-bgcolor-15895936460081="rgb(36, 36, 36)"
                data-darkmode-original-bgcolor-15895936460081="rgb(255, 255, 255)">
                <path data-c="E154" d="M-10 0V120H410V0H-10Z" transform="scale(8.314, 1)"
                  data-darkmode-bgcolor-15895936460081="rgb(36, 36, 36)"
                  data-darkmode-original-bgcolor-15895936460081="rgb(255, 255, 255)"></path>
              </svg><svg width="2217" height="720" x="3267" y="-300" viewBox="554.3 -300 2217 720"
                data-darkmode-bgcolor-15895936460081="rgb(36, 36, 36)"
                data-darkmode-original-bgcolor-15895936460081="rgb(255, 255, 255)">
                <path data-c="E154" d="M-10 0V120H410V0H-10Z" transform="scale(8.314, 1)"
                  data-darkmode-bgcolor-15895936460081="rgb(36, 36, 36)"
                  data-darkmode-original-bgcolor-15895936460081="rgb(255, 255, 255)"></path>
              </svg>
            </g>
          </g>
        </g>
        <g data-mml-node="TeXAtom" transform="translate(2651.8, -3003.3) scale(0.707)" data-mjx-texclass="ORD"
          data-darkmode-bgcolor-15895936460081="rgb(36, 36, 36)"
          data-darkmode-original-bgcolor-15895936460081="rgb(255, 255, 255)">
          <g data-mml-node="mi" data-darkmode-bgcolor-15895936460081="rgb(36, 36, 36)"
            data-darkmode-original-bgcolor-15895936460081="rgb(255, 255, 255)">
            <path data-c="41"
              d="M208 74Q208 50 254 46Q272 46 272 35Q272 34 270 22Q267 8 264 4T251 0Q249 0 239 0T205 1T141 2Q70 2 50 0H42Q35 7 35 11Q37 38 48 46H62Q132 49 164 96Q170 102 345 401T523 704Q530 716 547 716H555H572Q578 707 578 706L606 383Q634 60 636 57Q641 46 701 46Q726 46 726 36Q726 34 723 22Q720 7 718 4T704 0Q701 0 690 0T651 1T578 2Q484 2 455 0H443Q437 6 437 9T439 27Q443 40 445 43L449 46H469Q523 49 533 63L521 213H283L249 155Q208 86 208 74ZM516 260Q516 271 504 416T490 562L463 519Q447 492 400 412L310 260L413 259Q516 259 516 260Z"
              data-darkmode-bgcolor-15895936460081="rgb(36, 36, 36)"
              data-darkmode-original-bgcolor-15895936460081="rgb(255, 255, 255)"></path>
          </g>
        </g>
      </g>
      <g data-mml-node="mrow" transform="translate(10668, 0)" data-darkmode-bgcolor-15895936460081="rgb(36, 36, 36)"
        data-darkmode-original-bgcolor-15895936460081="rgb(255, 255, 255)">
        <g data-mml-node="mo" data-darkmode-bgcolor-15895936460081="rgb(36, 36, 36)"
          data-darkmode-original-bgcolor-15895936460081="rgb(255, 255, 255)">
          <path data-c="23A1" d="M319 -645V1154H666V1070H403V-645H319Z" transform="translate(0, 996)"
            data-darkmode-bgcolor-15895936460081="rgb(36, 36, 36)"
            data-darkmode-original-bgcolor-15895936460081="rgb(255, 255, 255)"></path>
          <path data-c="23A3" d="M319 -644V1155H403V-560H666V-644H319Z" transform="translate(0, -1006)"
            data-darkmode-bgcolor-15895936460081="rgb(36, 36, 36)"
            data-darkmode-original-bgcolor-15895936460081="rgb(255, 255, 255)"></path><svg width="667" height="402"
            y="49" x="0" viewBox="0 100.5 667 402" data-darkmode-bgcolor-15895936460081="rgb(36, 36, 36)"
            data-darkmode-original-bgcolor-15895936460081="rgb(255, 255, 255)">
            <path data-c="23A2" d="M319 0V602H403V0H319Z" transform="scale(1, 1.002)"
              data-darkmode-bgcolor-15895936460081="rgb(36, 36, 36)"
              data-darkmode-original-bgcolor-15895936460081="rgb(255, 255, 255)"></path>
          </svg>
        </g>
        <g data-mml-node="mtable" transform="translate(667, 0)" data-darkmode-bgcolor-15895936460081="rgb(36, 36, 36)"
          data-darkmode-original-bgcolor-15895936460081="rgb(255, 255, 255)">
          <g data-mml-node="mtr" transform="translate(0, 1400)" data-darkmode-bgcolor-15895936460081="rgb(36, 36, 36)"
            data-darkmode-original-bgcolor-15895936460081="rgb(255, 255, 255)">
            <g data-mml-node="mtd" data-darkmode-bgcolor-15895936460081="rgb(36, 36, 36)"
              data-darkmode-original-bgcolor-15895936460081="rgb(255, 255, 255)">
              <g data-mml-node="mi" data-darkmode-bgcolor-15895936460081="rgb(36, 36, 36)"
                data-darkmode-original-bgcolor-15895936460081="rgb(255, 255, 255)">
                <path data-c="78"
                  d="M52 289Q59 331 106 386T222 442Q257 442 286 424T329 379Q371 442 430 442Q467 442 494 420T522 361Q522 332 508 314T481 292T458 288Q439 288 427 299T415 328Q415 374 465 391Q454 404 425 404Q412 404 406 402Q368 386 350 336Q290 115 290 78Q290 50 306 38T341 26Q378 26 414 59T463 140Q466 150 469 151T485 153H489Q504 153 504 145Q504 144 502 134Q486 77 440 33T333 -11Q263 -11 227 52Q186 -10 133 -10H127Q78 -10 57 16T35 71Q35 103 54 123T99 143Q142 143 142 101Q142 81 130 66T107 46T94 41L91 40Q91 39 97 36T113 29T132 26Q168 26 194 71Q203 87 217 139T245 247T261 313Q266 340 266 352Q266 380 251 392T217 404Q177 404 142 372T93 290Q91 281 88 280T72 278H58Q52 284 52 289Z"
                  data-darkmode-bgcolor-15895936460081="rgb(36, 36, 36)"
                  data-darkmode-original-bgcolor-15895936460081="rgb(255, 255, 255)"></path>
              </g>
            </g>
          </g>
          <g data-mml-node="mtr" data-darkmode-bgcolor-15895936460081="rgb(36, 36, 36)"
            data-darkmode-original-bgcolor-15895936460081="rgb(255, 255, 255)">
            <g data-mml-node="mtd" transform="translate(41, 0)" data-darkmode-bgcolor-15895936460081="rgb(36, 36, 36)"
              data-darkmode-original-bgcolor-15895936460081="rgb(255, 255, 255)">
              <g data-mml-node="mi" data-darkmode-bgcolor-15895936460081="rgb(36, 36, 36)"
                data-darkmode-original-bgcolor-15895936460081="rgb(255, 255, 255)">
                <path data-c="79"
                  d="M21 287Q21 301 36 335T84 406T158 442Q199 442 224 419T250 355Q248 336 247 334Q247 331 231 288T198 191T182 105Q182 62 196 45T238 27Q261 27 281 38T312 61T339 94Q339 95 344 114T358 173T377 247Q415 397 419 404Q432 431 462 431Q475 431 483 424T494 412T496 403Q496 390 447 193T391 -23Q363 -106 294 -155T156 -205Q111 -205 77 -183T43 -117Q43 -95 50 -80T69 -58T89 -48T106 -45Q150 -45 150 -87Q150 -107 138 -122T115 -142T102 -147L99 -148Q101 -153 118 -160T152 -167H160Q177 -167 186 -165Q219 -156 247 -127T290 -65T313 -9T321 21L315 17Q309 13 296 6T270 -6Q250 -11 231 -11Q185 -11 150 11T104 82Q103 89 103 113Q103 170 138 262T173 379Q173 380 173 381Q173 390 173 393T169 400T158 404H154Q131 404 112 385T82 344T65 302T57 280Q55 278 41 278H27Q21 284 21 287Z"
                  data-darkmode-bgcolor-15895936460081="rgb(36, 36, 36)"
                  data-darkmode-original-bgcolor-15895936460081="rgb(255, 255, 255)"></path>
              </g>
            </g>
          </g>
          <g data-mml-node="mtr" transform="translate(0, -1400)" data-darkmode-bgcolor-15895936460081="rgb(36, 36, 36)"
            data-darkmode-original-bgcolor-15895936460081="rgb(255, 255, 255)">
            <g data-mml-node="mtd" transform="translate(53.5, 0)" data-darkmode-bgcolor-15895936460081="rgb(36, 36, 36)"
              data-darkmode-original-bgcolor-15895936460081="rgb(255, 255, 255)">
              <g data-mml-node="mi" data-darkmode-bgcolor-15895936460081="rgb(36, 36, 36)"
                data-darkmode-original-bgcolor-15895936460081="rgb(255, 255, 255)">
                <path data-c="7A"
                  d="M347 338Q337 338 294 349T231 360Q211 360 197 356T174 346T162 335T155 324L153 320Q150 317 138 317Q117 317 117 325Q117 330 120 339Q133 378 163 406T229 440Q241 442 246 442Q271 442 291 425T329 392T367 375Q389 375 411 408T434 441Q435 442 449 442H462Q468 436 468 434Q468 430 463 420T449 399T432 377T418 358L411 349Q368 298 275 214T160 106L148 94L163 93Q185 93 227 82T290 71Q328 71 360 90T402 140Q406 149 409 151T424 153Q443 153 443 143Q443 138 442 134Q425 72 376 31T278 -11Q252 -11 232 6T193 40T155 57Q111 57 76 -3Q70 -11 59 -11H54H41Q35 -5 35 -2Q35 13 93 84Q132 129 225 214T340 322Q352 338 347 338Z"
                  data-darkmode-bgcolor-15895936460081="rgb(36, 36, 36)"
                  data-darkmode-original-bgcolor-15895936460081="rgb(255, 255, 255)"></path>
              </g>
            </g>
          </g>
        </g>
        <g data-mml-node="mo" transform="translate(1239, 0)" data-darkmode-bgcolor-15895936460081="rgb(36, 36, 36)"
          data-darkmode-original-bgcolor-15895936460081="rgb(255, 255, 255)">
          <path data-c="23A4" d="M0 1070V1154H347V-645H263V1070H0Z" transform="translate(0, 996)"
            data-darkmode-bgcolor-15895936460081="rgb(36, 36, 36)"
            data-darkmode-original-bgcolor-15895936460081="rgb(255, 255, 255)"></path>
          <path data-c="23A6" d="M263 -560V1155H347V-644H0V-560H263Z" transform="translate(0, -1006)"
            data-darkmode-bgcolor-15895936460081="rgb(36, 36, 36)"
            data-darkmode-original-bgcolor-15895936460081="rgb(255, 255, 255)"></path><svg width="667" height="402"
            y="49" x="0" viewBox="0 100.5 667 402" data-darkmode-bgcolor-15895936460081="rgb(36, 36, 36)"
            data-darkmode-original-bgcolor-15895936460081="rgb(255, 255, 255)">
            <path data-c="23A5" d="M263 0V602H347V0H263Z" transform="scale(1, 1.002)"
              data-darkmode-bgcolor-15895936460081="rgb(36, 36, 36)"
              data-darkmode-original-bgcolor-15895936460081="rgb(255, 255, 255)"></path>
          </svg>
        </g>
      </g>
    </g>
  </g>
</svg>