<svg version="1.1" id="prefix__logo" xmlns="http://www.w3.org/2000/svg" x="0" y="0" viewBox="0 0 400 300" xml:space="preserve"><style>.prefix__st0{fill:#f60}</style><g id="prefix__g4687" transform="translate(208.667 422.601)"><path id="prefix__path4689" class="prefix__st0" d="M-177.7-167.9h-19.1l29.4-56.8h21.1l28.1 56.8h-21.2l-4.3-10.2h-29.5l-4.5 10.2zm28.9-22.6l-9.1-20.7-9.6 20.7h18.7z"/></g><path id="prefix__path4691" class="prefix__st0" d="M94.8 197.9h18.3v56.8H94.8v-56.8z"/><path id="prefix__path4693" class="prefix__st0" d="M122.4 197.9h18.3v11.6h-18.3v-11.6zm0 17.2h18.3v39.6h-18.3v-39.6z"/><g id="prefix__g4703" transform="translate(265.891 449.756)"><path id="prefix__path4705" class="prefix__st0" d="M-115.2-251.9h18.3v22.9c2.2-2.2 4.6-3.9 7.3-5s5.6-1.7 8.8-1.7c6.2 0 11.2 2 15 6 3.8 4 5.7 9.3 5.7 15.8 0 6-1.9 10.8-5.6 14.4-3.7 3.6-8.7 5.4-14.9 5.4-3.4 0-6.5-.6-9.3-1.9-2.8-1.2-5.1-3.1-7.1-5.5 0 1.3 0 2.5-.2 3.6-.1 1.1-.3 2-.5 2.8H-116c.2-.7.4-1.7.5-2.8.1-1.1.2-2.4.2-3.8v-50.2m36.8 37.2c0-3.5-.8-6.2-2.5-8.3-1.6-2-3.9-3-6.7-3-3 0-5.3 1-7 2.9-1.6 1.9-2.4 4.8-2.4 8.5 0 3.5.8 6.2 2.4 8.1 1.6 1.9 3.9 2.9 6.8 2.9s5.1-1 6.8-3c1.7-2 2.6-4.7 2.6-8.1"/></g><g id="prefix__g4707" transform="translate(312.19 425.635)"><path id="prefix__path4709" class="prefix__st0" d="M-64.6-177.3c-1.7 2.3-4 4-6.8 5.1-2.8 1.1-6.1 1.7-10.1 1.7-5.6 0-10-1-13-3s-4.5-4.8-4.5-8.5c0-5 2.6-8.6 7.8-10.8 5.2-2.2 14-3.4 26.3-3.5v-.4-.5c0-2-.6-3.5-1.8-4.5-1.2-1-3-1.5-5.5-1.5-2.2 0-3.9.4-5.1 1.1-1.2.7-1.9 1.8-2.1 3.3h-16.9c.1-4.4 2.2-7.7 6.2-9.8 4.1-2.1 10.3-3.2 18.7-3.2 8 0 14 1.2 18 3.8 3.9 2.5 5.9 6.3 5.9 11.4v20.2c0 1.2.1 2.3.2 3 .1.8.3 1.5.6 2.1h-17c-.3-.9-.6-1.9-.7-2.9-.1-1-.2-2-.2-3.1m-.4-11.3c-5.9 0-10 .4-12.1 1.2-2.1.8-3.2 2.1-3.2 4 0 1.3.5 2.3 1.6 3.1 1 .7 2.5 1.1 4.4 1.1 3.1 0 5.4-.7 7-2.2 1.6-1.4 2.3-3.6 2.3-6.6v-.6z"/></g><g id="prefix__g4711" transform="translate(324.366 449.756)"><path id="prefix__path4713" class="prefix__st0" d="M-51.3-251.9H-33v22.9c2.2-2.2 4.6-3.9 7.3-5s5.6-1.7 8.8-1.7c6.2 0 11.2 2 15 6 3.8 4 5.7 9.3 5.7 15.8 0 6-1.9 10.8-5.6 14.4-3.7 3.6-8.7 5.4-14.9 5.4-3.4 0-6.5-.6-9.3-1.9-2.8-1.2-5.1-3.1-7.1-5.5 0 1.3-.1 2.5-.2 3.6s-.3 2-.5 2.8h-18.3c.2-.7.4-1.7.5-2.8.1-1.1.2-2.4.2-3.8v-50.2m36.8 37.2c0-3.5-.8-6.2-2.5-8.3-1.6-2-3.9-3-6.7-3-3 0-5.3 1-6.9 2.9-1.6 1.9-2.4 4.8-2.4 8.5 0 3.5.8 6.2 2.4 8.1 1.6 1.9 3.9 2.9 6.8 2.9 2.8 0 5.1-1 6.8-3 1.7-2 2.5-4.7 2.5-8.1"/></g><g id="prefix__g4715" transform="translate(370.666 425.635)"><path id="prefix__path4717" class="prefix__st0" d="M-.7-177.3c-1.7 2.3-4 4-6.8 5.1-2.8 1.1-6.1 1.7-10.1 1.7-5.6 0-10-1-13-3s-4.5-4.8-4.5-8.5c0-5 2.6-8.6 7.8-10.8 5.2-2.2 14-3.4 26.3-3.5v-.4-.5c0-2-.6-3.5-1.8-4.5-1.2-1-3-1.5-5.5-1.5-2.2 0-3.9.4-5.1 1.1-1.2.7-1.9 1.8-2.1 3.3h-16.9c.1-4.4 2.2-7.7 6.2-9.8 4.1-2.1 10.3-3.2 18.7-3.2 8 0 14 1.2 18 3.8 3.9 2.5 5.9 6.3 5.9 11.4v20.2c0 1.2.1 2.3.2 3 .1.8.3 1.5.6 2.1H.2c-.3-.9-.6-1.9-.7-2.9-.1-1-.2-2-.2-3.1m-.4-11.3c-5.9 0-9.9.4-12.1 1.2-2.1.8-3.2 2.1-3.2 4 0 1.3.5 2.3 1.6 3.1 1 .7 2.5 1.1 4.4 1.1 3.1 0 5.4-.7 7-2.2 1.6-1.4 2.3-3.6 2.3-6.6v-.6z"/></g><g id="prefix__g4739" transform="translate(112.608 398.81)"><path id="prefix__path4741" d="M7.9-244.7c-1-.1-2.6-1-3.7-1.9-10.7-10.5 3-22.6 19-29.6v-20c3.7 2.4 5.8 2.5 5.9 2.8l12.2-12.1-4.1-10.4c35.7-12.3 50-17 79-21.9l-5.2-4.9 8.5-4.8c19.5 6.4 37.9 8.1 34.7 24.5.8-11.1-13-15.3-34-21.2l-4.1 2.5 7.8 6.4c-34.7 6-56.1 12.8-81.5 21.6l3.5 9L33.1-292c2.1.6 24.4 8 47.5-8.1 0 0 .5-.3.5-.5-.7-1.1-2.3-2.4-4.2-4.1 6.8.5 11.2 6.4 10.4 12.6h-3.2c.2-2-.2-4.2-.9-5.6-17.9 13.1-38.7 15-56.4 8.8v15.5c-8.6 3-23.9 12.5-23.8 21.7.6 4.3 2.8 5.9 4.9 7"/></g><g id="prefix__g4743" transform="translate(147.62 401.287)"><path id="prefix__path4745" class="prefix__st0" d="M46.1-252.3c-19.2 9.7-37.6 17.5-65.9 18.6-36.9-.8-42.6-25.3-25.2-50.9 16.5-25.8 42.7-49.2 84.3-63.8 12.1-4.3 29.8-9.1 46.9-9.4 24.6-.2 48.5 7.4 46.9 31-.9 18.1-27 43.5-40.7 61.8-5.9 8-6.9 13.2 3.2 12.7 36.5-2.4 69.5-15 100.2-28.1-20.8 14.1-128.1 67.2-128.5 31 .1-4.6 2.2-9.5 5.7-14.7 3.4-5.2 8.1-10.6 13-16.1 7.3-8.3 25.5-28.3 31.6-40.3C127.9-342.9 104.9-344 85-351l-8.5 4.8 5.2 4.9c-29 4.8-43.3 9.6-79 21.9L6.8-309l-12.1 12c-.3-.3-2.1-.4-5.9-2.8v20c-15.9 7-29.7 19.1-19 29.6 1.1.9 2.7 1.8 3.7 1.9 19.6 11 72.7-4 72.6-4"/></g><g id="prefix__g4747" transform="translate(202.46 395.08)"><path id="prefix__path4749" class="prefix__st0" d="M106-233.1h2.5c.5 0 .9-.1 1.2-.2.3-.1.5-.3.7-.5.2-.3.2-.5.2-.8 0-.4-.2-.8-.5-1-.3-.3-.8-.4-1.4-.4H106v2.9zm-1.1 5v-8.9h4c.8 0 1.4.1 1.8.2.4.2.7.4 1 .9.3.4.4.8.4 1.3 0 .6-.2 1.2-.6 1.6-.4.4-1 .7-1.9.8.3.1.6.3.7.4.3.3.7.7 1 1.2l1.6 2.4h-1.5l-1.2-1.8c-.3-.6-.6-1-.9-1.3-.2-.3-.4-.5-.6-.6-.2-.1-.3-.2-.5-.2H106v4h-1.1z"/></g><g id="prefix__g4751" transform="translate(203.614 390.701)"><path id="prefix__path4753" class="prefix__st0" d="M107.3-219.6c4.7 0 8.5-3.8 8.5-8.5s-3.8-8.5-8.5-8.5-8.5 3.8-8.5 8.5 3.8 8.5 8.5 8.5m-7.2-8.5c0-4 3.2-7.2 7.2-7.2s7.2 3.2 7.2 7.2c0 3.9-3.2 7.2-7.2 7.2s-7.2-3.2-7.2-7.2"/></g></svg>