<svg viewBox="0 0 20 20" fill="currentColor"><path fill="none" d="M-1-1h22v22H-1z"/><g stroke="null"><path d="M12.066 11.03h-3.5a.592.592 0 00-.595.591c0 .321.266.592.595.592h3.5a.59.59 0 100-1.183zm-3.5-2.37h1.722c.329 0 .596-.27.596-.595a.596.596 0 00-.596-.594H8.566a.595.595 0 000 1.19z"/><path d="M10 .815A9.184 9.184 0 00.815 10 9.184 9.184 0 0010 19.185 9.184 9.184 0 0019.185 10 9.184 9.184 0 0010 .815zm5.203 10.852c-.01 1.706-1.398 3.103-3.107 3.103h-3.57a3.114 3.114 0 01-3.106-3.103V8.041c0-1.71 1.397-3.11 3.106-3.11H10.7c.802.096 1.97.783 2.4 1.697.118.256.18.296.278 1.056.054.391.08.68.255.84.246.224 1.16.074 1.34.215l.14.108.082.171.028.137-.02 2.512z"/></g></svg>