<svg fill="currentColor" viewBox="0 0 20 20"><path fill="none" d="M-1-1h22v22H-1z"/><path stroke="null" d="M10 1.104c4.91 0 8.896 3.986 8.896 8.896S14.91 18.896 10 18.896 1.104 14.91 1.104 10 5.09 1.104 10 1.104zm0 3.336c-1.51 0-1.7.006-2.292.033-.592.027-.996.121-1.35.259a2.726 2.726 0 00-.985.641c-.31.31-.5.62-.641.985-.138.354-.232.758-.259 1.35C4.446 8.3 4.44 8.49 4.44 10c0 1.51.006 1.7.033 2.292.027.592.121.996.259 1.35.142.366.332.676.641.985.31.31.62.5.985.641.354.138.758.232 1.35.259.593.027.782.033 2.292.033 1.51 0 1.7-.006 2.292-.033.592-.027.996-.121 1.35-.259.366-.142.676-.332.985-.641.31-.31.5-.62.641-.985.138-.354.232-.758.259-1.35.027-.593.033-.782.033-2.292 0-1.51-.006-1.7-.033-2.292-.027-.592-.121-.996-.259-1.35a2.726 2.726 0 00-.641-.985c-.31-.31-.62-.5-.985-.641-.354-.138-.758-.232-1.35-.259C11.7 4.446 11.51 4.44 10 4.44zm0 1.002c1.485 0 1.66.005 2.247.032.542.025.836.115 1.032.191.26.101.445.222.64.416.194.195.315.38.416.64.076.196.166.49.19 1.032.028.587.033.762.033 2.247 0 1.485-.005 1.66-.032 2.247-.025.542-.115.836-.191 1.032-.101.26-.222.445-.416.64-.195.194-.38.315-.64.416-.196.076-.49.166-1.032.19-.586.028-.762.033-2.247.033-1.485 0-1.66-.005-2.247-.032-.542-.025-.836-.115-1.032-.191a1.734 1.734 0 01-.64-.416 1.722 1.722 0 01-.416-.64c-.076-.196-.166-.49-.191-1.032-.027-.587-.032-.762-.032-2.247 0-1.485.005-1.66.032-2.247.025-.542.115-.836.191-1.032.101-.26.222-.445.416-.64.195-.194.38-.315.64-.416.196-.076.49-.166 1.032-.19.587-.028.762-.033 2.247-.033zm0 1.703a2.855 2.855 0 100 5.71 2.855 2.855 0 000-5.71zm0 4.708a1.853 1.853 0 110-3.706 1.853 1.853 0 010 3.706zm3.635-4.821a.667.667 0 11-1.334 0 .667.667 0 011.334 0z"/></svg>