<svg viewBox="0 0 450 450" xmlns="http://www.w3.org/2000/svg"><defs><clipPath id="prefix__a" clipPathUnits="userSpaceOnUse"><path d="M0 1242h2208V0H0v1242z"/></clipPath></defs><g transform="matrix(1.33333 0 0 -1.33333 0 1656)" clip-path="url(#prefix__a)"><path fill-rule="evenodd" fill="#ffd100" d="M99.187 1237.618H238.57c33.038 0 45.019-3.44 57.097-9.9 12.079-6.46 21.558-15.938 28.018-28.017 6.459-12.078 9.899-24.06 9.899-57.098V1003.22c0-33.04-3.44-45.02-9.9-57.098-6.46-12.078-15.938-21.558-28.017-28.017-12.078-6.46-24.06-9.9-57.097-9.9H99.187c-33.04 0-45.02 3.44-57.098 9.9-12.078 6.459-21.557 15.939-28.017 28.017-6.46 12.079-9.9 24.059-9.9 57.098v139.382c0 33.039 3.44 45.02 9.9 57.098 6.46 12.079 15.939 21.558 28.017 28.018 12.079 6.459 24.059 9.899 57.098 9.899"/><path d="M112.335 1047.29c10.648-12.832 30.444-21.024 51.879-22.662l-7.373-12.833c-19.795 2.32-42.595 11.604-55.292 27.988-11.741-16.384-34.132-26.35-62.12-28.398l4.369 13.788c18.977.274 38.638 10.104 47.102 22.118H41.204v11.878h52.972v11.195H44.208v11.74h49.968v9.148H44.208v11.742h49.968v9.556H41.204v11.878h21.435l-1.228 10.103h14.88c.547-3.276.956-6.69 1.502-10.103h47.647c.684 3.413 1.093 6.827 1.367 10.103h15.153c-.274-3.276-.681-6.69-1.23-10.103h21.437v-11.878h-53.383v-9.556h49.97v-11.742h-49.97v-9.147h49.97v-11.74h-49.97v-11.197h53.383v-11.878h-49.832zm88.73 44.236v11.469h47.646v10.375h14.06v-10.375h13.38v-11.47h-13.38v-32.355c0-11.06-1.364-19.25-4.367-27.715h-15.29c4.64 9.83 5.597 16.793 5.597 27.305v32.766h-12.834c-1.91-21.161-10.104-47.374-18.704-60.071H201.61c8.33 11.74 17.885 34.677 20.205 60.07h-20.75zm81.367 28.377h-88.604v-95.032h88.604v95.032zm14.335 4.642V1012.72h-109.63c-4.915 0-7.644 2.73-7.644 7.509v111.825h109.494c4.914 0 7.78-2.73 7.78-7.51"/></g></svg>