<svg viewBox="0 0 450 450" xmlns="http://www.w3.org/2000/svg">
 <defs>
  <clipPath id="prefix__a" clipPathUnits="userSpaceOnUse">
   <path id="svg_1" d="m0,1242l2208,0l0,-1242l-2208,0l0,1242z"/>
  </clipPath>
 </defs>
 <g>
  <title>Layer 1</title>
  <g id="svg_2" transform="matrix(1.33333 0 0 -1.33333 0 1656)" clip-path="url(#prefix__a)">
   <path id="svg_3" fill-rule="evenodd" fill="#ffd100" d="m99.18687,1237.61776l139.383,0c33.038,0 45.019,-3.44 57.097,-9.899c12.079,-6.46 21.558,-15.939 28.018,-28.018c6.459,-12.078 9.899,-24.059 9.899,-57.098l0,-139.382c0,-33.039 -3.44,-45.019 -9.9,-57.098c-6.46,-12.078 -15.938,-21.558 -28.017,-28.017c-12.078,-6.46 -24.06,-9.9 -57.097,-9.9l-139.383,0c-33.04,0 -45.02,3.44 -57.098,9.9c-12.078,6.459 -21.557,15.939 -28.017,28.017c-6.46,12.079 -9.9,24.059 -9.9,57.098l0,139.382c0,33.039 3.44,45.02 9.9,57.098c6.46,12.079 15.939,21.558 28.017,28.018c12.079,6.459 24.059,9.899 57.098,9.899"/>
   <path id="svg_4" d="m112.33487,1047.29076c10.648,-12.833 30.444,-21.025 51.879,-22.663l-7.373,-12.833c-19.795,2.321 -42.595,11.604 -55.292,27.988c-11.741,-16.384 -34.132,-26.35 -62.12,-28.398l4.369,13.788c18.977,0.274 38.638,10.104 47.102,22.118l-49.696,0l0,11.878l52.972,0l0,11.195l-49.968,0l0,11.741l49.968,0l0,9.147l-49.968,0l0,11.742l49.968,0l0,9.556l-52.972,0l0,11.878l21.435,0l-1.228,10.103l14.88,0c0.547,-3.276 0.956,-6.69 1.502,-10.103l47.647,0c0.684,3.413 1.093,6.827 1.367,10.103l15.153,0c-0.274,-3.276 -0.681,-6.69 -1.23,-10.103l21.437,0l0,-11.878l-53.383,0l0,-9.556l49.97,0l0,-11.742l-49.97,0l0,-9.147l49.97,0l0,-11.74l-49.97,0l0,-11.197l53.383,0l0,-11.878l-49.832,0.001zm88.73,44.235l0,11.469l47.646,0l0,10.375l14.061,0l0,-10.375l13.38,0l0,-11.47l-13.38,0l0,-32.355c0,-11.06 -1.365,-19.25 -4.368,-27.715l-15.29,0c4.641,9.83 5.597,16.793 5.597,27.305l0,32.766l-12.834,0c-1.91,-21.161 -10.104,-47.374 -18.704,-60.071l-15.563,0c8.33,11.74 17.885,34.677 20.205,60.07l-20.75,0.001zm81.367,28.377l-88.604,0l0,-95.032l88.604,0l0,95.032zm14.335,4.642l0,-111.825l-109.629,0c-4.916,0 -7.645,2.73 -7.645,7.509l0,111.825l109.494,0c4.914,0 7.78,-2.73 7.78,-7.51"/>
  </g>
 </g>
</svg>
