<svg xmlns="http://www.w3.org/2000/svg" viewBox="0 0 227 120"><g fill="none" fill-rule="evenodd"><path fill="#FF5678" d="M42.061 73.43l.612 7.68 11.631 2.765 8.876 3.993 7.039 6.144 3.367-2.764 4.285-9.524 4.897-.921 17.752 1.843 6.121 1.843-2.142 10.445-2.143 7.68 35.504-2.15-1.224-17.818-7.346-16.282-29.076-14.131-21.731 2.765L63.18 71.894l-6.734 3.686-11.936-.614"/><path d="M188.454 2.839c2.392 2.909-1.132 7.023-3.13 9.053-.97.985-1.774 2.124-2.722 3.134-.937.998-2.112 1.784-2.953 2.747-.884 1.012-1.903 2.12-2.641 3.258-.468.72-1.16 1.526-1.393 2.363-.334 1.204-.055.509.386 1.19.45.694.602.734.755 1.703.149.941.36 1.63.868 2.435.838 1.325 1.742 2.571 2.333 4.036.785 1.949 1.341 3.927 1.967 5.932.244.782.407 1.677.801 2.397.56 1.023.638.938 1.47.3 2.484-1.905 4.997-3.919 7.586-5.734 1.484-1.04 3.024-2.059 4.59-2.97 1.074-.625 3.383-1.738 3.92-2.899.714-1.539-.396-2.951 1.132-4.369.995-.923 2.617-1.434 3.913-1.658 1.832-.317 3.857.135 5.687.3 1.85.164 3.66-.016 5.474-.394 2.778-.58 8.115-3.788 9.915.066.788 1.686.255 3.554.107 5.283-.129 1.506-.57 3.105-1.508 4.344-1.073 1.416-2.633 1.49-4.256 1.866-1.917.444-3.885.606-5.804 1.039-.946.213-1.878.317-2.85.362-.863.04-2.11-.31-2.868-.2-.719.105-.473.559-.978.874-.205.127-.622.036-.75.139-.351.282-.453.528-.709 1.04-.813 1.624-2.043 3.208-3.088 4.696-.88 1.254-1.9 2.789-2.937 3.908-2.196 2.372-4.328 4.986-6.495 7.464-1.103 1.262-2.426 2.603-3.707 3.687-.396.335-1.195.636-1.397 1.105-.288.668.496 2.138.68 2.809.434 1.596.493 3.244.955 4.816.442 1.504.603 3.143.7 4.71.222 3.542.706 6.902.592 10.446-.098 3.056-.21 5.987-1.27 8.988-.966 2.732-3.86 5.705-6.55 6.712-1.601.599-3.089 1.143-4.7 1.468-1.592.321-3.27.65-4.85 1.102a50.575 50.575 0 01-9.067 1.71c-3.898.367-7.964.402-11.851.267a143.195 143.195 0 00-5.344-.06c-1.813.006-3.521.363-5.333.553-6.396.671-13.155.132-19.547.788-3.159.324-6.313.949-9.527.986-2.878.033-5.796-.157-8.61-.17-.892-.003-1.67.068-2.561-.137-.47-.108-1.132-.528-1.607-.286-.414.212-.727 1.104-.984 1.484-.562.832-1.247 1.5-1.97 2.189-2.87 2.736-5.713 3.658-9.48 4.66-1.728.46-2.582.702-4.033 1.755-1.183.858-2.38 1.475-3.74 1.98-2.67.993-5.819.225-8.328-.635-1.215-.417-2.491-.796-3.733-1.291-1.69-.674-3.086-1.793-4.752-2.482.19 1.779-1.737 2.376-2.322 3.572-.378.772-.15 1.985-.552 2.858-.374.81-.952 1.575-1.853 1.787-1.228.289-3.424-1.078-4.286-1.876-.48-.443-.907-1.622-1.493-1.818-.765-.256-2.167.876-2.891 1.131-3.465 1.224-6.975 1.8-10.695 1.314-3.769-.494-7.224-1.833-10.758-3.103-6.923-2.486-12.948-6.58-18.368-11.508-.302-.275-.74-.52-.947-.879-.182-.314-.166-1.055-.285-1.23-.353-.521-.882-.43-1.544-.48-2.047-.154-3.672-.648-5.259-2.02-2.496-2.16-3.42-7.195.407-8.532a5.787 5.787 0 013.067-.2c.417.087 1.968 1.028 2.365.965.6-.095.484-.87.644-1.283.404-1.047.974-1.97 1.66-2.859 1.143-1.478 2.534-2.963 3.961-4.166 1.55-1.307 3.258-1.887 5.105-2.61 1.243-.488 3.671-1.325 4.988-.89 1.716.569.876 2.445-.205 3.1-1.544.938-3.397 1.322-4.961 2.27-1.727 1.047-3.304 2.48-4.884 3.739-1.271 1.012-2.373 2.262-3.665 3.233-.342.257-.902.707-1.008.85-.037.048.008.449-.16.627-.752.789-.576.7-1.708.423-1.334-.327-4.518-1.065-5.418.59-.809 1.489 2.504 2.83 3.592 3.285 1.597.666 1.97 1.335 3.11 2.605 1.17 1.302 3.111 2.187 4.575 3.157 3.165 2.098 6.722 3.586 10.112 5.252 3.298 1.621 6.843 2.788 10.28 3.923 2.075.684 4.561 1.42 6.739 1.63 2.194.213 4.252-.145 6.405-.564.86-.167 1.51-.296 2.41-.613.401-.142 1.056-.163 1.374-.41.493-.384.288-.69.376-1.346.382-2.874 2.375.335 3.257 1.291.68.739 1.35 1.646 2.246 2.114 1.122.586 1.317.31 1.685-.656.689-1.81.948-3.867 3.55-3.6-2.055-1.76-4.013-3.254-5.771-5.367-1.736-2.085-3.358-4.326-5.022-6.468-1.364-1.757-2.551-4.18-4.322-5.566-.56-.438-2.26-1.447-2.908-1.426-.97.032-1.83 1.616-2.874 1.748-1.153.146-1.684-.257-2.013-1.194-.342-.972.475-2.09.199-2.797-.077-.196-.568-.432-.72-.717-.227-.429-.244-.993-.176-1.468.102-.708.352-.997.299-1.71-.062-.829-.425-1.434-.14-2.3.3-.911 1.224-1.41 1.8-2.082.872-1.017.427-1.784.077-3.091-.75-2.797-1.623-5.562-2.383-8.357-1.748.554-3.458 1.181-5.215 1.697-1.69.496-3.783.941-5.351 1.724-.943.47-.681.038-.611 1.083.044.676.33 1.432.463 2.099.245 1.232.351 4.41 1.316 4.998.583.357 1.523-.161 2.165.558.54.605.378 1.486.704 2.159.202.418.593.577.836.962.509.803.454 1.479.544 2.38.056.566-.03 2.265.251 2.705.376.588 1.121.486 1.75.67 1.583.46 3.042 1.263 4.386 2.198.698.854 5.693 5.853 3.523 6.49-1.047.306-2.9-2.054-3.654-2.696-1.168-.994-2.392-1.648-3.817-2.196-3.477-1.339-6.623-2.542-10.41-1.986-1.624.238-3.596.957-5.227.8-1.64-.16-1.216-1.625-.19-2.442.918-.73 2.196-.525 2.598-1.75.407-1.239-.03-2.803.623-4.043.557-1.06 1.87-2.159 2.883-2.773.442-.267 1.2-.454 1.43-.848.19-.323-.59-2.177-.699-2.562-.53-1.888-1.107-3.778-1.556-5.686-.416-1.768-.524-2.685 1.338-3.327 2.842-.98 5.821-1.438 8.665-2.339-.504-1.313-2.08-.208-3.211-.254-1.386-.056-2.99-.512-4.31-.938-2.996-.967-5.035-3.38-5.497-6.49-.102-.682.218-2.05-.03-2.653-.234-.57-.896-.847-1.38-1.254-1.248-1.046-2.353-2.482-3.026-3.969-.675-1.49-.722-3.163-.33-4.735.216-.867.338-.986.033-1.805-.354-.948-.93-1.791-1.256-2.765-.534-1.595-.825-3.315-.796-4.999.033-1.89.79-2.737 1.292-4.403.396-1.315-.144-3.133-.054-4.592.116-1.867.594-3.367 1.418-5.03 1.268-2.553 3.274-5.29 5.886-6.629.517-.265 1.366-.28 1.827-.588.574-.383.618-.946.843-1.616.535-1.598 1.204-2.893 2.362-4.115 3.755-3.962 10.335-5.365 15.611-5.03.948.06 1.852.509 2.75.245.622-.183 1.281-.831 1.923-1.1a8.545 8.545 0 012.499-.626c1.725-.172 3.129.01 4.719.593.6.22 1.175.46 1.767.7.934.377.88.197 1.76.022 1.75-.349 2.756-.09 4.308.657.413.199 1.067.347 1.423.626.503.395.708 1.597 1.268 1.82.311.125 1.272-.333 1.673-.398.707-.116 1.399-.014 2.102-.022 1.246-.013 2.562.033 3.7.622.856.444 1.887 1.3 2.625 1.87 1.02.788 1.658 2.278 2.932 2.69.499.163 1.039 0 1.548.137.665.18 1.303.66 1.84 1.086.926.73 1.708 2.43 2.651 2.727.63.199 1.607-.008 2.327.197.903.258 1.652.632 2.322 1.316 1.277 1.304 1.638 3.233 1.693 5.001.015.477-.28 1.822.006 2.245.254.375 1.21.592 1.598.977 1.216 1.205 1.765 3.212 1.888 4.862.14 1.883-.345 3.21-.68 5.011-.208 1.123-.477.404.47 1.065.65.455 1.1.772 1.521 1.485.882 1.49 1.104 3.248.958 4.947-.182 2.12-1.256 3.699-1.74 5.704 2.227 0 4.625.589 6.8 1 .803.15 1.424.592 2.136.946.615.305 1.073.341 1.654.543 1.403.49 1.132.408 2.108-.594 3.89-3.991 9.426-6.401 15.009-6.323 3.114.044 6.126.455 9.038 1.577 1.206.464 2.548.965 3.618 1.694 1.24.845 1.425.835 3.064.87 5.937.122 11.697 3.312 16.017 7.178.386-2.593 4.596-4.148 6.635-5.223.697-.367 1.337-.558 1.68-1.247.32-.644.301-1.968.516-2.727.393-1.393.848-3.098.813-4.567-.102-4.253-1.086-8.487-1.214-12.75-.032-1.071-.153-2.273-.01-3.333.114-.854.503-1.387-.057-2.177-1.063-1.501-3.024-1.876-3.684-3.852-1.062-3.184.763-6.44 3.255-8.334 1.435-1.09 2.837-1.321 3.988-2.85 1.035-1.377 1.91-3.005 3.092-4.257.99-1.05 1.892-2.456 3.026-3.33 1.164-.895 2.872-1.5 4.261-1.926 3.335-1.021 7.43-.778 9.777 2.076zM84.208 82.826c-.776.033-1.556.12-2.334.12-.473-.001-1.571-.256-1.997-.076-.852.36-1.54 2.332-1.938 3.12-1.29 2.551-2.304 5.226-3.562 7.788-.654 1.332-1.63 2.209-3.174 2.23-1.73.024-2.543-1.085-3.64-2.222-2.189-2.27-5.135-4.22-7.851-5.798-2.934-1.704-6.433-3.355-9.774-3.957-2.224-.4-7.321-2.129-8.675.663.692-.092 3.332-.496 3.444.674.084.878-3.164 1.028-3.565 2.406.85-.067 3.78-.885 3.987.378.11.67-1.116 1.009-1.547 1.235-.853.45-1.367.916-2.04 1.591 1.037 0 2.06-.88 3.044-.789.407.038.895.646 1.264.83.524.263 1.09.394 1.668.466 1.259.156 2.02-.2 3.024.62.9.737 1.837 1.709 2.667 2.528 1.771 1.75 3.23 3.97 4.749 5.937 1.876 2.427 3.824 4.354 6.32 6.172 2.031 1.48 4.09 2.438 6.392 3.527 2.258 1.069 5.098 2.308 7.66 2.367 2.043.047 4.597-.609 6.457-1.481 1.082-.508 1.475-.507 2.557-.708 1.68-.312 3.624-1.214 5.18-1.922 4.882-2.223 7.977-7.067 10.178-11.808 1.254-2.699 2.036-5.336 2.559-8.256.284-1.59.532-1.964-1.017-2.621-1.564-.665-3.255-1.075-4.883-1.544-4.777-1.376-10.22-1.68-15.153-1.47zm11.668-28.782c-.487.22-.746 2.563-.965 3.085-.976 2.33-2.707 3.785-5.246 4.027-.788.076-2.073-.642-2.638-.303-.756.455-.893 2.627-1.707 3.34-.749.656-2.31 1.35-3.27 1.602-.742.194-1.478.14-2.217-.03-.422-.098-1.226-.62-1.64-.423-.702.335-1.033 2.119-1.836 2.724-1.173.885-3.036 1.54-4.473 1.524-1.481-.018-3.267-1.188-4.586-.908-1.565.333-1.36 1.79-2.043 2.929-1.452 2.418-3.101 4.502-5.71 5.657-2.824 1.248-6.87 1.407-9.83.772-1.61-.346-3.226-.834-4.584-1.757-1.003-.681-1.774-1.572-2.679-2.36l-.381-.318.075.255c.478 1.523.69 4.224 1.638 5.466.849 1.111 3.795 1.174 5.214 1.323 3.801.401 7.07 1.291 10.424 3.2 3.21 1.825 6.141 4.035 8.92 6.417.57.489 1.027 1.273 1.717 1.588 1.128.514 1.037-.086 1.335-1.09.612-2.062 1.261-4.097 2.194-6.04.399-.832 1.307-1.864 1.502-2.748.187-.848-.197-1.774-.066-2.684.328-2.301 1.367-4.263 2.668-6.124.903-1.291 3.606-3.49 3.26-.24-.255 2.4-2.006 4.527-2.437 6.886 1.328-.248 2.162-.176 3.357-.1 1.632.103 3.487-.536 5.17-.541 3.223-.01 6.4.2 9.569.775 1.468.266 2.865.567 4.28 1.07 1.112.395 2.59 1.652 3.776 1.748.858.07.559.182.793-.551.217-.68-.017-1.904-.06-2.618-.099-1.614-.485-3.186-.686-4.79-.086-.689-.907-3.558-.04-4.114 1.325-.851 1.88 2.488 2.048 3.086.865 3.066 1.421 6.087 1.396 9.293-.023 2.772-.207 5.437-.725 8.193-.307 1.628-.869 3.192-1.5 4.719-.332.804-2.28 3.852-2.009 4.39.217.43 3.528-.32 4.037-.363 1.812-.155 3.629-.047 5.443-.155 2.682-.16 5.383-.127 7.951-.6 1.531-.282 3.156-.012 4.686-.002 1.687.01 3.317-.145 5.015.016 1.29.122 3.225.803 4.47.52 1.273-.29.897-1.143.906-2.44.02-3.134-.259-6.741-.958-9.79-.37-1.606-.866-3.162-1.13-4.795-.265-1.634-.252-3.4-.744-4.983-.874-2.807-3.277-5.244-5.267-7.32-2.048-2.134-4.326-3.685-6.838-5.216-2.136-1.301-4.392-2.523-6.706-3.541-2.776-1.222-5.93-1.975-8.503-3.584-2.141-1.339-5.239-2.658-7.71-3.278-.39-.098-2.384-.924-2.66-.8zm76.276-25.949c-1.781.251-5.112-.62-5.11 1.838 0 1.348.448 2.762.575 4.11.149 1.592.046 3.194.288 4.779.392 2.566.968 4.936.775 7.573-.21 2.866-.807 5.62-.751 8.528.052 2.766-.097 5.434 1.217 7.973.555 1.072 1.005 2.33 1.615 3.334.715 1.175 1.334 1.52 2.612 1.993.8.296 2.77.682 3.29 1.481.748 1.154-.252 1.62-1.236 1.58-3.04-.12-6.162-1.478-9.013-2.469-1.34-.467-2.632-1.054-3.95-1.564-1.053-.407-1.912-.547-2.87-1.241-2.334-1.692-4.135-4.03-6.437-5.766-4.355-3.284-9.576-5.244-15.046-5.825-1.407-.15-2.496-.083-3.906.037-.78.066-1.552.087-2.324.23-.446.083-2.123.88-2.471.715-2.263-1.076 4.144-4.352 4.864-4.532-.91-.641-2.8-.53-3.892-.673-1.395-.183-2.75-.36-4.158-.284-1.968.108-4.061.05-5.993.475a27.425 27.425 0 00-6.9 2.496c-.73.383-1.757.849-1.75 1.916.007 1.002.406.838 1.381 1.06 2.63.599 5.062 2.342 7.405 3.67a75.265 75.265 0 017.281 4.69c4.43 3.243 6.959 7.91 8.926 12.982 1.018 2.623 1.756 5.687 2.062 8.483.341 3.111.057 6.24.3 9.347.057.734.155 3.665.71 4.122.42.346 2.505-.273 3.093-.314 2.457-.17 4.929-.152 7.34-.291 5.093-.294 10.316.116 15.457-.187 2.586-.152 5.09-.516 7.625-1.038 2.357-.485 5.295-.543 7.445-1.664 4.139-2.157 6.662-7.358 6.844-11.762.197-4.775-.13-9.97-1.131-14.726-.526-2.493-.982-4.867-1.6-7.331-.692-2.76-1.469-5.506-2.229-8.231-1.308-4.69-3.345-9.06-4.32-13.868-.536-2.644-1.296-5.41-2.09-7.99-.292-.951-.868-2.759-1.548-3.481-.715-.76-1.316-.324-2.38-.175zM26.924 85.222c-1.074.687-1.847 2.231-1.798 3.504 0 1.681 1.394.965 2.708 1.026.8.037 3.759.858 4.279.066.62-.947-1.247-.524-1.483-1.032-.478-1.027 1.713-1.46 1.445-2.35-.267-.89-2.494 1.163-2.972.13-.442-.957 1.808-1.784 1.463-2.443-.293-.558-3.263.856-3.642 1.099zm4.66-8.757c-.006.716-.253 1.669-1.143 1.523-1.112-.183-1.449-2.318-1.55-3.126.712-2.66 2.704-.029 2.692 1.603zM63.86 53.603c-1.285.201-1.43.777-2.03 1.66a1.39 1.39 0 01-.51-.87c-3.04 1.37-6.201 2.44-9.497 2.946-3.672.565-7.503-.29-11.235-.637-.483-.045-1.965-.643-2.358-.406-.326.197-.32 1.844-.347 2.163-.181 2.17.232 4.088.551 6.213.085.565.001 1.79.447 2.273.313.34.871.216 1.268.728 1.078 1.393 1.409 4.1 1.907 5.882l.002.006.012-.134c.196-1.682 1.583-.774 2.62-.307 1.588.717 3.253 1.1 4.972 1.34 1.381.195 2.95.658 4.367.584 1.489-.078 3.32-.667 4.77-1.092 1.373-.402 2.131-1.271 3.079-2.391.906-1.07 1.89-1.803 2.868-2.757 2.462-2.405 1.788-7.387-.35-9.74 1.73-.89 4.73-2.842 2.099-4.823-.68-.512-1.815-.767-2.635-.638zM42.058 73.56l-.003.031.016.013-.013-.044zm8.43-4.13c.682.052 1.172.565.992 1.273-.226.893-1.78 1.453-2.556 1.503-2.057.246-.111-2.902 1.564-2.776zm-6.499-3.438c.074.519 0 .842.45 1.01.344.13.993-.136 1.416.043.422.18.435.288.694.709-.293.918-1.639 1.956-2.719 1.404-1.342-.687-1.468-3.395-1.1-4.55.625-1.96 1.149.61 1.259 1.384zM163.386 55.65c-.56.204-1.055.78-1.556 1.095-1.332.836-2.79 1.28-4.066 2.195.911.984 1.388 2.318 2.279 3.265.557.592 1.234.658 1.904.98 1.958.94 4.262 2.262 6.425 2.711-1.266-1.482-2.07-2.823-2.822-4.624-.269-.644-.606-1.325-.807-1.994-.289-.958-.133-1.972-.378-2.917-.264-1.02.1-1.103-.98-.711zM40.296 61.26c.569.673 1.006 2.189 1.055 3.047-.601 2.879-2.612-1.093-2.55-2.382.056-1.188.68-1.626 1.494-.665zm5.447-1.575c.976.833 1.295 2.224 1.396 3.373.11 1.245-.174 1.775-1.414.974-1.086-.7-1.629-2.567-1.685-3.66 0-1.247.758-1.494 1.703-.687zm19.632-3.565c.243 1.3-2.634 2.636-2.164.6-.094-1.298 1.905-1.976 2.164-.6zm135.838-23.52c-2.173 2.654-4.804 4.339-7.523 6.344-2.41 1.777-4.703 3.697-7.31 5.172-.766.433-2.02.685-2.159 1.49-.13.757 1.274 2.789 1.598 3.61 1.096 2.766 1.904 5.606 2.76 8.46 2.553-3.98 5.127-8.025 8.255-11.624 2.761-3.176 5.593-6.499 8.006-9.92-1.46-.891-2.67-2.119-3.627-3.533zm15.929-6.122c-2.42.757-5.208 1.183-7.73.925a84.843 84.843 0 00-3.425-.285c-.864-.054-2.325-.475-3.069.19-.703.63-.618 1.885-.26 2.668.231.506.553.588.763 1.007.067.135-.133.368.04.686.48.874 2.107 2.334 2.983 2.78 1.125.57 1.293-.094 2.17-.67 1.846-1.21 4.948-1.232 7.11-1.45.044.465 6.312-1.773 6.93-2.183 1.157-.768 2.513-4.302 1.282-5.35-1.486-1.263-5.357 1.233-6.794 1.682zm-42.15-16.844c-.761 1.214-1.774 2.518-2.9 3.427-1.27 1.026-2.92 1.425-4.373 2.127-1.316.636-2.486 1.273-3.307 2.5-.569.848-1.61 2.039-1.135 3.132.485 1.12 2.4 1.904 3.231 2.876 1.145 1.339 1.146 1.076 2.861.706.857-.185 1.67-.243 2.546-.212.354.012 1.55.36 1.864.127.402-.299.007-1.539.058-2.021.077-.734.338-1.49.585-2.183.98-2.746 2.843-4.557 4.654-6.64 1.943-2.234 4.605-3.802 6.52-6.047 1.057-1.24.576-2.116-.875-2.696-.737-.295-1.6-.293-2.357-.528-.783-.243-1.48-.721-2.318-.731-3.562-.143-3.675 3.965-5.054 6.163z" fill="#000"/></g></svg>