<svg viewBox="0 0 20 20" fill="currentColor"><path fill="none" d="M-1-1h22v22H-1z"/><path stroke="null" d="M10 1.225a8.775 8.775 0 10.001 17.551 8.775 8.775 0 000-17.55zm4.42 7.006c.005.095.007.19.007.286 0 2.923-2.224 6.292-6.292 6.292a6.262 6.262 0 01-3.39-.993A4.437 4.437 0 008.02 12.9a2.214 2.214 0 01-2.065-1.536 2.198 2.198 0 00.998-.038 2.213 2.213 0 01-1.774-2.168v-.029c.298.166.64.266 1.002.277a2.21 2.21 0 01-.685-2.952 6.278 6.278 0 004.559 2.31 2.213 2.213 0 013.768-2.017 4.417 4.417 0 001.404-.537c-.166.517-.516.95-.973 1.224a4.421 4.421 0 001.27-.349 4.468 4.468 0 01-1.103 1.146z"/></svg>