<svg version="1.0" xmlns="http://www.w3.org/2000/svg" viewBox="0 0 1293 1379" fill="currentColor">
  <path
    d="M711 142c0 .5-.7 1-1.5 1-1.1 0-1.2.5-.5 2.4 1 2.7-.3 8.8-2.4 10.8-.7.8-1.9 3.1-2.5 5.1-.7 2.1-1.9 4.1-2.7 4.4-.9.3-1.2 1.3-.9 2.3.3 1 .1 2.1-.5 2.5-2.5 1.6.7 14.4 3.8 14.5.6 0 1.2.4 1.2.8 0 1.3 6.6 3.3 8.5 2.6 3.3-1.3 6.2-5 5.1-6.6-1.9-3.1.6-8.1 5.9-11.6 8.2-5.4 8.5-5.6 8.5-6.8 0-1.6 6.5-4.8 8.4-4.1.9.4 1.6 1.4 1.6 2.4.2 7 .9 20.2 1.2 22.1.6 3.4 2.2 4.4 6.8 4.4 4.8-.1 5.3-.4 5.7-3.8.6-4.1 2.2-7.6 3.3-6.9.5.3 1 .2 1-.3 0-.4 1.4-1.8 3-3 3.9-2.9 6.6-1.6 7.6 3.6.4 2 1.5 4.8 2.6 6.1 1.4 1.9 1.6 2.6.6 3.3-1.2.7-.4 1.2 1.4.9.4 0 1 .8 1.3 1.9.6 1.7 5.6 5 7.7 5 .5 0 2.2-1.2 3.8-2.8 2-1.9 3-4 3.3-7.1.5-4.6-.8-9-2.7-9.2-4.3-.3-5.8-.8-7.6-2.4-1.4-1.2-1.8-2.5-1.4-4.1.4-1.6.2-2.4-.6-2.4-.7 0-1-.6-.7-1.3.7-1.9-1.6-4.5-4.3-4.8-2.8-.3-7.7 2-10.1 4.8-3.8 4.2-5.8 5.3-8.4 4.3-1.4-.5-2.5-1.5-2.6-2.2-.8-9.6-1.1-11.1-3.2-13.2-2.2-2.3-8.7-4.3-8.7-2.7 0 .5-1.2 1.2-2.7 1.6-4.3 1-9.6 3.6-12.1 5.9-1.3 1.2-2.5 1.9-2.6 1.6-.5-.9-6.6 4.5-6.6 5.8 0 .7-.4 1.1-.9.7-.5-.3-1.2-.1-1.6.5-1.2 1.9-2.3 1-2.1-1.8.5-4.7 1.7-10.6 3-14.2 1.3-3.7.8-9.4-.9-9.3-.5.1-1.8-.3-2.7-.8-1.2-.6-1.8-.6-1.8.1zM659 146.5c-.7.8-1.9 1.5-2.6 1.5-.8 0-2.4 1.1-3.6 2.5-1.2 1.4-2.8 2.5-3.5 2.5-.7 0-1.3.4-1.3.9s-1.1 1.2-2.4 1.5c-1.4.3-3.1 1.3-4 2.1-.8.8-2.7 1.8-4.3 2-2.3.4-3.7-.3-7.7-4-5.4-4.9-9.2-5.8-12.1-2.9-2.1 2.2-1.5 3.6 2.3 5.4 3 1.4 3.7 3 3.4 7.2-.1 1 .3 1.8.8 1.8s.7.7.4 1.5c-.4.8-.1 2.2.6 3 .6.8.9 1.9.5 2.5-.4.6.4 1 1.9 1 1.4 0 2.6.4 2.6 1 0 .5 1.5.9 3.3.7 2.2-.2 3.5-.9 4.2-2.5.5-1.2 1.3-2.2 1.6-2.2.4 0 2.5-1.8 4.7-3.9 2.2-2.2 4.3-3.7 4.6-3.4.3.4.6 0 .6-.8.1-4 8.9-10.1 11.8-8.3 2.7 1.7 2.5 4.9-.6 11.6-1.6 3.5-3.4 7.6-4.2 9.3-3.3 7.6-1.2 12.2 5.5 12.1 3.7 0 7.5-2.4 7.5-4.6 0-.4 1.1-1.8 2.4-3.1 1.3-1.3 2.6-4.1 3-6.3.6-3.1.4-4.2-1.3-5.8-2.4-2.2-2.6-4.6-.8-9.1.8-1.8 1.4-4.7 1.5-6.5.1-2.6-.6-3.7-3.6-5.7-4.1-2.8-9.3-3.3-11.2-1zM588 157.7c-3.1 1.3-3.6 2.8-3 10.8.3 4.4.2 10.4-.1 13.4-1.1 7.7.9 11.9 6.6 14.1 3.4 1.3 4.8 1.3 3.9-.1-.4-.7 0-.9 1.4-.5 1.6.6 2.1.1 2.6-2.9.4-2 1.1-3.3 1.5-3 .5.2 1.2-1.9 1.5-4.7.5-3.6 1-4.8 1.6-3.8 1.6 2.6 1.9.5.6-3.5-1.1-3-2.1-4.1-4.2-4.7-2.8-.7-2.9-1-2.7-6.3 0-3.1-.3-5.5-.9-5.5-.5 0-2.1-.9-3.5-2-2.7-2.1-3-2.2-5.3-1.3zM545.5 160c-.3.6-.3 3 .1 5.5.4 3 .3 4.5-.5 4.5-.6 0-1 .4-.8.9.1.5-1.4 2.6-3.3 4.8-4 4.4-6.4 8.6-7.3 12.4-.8 3.3 1 5 8 7.4 5.1 1.8 5.3 1.8 8.8 0 1.9-1.1 3.5-2.3 3.5-2.7 0-.5.8-.8 1.8-.8 2.6 0 4.8-2.9 5-6.7.3-3.9-2-5.5-5.7-4.2-3.4 1.3-4.7-.2-3.3-3.8.6-1.5 1.6-4.8 2.1-7.3.9-4 .7-4.7-1.1-6.7-1.2-1.3-1.7-2.3-1.2-2.4 1.1-.1-2.7-1.7-4.3-1.8-.6-.1-1.5.4-1.8.9zM846.7 167c-2 2.7-3.7 5.4-3.7 5.9s-.4 1.1-.8 1.3c-.4.1-1.8 1.9-3 3.9-4.4 7.2-1.9 17.3 4.6 18.5 4.5.9 5.5-.4 5.7-7.4.1-4.1 1-7.7 2.7-11.3 3.9-7.9 5.3-14 3.6-15-3-1.9-5.4-.8-9.1 4.1zM806 168.7c-1.7 2-1.8 2.5-.6 2 1.4-.6 1.6-.3 1.1 1.4-.4 1.1-.1 2.7.6 3.5.7.8 1.3 4.7 1.4 9 .1 7.1.3 7.6 3.1 9.5 3.7 2.4 3.6 2.4 7.1-.9 3-2.9 3.5-6.3 1.6-11.2-.6-1.4-1.3-3.9-1.7-5.5-.8-3.7-3.1-6.4-7.2-8.7-3.1-1.7-3.1-1.7-5.4.9zM499.8 167.7c-1.5.4-3.8 5.7-3.8 8.6 0 .5-.7 1.5-1.5 2.3-3.5 3.5-1.3 8.4 7.7 17.4 4.6 4.6 4.9 4.7 8.9 4 3.9-.7 7.8-3 5.1-3-.7 0-1.2-1.2-1.2-2.8 0-2.2-.7-3-4-4.4-3.9-1.6-4.5-2.6-4.3-7.6.1-.6-.2-1.2-.6-1.2-.4 0-.6-2.3-.4-5 .3-3.4 0-5-.8-5-.7 0-.9-.3-.6-.7.4-.3.2-1.2-.4-2-1.2-1.3-1.3-1.4-4.1-.6zM452.5 179.8c-.6.4-1.2 3.6-1.2 7.1-.1 3.5-.6 6.7-1.1 7-1.4.9-1.2 13 .3 15.8 1.6 3 5.7 5.3 9.6 5.3 3.3 0 6.1-3.4 6.6-8.1.1-1.6 1-4.1 2-5.5 1.1-1.8 1.3-2.8.5-3.2-.6-.4-1-1.6-.9-2.7.2-1.7-.4-2-3.8-2h-4l-.1-5.4c-.2-4.4-.6-5.8-2.5-7.2-2.6-2-3.8-2.3-5.4-1.1zM401.3 197.9c.2 5.5.7 9.4 1.6 10.4.7.9 1 2.1.6 2.7-.3.5.5 1.5 1.9 2.1 1.4.7 2.8 2 3.1 3.1.6 1.8 1.9 2.1 9.2 2.1 7.5 0 11-3 9.8-8.4-.8-3.6-3.9-5-8.7-4.2-3.9.6-5.4-1.1-7.8-8.2-1.7-5-3.9-7.4-7.3-8l-2.6-.5.2 8.9zM889.4 191.5c-4.4 1.8-5 4.3-1.9 7.5 1.9 2 2.6 3.8 2.7 6.8 0 2.2-.2 4.4-.5 4.9-.7 1.1 2.7 6.5 3.8 6.3.4-.1 1.1.3 1.4.8 1.3 2.2 5.6 2.2 8.1.1 2.3-2 2.5-2.7 2.3-9.7-.2-4.2-.7-8-1.3-8.6-.5-.5-1-1.8-1-2.7 0-1-1.6-2.4-3.7-3.4s-4.5-2.1-5.3-2.5c-.8-.5-2.9-.2-4.6.5zM362.5 202c-.4 1.2-.1 2.7.5 3.5.9 1.1.9 3 0 8.2-2 11.8-2 12.2-.5 13.7.8.8 1.5 1.9 1.5 2.5 0 .6.7 1.1 1.5 1.1 2 0 2 .3-1.2 9.7l-2.7 8.1 1.9 3.6c3.5 6.5 8.6 5.6 8.3-1.5-.1-2.1.4-4.4 1-5.2.6-.7 1.3-2.2 1.6-3.3.9-4 1.9-6.4 2.7-6.4.5 0 .9-.9.9-1.9 0-1.1 1.1-3.2 2.4-4.6 2-2.2 2.4-3.6 2.2-7.3-.2-3.3-.7-4.7-1.7-4.7-.8 0-3.1-1-5-2.1-3.2-1.9-3.6-2.6-3.7-6.9-.2-3.5-.8-5.3-2.4-6.6-2.8-2.5-6.5-2.4-7.3.1zM923.8 209.8c-1.4 2.1-2.9 5.8-3.3 8.2-.8 4.5-2.2 7.9-4 9.2-.6.5-.3.8.7.8.9 0 2.1 1.3 2.7 3 .5 1.6 1.5 3 2.2 3 .6 0 1.7.7 2.3 1.6 1 1.4 1.4 1.3 3.8-.5 1.5-1.2 3.3-1.8 4.2-1.5 1.2.5 1.5.2 1-1-.3-.9-.2-1.6.2-1.6 1.3 0 1-9.2-.4-11.7-.7-1.2-1.2-3.9-1.2-6-.1-4.2-1.9-7.3-4.2-7.3-.9 0-2.7 1.7-4 3.8zM959.4 212.6c-.6.3-1 1.8-.8 3.4.2 1.7-.3 3.6-1.2 4.5-.9.8-1.3 2.2-1 3 .3.9 0 1.5-.8 1.5s-1.7 1.5-2 3.4c-.4 1.8-1.8 4.6-3.1 6.2-1.4 1.6-2.5 4-2.5 5.4 0 1.5-.5 3.1-1 3.6-.7.7-.6 2 .5 4 .8 1.6 1.5 3.9 1.5 5.1 0 1.6.6 2.3 1.9 2.3 1.1 0 2.3.4 2.6 1 .7 1.1 6.5.1 8.1-1.4 2-2 2.6-6.6 1-7.2-1-.4-1.4-1.5-1-3.2.2-1.5.6-3.6.7-4.7.2-1.1.8-3 1.5-4.2.7-1.2 1.2-3 1.2-4.1 0-1 .8-3.4 1.7-5.3.9-1.8 1.6-4.8 1.6-6.6-.1-3.2-2.5-6.8-3.7-5.6-.3.4-.6.1-.6-.5 0-1.2-2.4-1.5-4.6-.6zM319.1 221.9c-.8.5-1.5 3.8-1.7 9-.6 11.4 1.5 18.3 7.2 23.6 4.3 4 4.3 4 3.3 8.3-1.5 6.9-.8 9 4 11.8 5.4 3 9.5 2.5 14.3-1.9 2.7-2.5 3.4-3.9 3.2-6.4-.3-5.5-1-6.4-4.9-5.9-1.9.3-3.5 0-3.6-.5-.3-2.8-.1-5.6.6-7.1.4-.9.4-2.1.1-2.7-.3-.5-.1-1.1.5-1.3 1.7-.6 3-10.4 1.8-13.6-2.5-6.6-8.1-5.5-9.3 1.8-.3 2.2-1 4-1.4 4-2-.1-3.5-2.2-3.6-5.2-.1-1.8-.5-3.8-.9-4.5-.4-.7-.8-2.8-.9-4.7-.1-2.1-.7-3.8-1.7-4.2-2.5-1.1-5.6-1.3-7-.5zM280.5 240.7c-.4 1-.9 3.6-1.1 5.8-.2 2.2-.6 6.2-.8 9-.3 2.7-.8 9.3-1.1 14.5-.8 12.8-1 13.3-4.9 12.7-5.6-.9-6.1 0-6.3 12.7-.2 6.9.1 11.8.7 12.1.6.4.8 1 .5 1.5-.9 1.4 4.4 12 6 12 .7 0 1.8.7 2.5 1.5.7.9 1.9 1.4 2.7 1.1.7-.3 2.4-.1 3.8.4 2.2.8 2.8.5 6-3.7 3-3.9 3.4-5.1 2.9-8.3-.6-3.5-.4-3.8 3.2-5.6 3.8-1.9 3.8-1.9 4-8.5.1-4 .8-7.7 1.8-9 1.8-2.9 1.5-14.7-.4-15.9-1-.6-.9-.9.1-1.2.7-.2.9-.9.5-1.7-.6-.9-1.4-.7-3.2 1-2.2 2.1-2.4 2.1-5.8.5-1.9-.9-3.8-2.1-4.1-2.6-.3-.5-.8-6.4-1.1-13.2-.3-6.7-.9-12.5-1.3-12.8-.4-.3-1-1.3-1.4-2.3-.3-.9-1.1-1.7-1.6-1.7s-1.2.8-1.6 1.7zm3.1 60.6c1.2 4.1.8 5.7-1.6 5.7-1.9 0-3-1.9-3-5.4 0-4.7 3.1-4.9 4.6-.3zM991.5 241.7c-.6.5-1.2 2.1-1.3 3.8-.1 1.6-.7 3.1-1.2 3.3-.6.2-1 1.7-1 3.3 0 1.6-.4 2.9-.9 2.9s-1.2.9-1.6 2c-.3 1.1-1.9 3.1-3.5 4.6-1.5 1.5-2.6 3.3-2.3 4.1.3.7 0 1.3-.6 1.3s-1.1.6-1.1 1.4c0 .8-.5 1.6-1.2 1.8-1.2.4-.9 1 3 5.3 1.8 2 7.2 1.8 10-.3 1.6-1.2 2.3-2.9 2.4-5.5.1-2.1.5-4 1-4.3.4-.3.8-1.6.8-2.9 0-1.3.4-2.6.9-3 1.4-.8 4.5-15.5 3.5-16.5-1.4-1.3-5.8-2.1-6.9-1.3zM310.1 252.1c-3 3.3-3.9 15.7-1.8 25.9.6 3.1 5.3 9 7.2 9.1 3.5.3 5.9-.1 6.6-1.3.4-.6 1.2-.7 1.8-.4.7.5 1.1-.5 1.1-2.8 0-2-.4-3.6-1-3.6-.5 0-1-.7-1-1.5s-.4-1.5-.8-1.5c-2.4 0-5.3-14-3.7-17.7 2.7-6.1-3.9-11-8.4-6.2z" />
  <path
    d="M236.7 265.2c-.9.7-1.7 2.4-1.6 3.8.2 10.2.4 12 .9 12 .7 0 3.8 19.2 4.4 27 .2 2.5.5 4.7.7 5 .1.3.3 1.6.4 3 .1 1.4.8 8.8 1.6 16.5.7 7.7 1.3 16.1 1.4 18.7 0 2.5.3 4.4.8 4.1 1.1-.7.8 6.3-.5 9.2-1.4 3.1-2.6 3.2-3.8.1-.5-1.3-1.3-2.7-1.8-3-.5-.3-.9-2.2-1-4.3-.1-2.1-.6-6.1-1.2-9-.6-2.9-1.2-6.6-1.2-8.2-.1-1.7-.5-2.8-.9-2.5-.5.3-1.9-.2-3.2-1.1-2.3-1.5-2.5-1.4-4.1 1-1.2 1.8-1.7 4.3-1.5 7.9.1 2.9-.1 5.8-.5 6.4-.4.7-.2 1.2.3 1.2.6 0 1.1 1.2 1.1 2.7 0 1.6.7 4.7 1.5 7s1.2 4.8 1 5.6c-.6 1.5-3.9 1.5-7.5 0-1.4-.6-3.2-.7-4-.3-1.7.9-1.7 2.7-.2 15.8.6 5.4.5 7.5-.4 8.3-2.4 2-4.7 8.4-4.5 12.4.2 2.2.3 4.4.3 5 0 .5-.3 4.8-.7 9.5-1.3 15.3-1.2 19.4.6 27 1 4.1 1.8 8 1.9 8.6 0 1.8-6.1 7.9-6.8 6.8-.4-.5-1.7-1.5-2.9-2.1-2-1.1-2.4-1-3.9 1.1-1.2 2-1.4 4-.9 9.8.4 4 .8 7.7.8 8.2.1.6-1.5 1.8-3.5 2.8-2.6 1.2-3.8 2.5-3.9 4.1-.4 5 .1 12.6 1.2 19.2.6 3.8 1.1 8 1.1 9.3 0 1.3.7 2.6 1.5 2.9.8.3 1.1 1.3.8 2.3-.3.9 0 3 .6 4.6 1.2 3.2 1.4 4.1 2.7 12.7.6 3.6.5 6-.1 6.4-.6.3-.5.8.1 1.2.6.3 1.7 4.4 2.6 9.1.8 4.7 1.8 9.6 2.1 11 .4 1.4.8 3.6.9 5 .2 1.4 1.2 4.3 2.3 6.5 1.2 2.2 2.6 5.9 3.2 8.3 1.1 3.8 2.2 5.7 5.6 9.6.6.6 1.1 2.2 1.2 3.6.1 1.4.5 4.2.9 6.2.4 2.5.1 4.7-1 6.9-.9 1.8-1.6 4.2-1.6 5.3 0 3.9-1.2 4.7-5.3 3.4-2-.6-3.7-1.5-3.7-2s-.5-.6-1.2-.2c-.7.4-2.3.9-3.7 1-1.3.2-2.7.7-3 1.1-.8 1-3.2 2.5-10.9 6.5-5.9 3.1-14.2 10.5-14.2 12.7 0 .5-2.1 3.3-4.7 6.1-5.7 6.2-6.4 7.5-8.7 16-1 3.6-2.2 7.3-2.7 8.2-2 3.9-3.4 6.3-4 6.8-1.3 1.1-3.9 7-3.9 8.9 0 1.1-.4 2.2-.9 2.5-.5.3-.9 2.3-.9 4.3-.1 2.1-.5 5.9-1 8.4-.9 4.8-.2 6.9 4.6 13.6 1.2 1.7 2.2 3.7 2.2 4.5 0 .8.4 1.8.8 2.3.5.6 1.4 3.7 2.1 7 .7 3.3 1.7 6.7 2.2 7.5 1.9 3.3 7.5 14 10.9 21 1.2 2.5 3.3 5.5 4.6 6.8 1.3 1.3 2.4 2.7 2.4 3.3 0 .5 2 5.1 4.4 10.2 2.4 5 5.4 11.6 6.7 14.6 2.1 4.7 5.9 10.5 8.6 13.4 2.6 2.6 9.9 8.7 10.5 8.7.6 0 3.4 2.9 10.8 11.2 4.6 5.2 5 5.7 5 6.8 0 .5.4 1 .9 1 .4 0 2 1.1 3.5 2.5s3.3 2.5 4.1 2.5c1.5 0 3.2 4.6 2.1 5.7-.3.3-.2 1.1.3 1.7 1.1 1.3 1.7 12.8.9 14.2-1.1 1.8-1.1 5.9 0 8.7.7 1.5 1.3 5.2 1.4 8.2.1 3 .6 5.5 1 5.5s.8 1.5.8 3.2c0 1.8.7 4.6 1.5 6.2.8 1.5 1.5 3.6 1.5 4.5 0 2.5 2.9 15.1 4.6 20.1.9 2.5 3.1 10.6 5 18 1.9 7.5 4.4 14.6 5.5 16 1 1.4 2.4 3.8 3 5.3 1.4 3.4 15.8 31.9 18.5 36.4 1 1.8 2.2 3.3 2.7 3.3.4 0 .7.7.7 1.5s.7 1.5 1.6 1.5c.8 0 1.2.4.9 1-.8 1.2 4.2 8.4 8.9 12.9 2 1.9 3.6 3.9 3.6 4.3 0 .9 2.7 4.3 9.1 11.3 4.6 5 11.5 12.8 13.4 15.2 2.2 2.8 25 25.3 25.6 25.3.4 0 2.4 1.6 4.5 3.5 2.2 1.9 4.2 3.5 4.6 3.5.4 0 2 1.2 3.5 2.6 3 2.8 10.2 6.4 12.7 6.4.9 0 1.6.4 1.6.9s.8 1.1 1.8 1.4c.9.3 2.8 1.2 4.2 2 1.4.8 4.5 2.3 7 3.3 4.4 1.8 18.8 10.9 20.2 12.9.4.5.8.6.8.2 0-.4 1.9.5 4.3 2.1 4.7 3.1 10 5.5 16.4 7.3 4.5 1.3 4.8 2.3.8 3.3-1.3.3-4.1 1.7-6.1 3.1-2 1.4-4.3 2.5-5.1 2.5-.9 0-3.3 1.4-5.4 3.1-4.2 3.3-10.2 6.9-15.9 9.5-8 3.7-9.7 4.5-14.8 7.3-2.9 1.6-7.4 4.5-9.9 6.5-2.6 2-5.2 3.6-6 3.6-.7 0-1.3.5-1.3 1 0 .6-1.2 1.5-2.6 2-1.4.6-4.7 2.5-7.2 4.3-6.5 4.4-19.7 10.7-25.2 11.7-8.9 1.8-12.3 3.7-20 11.1-4.2 4.1-8.5 8.1-9.5 9-1.1.9-9.2 9-18 18-25.3 25.8-35.6 40.2-37.2 51.9-.3 2.5-1.1 5.2-1.8 6-.7.8-1.6 4.5-2 8.2-.4 3.7-1.3 7.3-2.1 7.9-.8.6-1.4 2.3-1.4 3.8-.1 1.4-.7 3.7-1.4 5-.8 1.4-1.1 3.5-.7 5 .8 3.3.7 8.2-.3 14.4l-.8 4.8 9.8-.3 9.9-.3.8-5c1.3-8.1 1.8-11.8 2-16 .1-2.2.5-4.5.8-5 .4-.6.9-2.7 1.3-4.7s1.3-5 2.1-6.5 1.5-3.4 1.5-4.1c0-.7.4-2 .9-3 1.7-3.5 2.9-8.2 2.4-10-.2-1 1.2-5.2 3.1-9.4 2-4.1 3.6-7.9 3.6-8.5 0-.5 1.6-2.8 3.5-5 1.9-2.3 3.5-4.6 3.5-5.1 0-.6 1.4-2.2 3.2-3.7 1.7-1.5 4.4-4.3 6-6.2 1.5-1.9 4.3-4.4 6.2-5.4 3-1.6 3.6-1.6 5.5-.2 1.7 1.1 3.6 1.3 7.9.9 3.1-.4 7.7-.7 10.1-.7 4.9 0 8.3-1.4 7.9-3.2-.3-1.7 8.2-10.7 10.2-10.7 2.8 0 10.7-3.9 11.4-5.5.3-.8 1.3-1.5 2.3-1.5 1.7 0 3.9-1.8 15.7-12.6 2.6-2.4 6.5-5.2 8.5-6.1 2-.9 5.5-3.4 7.8-5.5 2.4-2.1 5.1-3.8 6.2-3.8 1 0 2.4-.7 3.1-1.5 1-1.2 16.6-9.2 34-17.4 1.9-.9 3.7-1.9 4-2.2.3-.3 1.4-.8 2.5-1.2 5.4-1.6 10.9-3.9 14.4-6.2 2.2-1.3 5.2-2.7 6.8-3.1 1.5-.4 3.5-1.2 4.3-1.9.8-.7 4.6-3 8.4-5 9.8-5.3 17.6-5.8 17.6-1.3 0 1.2-.6 2.9-1.3 3.7-3.1 3.7-5.4 11.6-5.1 17.9.3 6.7 3.8 19.6 6 22.2.7.9 2 3.1 2.9 5 .8 1.9 3.1 5.5 5 8 1.8 2.5 3.4 5.3 3.4 6.3.1 1 .8 2 1.6 2.3.8.4 1.5 1.2 1.5 1.9s.7 1.9 1.7 2.6c.9.8 3.3 3.7 5.4 6.5 2 2.8 4.4 5.7 5.1 6.5.8.8 1.9 2.8 2.6 4.4 1.1 2.7 11.5 14.5 12.8 14.5.2 0 1.2.7 2.2 1.6 3.2 3 13.7 9.3 15.4 9.4.9 0 2.3.8 3 1.8.7 1.1 2 1.9 2.9 1.9.8 0 4 1.1 7 2.5 2.9 1.5 8.1 3.4 11.4 4.3 3.3.9 7 2.1 8.1 2.7 1.2.5 3.1.7 4.2.3 1.2-.3 3-.1 4.2.5 2.9 1.6 19 2.1 30 .9 5.2-.6 11.3-1.2 13.5-1.4 2.2-.2 7.6-.9 12-1.5s10-1.1 12.5-1.1 7.5-1 11.3-2.1c7-2.1 8.4-2.1 20.2 1.1 2.2.7 6.3 1.4 9 1.7 2.8.2 5.7.7 6.6.9.8.3 2.4-.2 3.5-1 1-.8 2.9-1.5 4.2-1.5 1.6 0 5.4-3.1 11.8-9.4 5.2-5.1 9.4-9.8 9.4-10.4 0-.5 2.5-3.7 5.5-7.1 3-3.4 6.4-8.1 7.6-10.4 1.2-2.3 2.9-5.1 3.9-6.2 1-1.1 2.4-3.8 3.1-6 .7-2.2 2.4-5.4 3.6-7.1 1.3-1.7 2.3-3.7 2.3-4.5 0-1.4 3-9.6 6.1-16.7 1-2.3 1.9-6 1.9-8 0-2.1.4-4.2.9-4.8 1.5-1.5 4-11.1 3.5-13.2-.3-1 .3-5.5 1.4-9.9 1.6-6.5 1.8-9.1 1-13.4-.9-4.9-.8-5.4 1.4-7.1 6.2-5 10.8-5 17.3.2 5.5 4.4 5.8 4.5 16.5 9.1 5.3 2.2 10 3.4 16 4 21.4 2 40.6 6.1 47.3 10.1 2.6 1.5 5 2.8 5.2 2.8.3 0 2.8 1.1 5.6 2.5 2.8 1.3 7.2 2.7 9.7 3.1 2.6.4 5.6 1.3 6.7 2 1.1.8 3.3 1.4 5 1.4 1.7 0 3.5.4 4.1.9 1 1 19.3 4.5 23.4 4.5 15-.1 56.5-1.5 58.5-2 2.2-.5 2.5-1.1 2.5-5 0-3.5-.5-4.7-2.5-6-1.3-.9-3.3-1.3-4.4-.9-1 .3-2.2.1-2.6-.5-.4-.6-1.6-.8-2.6-.5-1.1.4-2.5.2-3.2-.3-.7-.5-6.6-1.5-13.2-2.2-6.6-.7-12.5-1.7-13.2-2.2-.6-.5-2.7-1-4.5-1-4.8-.1-12.4-4.7-25.5-15.3-6.8-5.5-32.1-17.4-42-19.6-2.9-.7-5.3-1.6-5.3-2.1 0-.4-1.4-.8-3-.8-3.8 0-15.4-2.7-19.5-4.5-1.6-.8-3.9-1.7-5-2.1-1.7-.5-1.3-1 2.5-2.8 2.5-1.1 6.1-3.1 8-4.3 2.3-1.5 5.1-2.3 7.9-2.3 6.1 0 15-4.7 20.7-11 .7-.8 4.7-5.1 8.9-9.4 4.2-4.4 7.8-9 8.1-10.3.4-1.3 1.2-2.3 2-2.3s1.4-.5 1.4-1c0-.6.7-1 1.6-1 .9 0 1.4-.6 1.1-1.3-.3-.8.9-2.1 2.9-3.2 1.9-1 3.4-2.3 3.4-2.9 0-.6 1-2.3 2.3-3.7 1.2-1.4 4.2-5 6.7-7.9 2.5-2.9 6.4-7.3 8.8-9.7 2.3-2.4 4.2-4.6 4.2-4.9 0-.2 1-1.5 2.3-3 1.2-1.4 2.2-2.9 2.2-3.2.2-2.7 10.3-17.5 18.8-27.7 3.3-3.9 7.8-10.8 10.2-15.5 5.8-11.7 14.2-26 17-29 1.2-1.4 3.7-5.3 5.4-8.7 1.7-3.4 3.5-6.4 4.1-6.8 1.6-1 10-14 10-15.5 0-.7 1.5-4.1 3.4-7.4 1.8-3.4 4.1-8.4 5-11.1.9-2.8 3.2-7.7 5.1-11 9.1-16.1 14.6-29.3 14-33.7-.2-1.8.4-3.3 1.8-4.5 2.2-2 13-8.7 17.9-11.2 1.5-.8 3.9-2.9 5.5-4.9 1.5-1.9 4.2-4.9 5.8-6.7 1.7-1.7 3.9-4.5 5-6 1.1-1.6 3.3-4.3 4.8-5.9 1.5-1.6 4.7-5.2 7-8s5.4-6.2 6.9-7.6c2.5-2.4 7.4-9.4 9.1-13 .4-.8 2.5-4.4 4.7-7.9 2.2-3.4 4-6.6 4-7 0-.3 1.2-2 2.8-3.7 1.5-1.7 4.7-5.9 7.2-9.5 2.4-3.5 5.3-7 6.3-7.8 1.6-1.2 7.8-7.3 12.1-12.1 2.3-2.5 6.5-10.5 8.2-15.7.9-2.6 2.1-5.4 2.7-6.1 1.5-1.9 1.5-7.2 0-11-.8-1.8-1.1-3.7-.8-4.2.7-1.2-7.6-18.9-11.7-24.8-1.8-2.6-3.2-4.9-3.1-5.2.1-.3-.4-1.4-1.1-2.5-.7-1.1-1.6-3.1-1.9-4.5-.8-3.3-6-6.2-16.2-9-4.4-1.2-9-3.1-10.2-4.2-2.3-2.1-10.5-4-12-2.8-.4.4-2.7 1.3-5 2-2.4.7-4.3 1.7-4.3 2.2 0 .4-.9.3-1.9-.4-1.9-1.2-1.9-1.2 0-4.7 1-2 3.9-6.8 6.4-10.6 2.4-3.9 4.4-7.3 4.5-7.7 0-.4 1.6-2.4 3.5-4.4 1.9-1.9 3.5-4.2 3.5-4.9 0-.8.6-1.8 1.4-2.2.7-.4 2.2-2.7 3.3-5 1.9-3.8 1.9-4.4.6-7.2-.8-1.6-2.2-3.1-3.1-3.3-2.5-.5-9.2 2.5-9.2 4.1 0 .8-1.2 3-2.7 5-1.6 2-2.8 3.9-2.8 4.3 0 1.3-5.8 5.6-7 5.1-1.9-.7-1.8-11.2 0-12 .8-.3 1.2-.9.9-1.5-.3-.5.3-1.7 1.3-2.6 1-.9 3.1-3.7 4.5-6.2 1.5-2.5 3.6-5.5 4.8-6.8 1.1-1.2 1.8-2.2 1.4-2.2-.4 0 2.4-3.3 6.2-7.3 7.1-7.3 7.2-7.4 6.5-14-.1-1.3-6.3-3.5-8-2.9-2.6.8-9 7.3-14.8 15-3 3.9-5.8 7-6.2 6.7-.9-.5-.8-4.2.2-5.1.4-.4.7-1.4.7-2.2 0-.8 1.1-3 2.5-4.8 1.4-1.8 2.5-3.6 2.5-4 0-.4 1.2-2.3 2.8-4.3 3.4-4.6 7.1-12 7.2-14.6.1-4.5 7.7-21.4 11.3-24.9.9-1 2-2.9 2.3-4.4.3-1.5 1-3.6 1.5-4.7.6-1.1 1.1-3.3 1.3-4.9.2-1.5.7-3.1 1.2-3.4 2.1-1.5 5.4-8.1 5.4-10.9 0-2.8-2.6-6.3-4.6-6.3-1.7.1-5.9 4.5-7.9 8.3-2.6 4.9-5.2 7.7-7.1 7.7-1.3 0-1.5-.6-.9-2.8.3-1.5 1.1-2.9 1.6-3 .5-.2.9-.9.9-1.6 0-.7 1.9-4.1 4.2-7.6 2.4-3.5 5.1-7.5 6-8.9 1-1.4 1.5-3.3 1.2-4.3-.2-.9 0-1.9.6-2.3.6-.4.9-1.9.5-3.4-.4-1.9-.1-3.2 1-4.1.8-.7 1.5-1.7 1.5-2.2 0-.6.9-2.2 2-3.8 1.1-1.5 1.7-2.9 1.5-3.2-.7-.7 1.6-6.9 3.7-10 1-1.4 1.8-3.2 1.8-3.9 0-.7.6-2 1.4-2.8 1.7-2 2.9-9.1 1.5-9.1-.6 0-2-1.2-3.3-2.7-2.7-3.1-5.6-2.6-5.6.9 0 1.3-.7 3.4-1.5 4.8-.7 1.4-2 3.9-2.8 5.6-.8 1.7-2 3.5-2.6 3.8-.6.4-.9 1.2-.5 1.7.3.5-.6 2.5-2 4.4-1.5 1.9-2.7 3.8-2.7 4.2 0 .5-1 2.4-2.2 4.3-1.2 1.9-2.1 3.6-1.9 3.7.9 1-.2 3.3-1.8 3.8-1.2.4-2 1.5-2 2.9 0 1.3-.7 2.9-1.5 3.6-.8.7-1.5 2.1-1.5 3.2 0 2.4-4 9.8-5.2 9.8-.5 0-.6.4-.3 1 .8 1.2-.5 1.3-2.5 0-.9-.6-1.4-2.6-1.4-5.7 0-8.9.7-16.8 1.6-18.6.5-1 1.2-2.8 1.4-4 1-4.2 1.8-6.6 4.5-12.2 1-2.2 2-5.1 2.2-6.5.1-1.4.6-3.1 1.1-3.8 1.2-2 1.3-8.2.1-8.2-2.2 0-5.6-3.2-4.7-4.3.4-.7.9-2.4 1-3.8.2-2.6 1.3-5.9 3.1-8.9 1.4-2.5 4.1-11.3 4.1-13.7 0-1.2 1.4-3.2 3.3-4.7 5.1-4.2 6.8-5.9 6.4-7-.1-.6-2.7-2.2-5.5-3.6-4.5-2.1-5.2-2.8-4.8-4.6.3-1.2.3-3.2-.2-4.3-.6-1.8-1-1.9-3.1-.8-4 2.1-8.3 9-8.6 14-.2 2.5-1.1 5.6-1.9 7-.9 1.3-2.3 5.6-3 9.6-.8 3.9-1.9 7.7-2.5 8.5-.7.8-1.6 4-2.2 7.2-.6 3.3-1.2 6.8-1.4 7.9-1.7 9.3-2.7 14.4-3 16.9-.2 1.5-.7 3.7-1 4.7-.9 2.7 1.3 8.7 3.6 10 1.6.8 1.8 1.3.8 2.5-.6.8-.8 1.4-.4 1.4s0 1.1-.9 2.5c-1.4 2.1-1.6 4.5-1.2 13.8.5 13.7 1 15.1 5.2 17.8 2.9 1.7 3.3 2.5 2.8 4.7-.4 1.5-1.2 3.3-1.8 4.1-1.3 1.6-1 16.1.4 17.5.5.5.6 1.4.4 2.1-.3.7 1.1 2.6 3 4.1 4.3 3.5 4.2 4-2.5 14.5-2.7 4.2-4.9 8.4-4.9 9.4s-.7 2.6-1.5 3.5c-.8.9-1.6 3.3-1.7 5.3-.2 2-.6 3.7-1 3.7-.5 0-.8.7-.8 1.5 0 .9-1.6 4.4-3.5 7.9s-3.5 7.3-3.5 8.5c0 1.2-.5 2.1-1.1 2.1-.6 0-.8.9-.4 2 .4 1.2.1 2.7-.5 3.5-.7.8-1 2.6-.8 3.9.3 1.6-.3 3.4-1.7 5.2-2.1 2.7-2.1 5.5.3 12.4.8 2.4.8 8 0 8-1.4 0-.8 2.9.8 3.8 1.4.8 1.4 1 0 2.1-.9.8-1.6 2.2-1.6 3.3 0 2.4-2.7 7.8-3.9 7.8-1 0-2.3-7.7-2.7-15.5-.6-14.3-.4-32.4.5-35.4.7-2.3.7-4 0-5.3-.6-1.1-.8-2.6-.5-3.4.3-.8.1-1.4-.5-1.4s-.9-.6-.6-1.3c.4-1-.4-6.2-2.9-19.3-.6-3-.4-3.2 2.9-3.8 3.6-.7 4-1.1 5.2-7.3.5-2.7.1-3.8-2.8-7-5.7-6.3-14-23.6-17.7-36.8-1.8-6.6-3.6-12.2-3.9-12.5-.4-.3-1.2-2.3-2-4.4-.7-2.2-2.7-5.1-4.3-6.4-2.5-2.1-2.9-3-2.4-5.5.3-1.7 1.7-4.4 3-6.1 2.2-3 2.3-3.2.7-6.6-.9-1.9-2.9-4.6-4.6-6-1.6-1.4-4.5-4.1-6.2-6-1.8-2-5.5-6-8.3-8.9-2.7-2.9-5.7-6.7-6.5-8.5-3.3-7-10.2-12.3-17-13.2-1.6-.2-3.4-.9-3.9-1.4-.6-.6-2-1-3.3-1-1.3 0-2.3-.5-2.3-1 0-.6-.4-1-.9-1-1.9 0-10.1-6.2-10.1-7.6 0-.8-1.2-2.7-2.6-4.1-2.1-2.1-4-2.8-9.3-3.3-3.6-.5-9.1-1.5-12.1-2.4-8.3-2.4-14.7-2.1-17.2.7-1.9 2.2-2.5 2.3-7.7 1.4-3.1-.5-7.6-.6-10.1-.3-12.3 1.5-18.3 2.7-20.3 4.1-1.8 1.1-7.5 1.4-29.2 1.5-25 .1-57.6.6-61.7 1-1 .1-1.8.5-1.8.9 0 .5-1.4 1.4-3 2.1-1.7.7-3.4 1.9-3.8 2.6-.5.9-3.5 1.5-8.2 1.9-11.6.8-24 2.3-29 3.5-2.5.6-7.9 1.5-12 2-4.1.4-10.6 1.4-14.4 2-3.8.6-13.3 1.2-21 1.2-11.2.2-15-.2-18.6-1.6-7.2-2.7-21.8-5.6-25.3-4.9-4.7.9-7.2 3.3-7.5 7.3-.2 2.5.4 4.4 1.9 6.4l2.2 2.7-2.2 1.5c-1.2.9-1.9 1.9-1.6 2.4.3.4-.2 1.3-1 2-1.5 1.2-9.6.7-25-1.5-1.6-.2-5.8-.8-9.2-1.3-3.5-.4-6.5-1.1-6.9-1.4-.3-.4 0-1.7.7-3 2.5-4.7 1.9-7.4-2.5-10.2-2.2-1.4-5.6-2.8-7.5-3.2-2-.3-5.3-1.2-7.4-2-2-.8-4.8-1.4-6.1-1.4-1.3 0-4.2-.7-6.5-1.5-2.4-.8-6.6-1.7-9.4-2-2.9-.3-9.2-1-14.2-1.5-13-1.3-21.5-1.8-43.5-2.5-10.7-.4-22.9-1-27-1.5-4.1-.5-10.6-1-14.5-1.1-3.8-.1-10.5-1-14.8-2.1-4.3-1-8.9-1.8-10.2-1.8-1.3 0-2.6-.4-2.9-.9-1.6-2.5-18.8-3-23.5-.7-4 1.9-36.7-.1-45.7-2.9-7.4-2.2-11.3-1.9-14.6 1.2-2.2 2.1-3 2.4-4.2 1.4-.8-.6-2.6-1-4.1-.7-2.5.5-3.9 1.5-9.3 6.3-.7.7-1.7 1.3-2.2 1.3-.4 0-3 2-5.6 4.6-5.2 4.8-13.2 10.9-14.3 10.9-1.7 0-17 10-17.5 11.4-.3.9-1.4 2.7-2.5 4.1-1.1 1.4-2.2 4.5-2.5 6.9-.3 2.4-1.4 5.3-2.4 6.5-1.1 1.2-2.7 3.6-3.6 5.3-.9 1.8-2.1 3.3-2.6 3.3s-.7.7-.4 1.5c.4.8 0 2.5-.8 3.8-.8 1.2-1.8 3.4-2.2 4.9-.3 1.6-1.1 2.8-1.7 2.8-.6 0-.8.4-.5.9.7 1.1-1.1 6.3-5.2 15.1-1.6 3.6-3.3 8-3.7 9.8-.4 1.8-2.2 7.2-4.1 12-1.9 4.8-3.4 9.2-3.4 9.7 0 1.7-2.4 6.5-3.3 6.5-1.4 0-2.5-4.5-3.7-14.9-.9-8.5-.9-10.5.2-11.2 1-.7 1-.9 0-.9-.9 0-1.1-2.9-.7-12.8.2-7 .6-18.1.9-24.7.8-24 1.9-41.6 2.8-42.1.4-.3.6-1 .3-1.5s-.2-2.4.3-4.2c.5-1.8.6-4.2.2-5.3-.5-1.1-.5-3.9 0-6.2.4-2.5.3-4.5-.2-4.8-.5-.3-.7-1.1-.5-1.8.2-.6.1-3.8-.4-7.1-1.2-8.8-.2-10.9 5.4-11.9.5 0 1.4-.9 2.1-1.8.9-1.2 2.4-1.7 4.9-1.5 2.5.2 4.4-.3 6.1-1.7 2.2-1.8 2.6-3 2.8-8.8.1-4.3-.3-7.2-1.1-8.2-.7-.9-1-1.6-.6-1.6s.2-.7-.5-1.5-2.1-1.5-3.1-1.5c-2.4 0-3.9-3.7-4.5-11-1-11.8-3-15.1-9-14.7-3.1.2-2.9.7-4.8-14.3-.3-1.9-.6-3.5-.7-3.5-1.3 0-1.9-19.9-.6-23.5 1.5-4.3-5.5-7.8-9.6-4.8zM913.5 406c1.7.7 6.2 2.7 10 4.5 3.9 1.9 11.3 4.5 16.5 6 21.5 5.8 26 7.5 29.6 11.1 1.9 1.9 3.2 3.9 2.9 4.3-.2.5.4 1.6 1.5 2.6s1.7 2.2 1.4 2.6c-.3.5.1.9.8.9.7 0 2.6 1.8 4.2 4 1.7 2.2 3.3 4 3.8 4 .4 0 .8.5.8 1.2 0 1.5 2.1 6.1 12.8 27.5 4.7 9.5 8.6 18.4 8.8 19.8.2 1.5 1 3.7 1.8 5 1.4 2.2 1.4 2.3-.9 2.9-1.4.4-3.1 1.9-3.9 3.4-1.3 2.4-1.2 3.7.4 10.5 1 4.2 2.1 9.8 2.4 12.4.4 4.4 2.1 12.8 4.7 24.3.5 2.5 1.2 5.7 1.6 7.3.3 1.5.9 3 1.4 3.3.5.3.9 1.9.9 3.6 0 1.8.4 4.5.9 6.2 1.4 4.4 4.2 16.5 4.7 20.1.2 1.6.9 5.7 1.5 9s1.3 7.3 1.5 9c.2 1.6.6 4.3.9 6 1 5.8 1.4 10.1 2.1 21.9.8 13.4 1.3 14.6 8.2 17.7 4.5 2.1 5 3.4 2.8 6.5-1.1 1.4-1.3 3.8-.9 9.6.4 4.8.2 8.2-.4 9-.6.7-1.1 2.4-1.2 3.8-.1 3.8-1.6 17.7-2.1 19.5-.4 1.8-.7 3-.8 4.3-.2 1.2-1.9 1.3-17.2 1.2-4-.1-16.1-3.1-20-5-.9-.4-1.6-2.3-1.6-4.8-.1-2.3-.9-7.4-1.8-11.4s-1.7-8.2-1.9-9.3c-.1-1.1-.5-2.5-.9-3-.3-.6-.6-4.2-.5-8 0-5.7-.4-7.9-2.7-12.3-3-5.9-5.9-8-14.3-10.7-3.2-1-9.6-3.3-14.3-5.2-6-2.4-10.5-3.5-15.2-3.8-4.8-.2-8.4-1.1-13.1-3.3-7-3.3-20.4-6.5-27.7-6.5-2.5 0-9.9.1-16.5.2s-14.2-.3-17-.8c-2.7-.5-10.8-1.3-17.9-1.6-7.1-.3-13.3-.8-13.7-1-1-.7-5.6-1.2-15.9-2-4.7-.3-10.5-.8-13-1-2.5-.2-7.4 0-11 .6-3.6.6-10.1 1.3-14.5 1.6-4.4.2-9.5 1.1-11.3 2-3.2 1.5-3.4 1.9-2.8 5.4.6 3.5.5 3.7-2.7 4.2-1.7.3-8.1.6-14.1.6-11.6 0-12.5.4-12.6 5.1 0 1.9-1 2.9-3.9 4.2-2 1-4.2 1.8-4.8 1.8-.6 0-1.6.7-2.4 1.6-.7.8-2.9 2.4-4.8 3.4-2 1-4.9 3-6.4 4.4-1.5 1.4-3.2 2.6-3.8 2.6-.5 0-.9.4-.9 1 0 .5-.6 1-1.3 1-1.7 0-4.6 3.5-6.6 8.1-1.4 3.1-1.6 5.1-.9 10.6.7 6.2.5 10.6-.8 18.8-.3 1.6-.5 3.9-.5 5-.1 4.1-2.2 19-2.9 20-1.4 2-3.1 21.3-3.3 38-.2 19.4.9 25.6 5.2 28.3 1.4.9 4.9 3.3 7.7 5.4 2.8 2.1 5.9 3.8 7 3.8 3.9 0 11.3 4.7 16 10 9.5 10.9 17.1 13.4 46.6 15.4 9.6.6 11.5.9 20.3 3.6 18.8 5.6 29.3 7.4 42 7.2 23.3-.3 37.3-1.1 45-2.7 4.4-.9 9.7-1.9 11.8-2.2 2-.3 4-.9 4.3-1.4.3-.5 1.9-.9 3.5-.9s4.5-.6 6.4-1.4c1.9-.8 7.2-2 11.7-2.7 7.6-1 20.3-4.6 25.3-7 1.2-.6 3.7-1.1 5.5-1.1 2 0 4.8-1.1 6.7-2.4 1.7-1.3 3.5-2.4 4-2.5.4 0 3.3-2.9 6.3-6.5 5.2-6.2 5.6-6.5 9-5.9 2.9.5 4.2.1 7.2-2.2 2.1-1.5 3.7-3.5 3.8-4.3 0-.8 1.1-3.6 2.4-6.3 1.3-2.6 3.2-8.2 4.1-12.5 1-4.2 2.9-12.7 4.2-18.7 2.8-11.8 2.8-12.3 3.9-20.3.8-6.3 1.1-6.4 13.9-6l9 .3.2 3.9c.2 3.4-2.6 24.6-4.1 31.6-.4 1.4-.9 5-1.2 8-.3 3-.9 5.9-1.2 6.5-.8 1.3-1 1.9-2.2 8.5-1.2 6.7-4.5 21.2-5.8 26-.6 1.9-1.8 6.2-2.7 9.5-.9 3.3-1.8 6.7-1.9 7.5-.1.8-.6 2.3-1 3.3-.5 1-.6 2.1-.2 2.4.3.4 0 1.4-.8 2.2-.9.9-1.8 4.8-2.1 8.6-.6 6.2-3.6 17.3-5.5 20-.4.5-1 2.3-1.4 4-.7 2.9-3.8 10.4-5.6 13.7-.6 1-1 2.5-1 3.3 0 .8-.3 1.5-.8 1.5-.4 0-1.3 1.8-1.9 3.9-.7 2.2-2.4 5.6-3.8 7.7-1.4 2-2.5 4.2-2.5 4.9 0 .7-1.6 4.2-3.7 7.7-2 3.4-4.4 8-5.4 10-1.1 2-2.3 4-2.9 4.3-.6.3-1.8 2.3-2.8 4.3-1 2-2.9 5.5-4.2 7.7-1.3 2.2-3.2 5.6-4.2 7.5-1 1.9-2.7 4.8-3.8 6.5-1 1.6-2.9 5-4.3 7.5-1.3 2.5-3.4 6.4-4.6 8.6-1.2 2.3-3.1 5-4.1 5.9-1.1 1-2 2.4-2 3.2 0 .7-.4 1.3-1 1.3-.5 0-1 .7-1 1.5s-.4 1.5-.9 1.5-1.6 1.6-2.5 3.5c-1 1.9-2.8 4.2-4.2 5.1-1.3.9-2.4 2.2-2.4 2.9 0 .7-.6 1.5-1.3 1.8-.8.3-3 3-5.1 6-2 3.1-4.6 6.4-5.9 7.4-1.3 1-5.9 6.1-10.2 11.3-10.2 12.1-22.7 24.2-28.4 27.4-.9.5-3.6 2.9-6.1 5.3-2.4 2.4-5.9 4.9-7.7 5.5-1.8.7-3.3 1.6-3.3 2.1s-.7.7-1.5.3c-.8-.3-1.5-.1-1.5.4s-2.1 2.3-4.7 4.1c-3.9 2.7-5.9 3.3-10.3 3.5-4.7.1-8 1.4-22 8.1-9.1 4.4-21 9.9-26.5 12.3-5.5 2.4-10.9 5.2-12 6.1-2.3 1.9-8.8 4.9-19.8 9-6.8 2.5-9.2 2.9-18.2 2.9-5.7 0-11.4.4-12.7.9-1.4.5-6 1.2-10.4 1.5-4.3.4-10.7 1.1-14.2 1.7-3.4.6-6.8.9-7.6.6-.8-.3-1.7-.3-2 .1-1.1 1.1-4.7 1.2-29.9 1.2-18.6 0-26.5.4-31.3 1.5-3.6.8-8.3 1.5-10.5 1.5-2.2 0-4.8.4-5.7.9-1.8.9-19.3 2.5-25.1 2.2-4.3-.2-6.6-1.8-5-3.7.9-1 .6-1.6-1.2-2.3-2.5-1-27.1-2.7-53.4-3.7-9.6-.3-17.7-1.2-22.5-2.4-4.1-1-9.5-2.3-12-2.8-2.5-.6-7.8-2.4-11.9-4.1-4-1.7-8.3-3.1-9.5-3.1-2.5 0-15.1-2.6-16.3-3.3-.5-.3-3.2.1-6 .8-6.1 1.6-19.7 1-22.9-1-1.1-.8-4-1.8-6.3-2.5-2.3-.6-5-1.9-5.9-2.8-2.3-2.3-8.6-6.2-10-6.2-3.1 0-14.2-6.4-18.1-10.5-3.3-3.4-5.4-4.7-8.4-5.2-2.3-.3-6.6-2.4-10.1-4.9-3.4-2.4-9.2-6.4-12.9-8.9-15.5-10.5-21.8-18.2-31.3-38.1-2.9-6.1-6-11.7-6.9-12.4-.8-.7-1.5-1.6-1.5-2.1 0-.4-1.6-3.5-3.5-6.8-2.4-4.1-4.7-6.6-7-7.7-2.2-1-4.7-3.7-7.4-8-2.3-3.6-4.1-7-4.1-7.5s-.9-2.7-2-4.8c-1-2.1-1.7-4.1-1.4-4.4.4-.3-.3-1.6-1.5-2.8-1.1-1.2-1.8-2.6-1.5-3 .3-.5-.2-1.9-1-3.1-1.5-2.4-7.2-21.6-8.9-30.3-.5-2.8-1.8-7.2-2.8-9.9-1.1-2.7-2.4-9.2-3-14.5-.7-5.3-1.5-9.8-1.8-10.1-1-.7-4.9-10.9-5.5-14.5-.3-1.7-.8-4.4-1.1-6.2-.3-1.8-1-4.4-1.5-5.8-.6-1.5-1-4.4-1-6.5 0-2.1-.4-4.1-.9-4.5-.6-.3-1.3-2.7-1.6-5.3-.4-2.6-1.5-9.2-2.7-14.7-1.1-5.5-2-10.7-2-11.5 0-.8-.8-7.6-1.8-15-1.1-7.4-1.9-14.6-1.9-16-.1-5.5-.3-7.8-1.2-14-.6-3.6-1.2-10.6-1.4-15.5-.3-5-.7-11.5-.9-14.5-.3-3-.5-9.1-.4-13.5.1-4.4.1-9.4 0-11-.1-1.7-.3-5.9-.5-9.5l-.2-6.5 3.2-.2c3.5-.1 5.8-1.2 12.9-6.3 5.7-4.1 10.4-8.5 10.4-9.7 0-.9-6.4-4.6-8.6-4.9-.8-.1-5.4.6-10.2 1.6-9.5 1.9-10.1 1.7-10.3-3.5 0-1.7-.2-4.4-.4-6-.2-1.7-.5-5.5-.6-8.5-.1-3-.8-10-1.6-15.5-1.4-9.2-1.3-15.1.2-21.5 3-11.8 4.4-20.9 3.3-21.2-.5-.2.5-1.8 2.3-3.6 1.7-1.7 2.6-3.2 2-3.2-.6 0-1.1-.7-1.1-1.5 0-1.6 1.5-2.1 2.3-.8.2.5.1.1-.2-.7-1.1-3.1-.9-11.4.4-14.4 2.1-5.2 4.3-12.5 8-27.1 2-7.7 3.8-14.7 4.2-15.5.4-.8.8-2.5.9-3.8.2-1.3.9-4.6 1.7-7.5.8-2.9 2.5-9.7 3.7-15.2 1.2-5.5 2.6-11.6 3.1-13.5.6-1.9 1.4-7.3 1.9-11.8.5-4.6 1.3-8.9 1.8-9.5.5-.7.9-2.3 1-3.6 0-1.3.8-3.1 1.6-4 .9-1 1.6-2.4 1.6-3.1 0-2.9 5.4-12.2 7.9-13.5 1.4-.7 3.4-2.6 4.4-4.2 1.1-1.5 3.9-4.3 6.3-6.2 5.7-4.3 7.9-8.7 6.4-12.7-.6-1.6-1.7-3.2-2.3-3.6-.8-.5-.2-1.7 2.1-3.8 3.7-3.4 7.5-3.9 11-1.4 3.7 2.6 36 3.8 55.2 2.1 4.1-.4 10.7-.9 14.5-1.1 3.9-.3 8.4-.7 10-1 7.7-1.4 53.4-.4 64.5 1.3 4.1.7 10.9 1.6 15 2.1 4.1.4 9.1 1.3 11 1.9 4.5 1.4 16.3 1.4 17.7 0 1.3-1.3 12.8-2.3 15.1-1.3 1 .4 2.6.9 3.7 1.1 1.1.2 6.5 1.2 12 2.3 5.5 1.1 12.6 2.5 15.7 3.1 4.1.7 7 2 10 4.5 9 7.6 14.6 8.4 20.6 3l3.8-3.5 9.4.4c5.2.2 10.9.4 12.6.4 2.5.1 3.3.6 3.8 2.5.9 3.8 5.3 8.4 8.6 9.1 1.7.4 3 1.3 3 2.1 0 1.9 8.1 5.4 12.5 5.4 4.5 0 6.6-1.1 11.6-6.1 2.1-2.1 4.8-3.9 6-3.9 1.1 0 3.3-.6 4.7-1.4 1.5-.7 5.2-2.1 8.2-3 3-1 7.8-2.9 10.7-4.2 2.9-1.3 8.1-3.1 11.5-4 3.5-.9 6.7-2 7.2-2.5.6-.5 2-.9 3.3-.9 1.3 0 2.3-.5 2.3-1.1 0-.6.7-.9 1.5-.5.8.3 1.5.2 1.5-.2s.8-.8 1.8-.8c3.5-.2 31.9-4.5 38.7-5.9 3.9-.8 8.4-1.6 10-1.9 1.7-.2 3-.5 3-.6 0-.4 5-1 14-1.5 5.5-.4 10.7-.9 11.5-1.2 1.7-.7 1.3-.6 10.5-1.7 3.9-.5 8.1-1 9.5-1.2 5.6-.9 17.1-1.2 20.2-.5 4.2.8 10 .3 9.3-.9-.3-.5.3-.9 1.2-1 10.1-.6 15.9-1.3 16.4-2.1.3-.5 4.9-1.2 10.2-1.6 7.5-.5 10.1-.3 11.9.9 1.3.8 3.5 1.5 5 1.6 2.3.1 2.9-.3 3.6-3 .8-3.1 1.1-3.3 5.8-3.6 2.7-.2 5.4-.5 5.9-.7 1.9-.8 14 .3 17 1.5zm-459 3c.3.5.1 1-.4 1-.6 0-1.1-.5-1.1-1 0-.6.2-1 .4-1 .3 0 .8.4 1.1 1zM352 411.6c6.3.9 8 1.4 8 2.4 0 1.2-13.5 1.2-19.5.1l-4-.7 3-1.7c1.9-1.1 4.1-1.5 6-1.2 1.7.3 4.6.8 6.5 1.1zm-122.2 85.1c.1 3.4-.2 5.4-1.2 6.2-1.1.9-1.5.7-2-1.4-.4-1.4-1-2.5-1.5-2.5-.9 0-.8-5.1.2-6.7.4-.6 1.5-1 2.5-.9 1.3.2 1.8 1.4 2 5.3zm-12.3 141.2c0 2.4.5 4.6 1 4.8.6.2 1 3.9.9 8.8-.1 4.7.3 10.4.8 12.7.5 2.4.9 6.8.9 9.8 0 3 .7 9.1 1.6 13.5.8 4.4 1.7 14.1 1.8 21.5.2 7.4.4 16.7.6 20.6.1 3.9-.1 7.6-.5 8.2-.4.7-.3 1.2.2 1.2s1.3 3.3 1.6 7.2c.7 8.2 1.9 35.8 1.7 40-.1 1.5.3 4.7.9 7.2 1.1 4.8.5 7.6-1.5 7.6-1.5 0-11.5-9.3-11.5-10.8 0-.5-.6-1.2-1.3-1.5-.7-.2-2.1-2.2-3.2-4.3-1.1-2.1-3.3-5.2-5-6.9-1.6-1.7-4.1-5.3-5.5-8-4.1-8-4.4-8.5-5.3-8.5-.4 0-.5-.4-.2-1 .3-.5-.5-2.5-1.9-4.3-1.5-1.9-2.6-3.6-2.6-3.9 0-.3-.8-2.3-1.7-4.4-1-2.2-1.8-5.5-1.9-7.4-.1-3.3-.5-5-2.4-9.5-.5-1.1-1.2-3.1-1.6-4.5-.3-1.4-1.4-3.3-2.3-4.4-.9-1-1.5-2-1.3-2.2.1-.2-.5-1.8-1.3-3.4-.9-1.7-1.3-3.5-1-4 .3-.5.1-1.1-.4-1.4-1-.6-.7-16.5.4-25.6.6-4.5.4-5.8-.9-6.9-2.2-1.8-2-6.5.3-11 1.1-2 2.2-5.2 2.5-7.1.8-4.4 13-18.2 19-21.2 2.2-1.1 4.3-2.4 4.6-2.8.8-1.3 7.3-2.9 11-2.7 3.4.2 3.5.3 3.5 4.6zm619.5 2.6c38.9 2.2 43.4 2.9 50 8.4 3.8 3.2 4.5 3.6 6 3.9.8.1 2.4.6 3.5 1.1 4.8 2 12.7 4 22 5.6 5.5.9 11.4 2.1 13.1 2.5 2 .5 4.2.3 6.2-.6 3-1.2 3.7-2.2 3.3-5.2-.3-1.9 8.4-1.5 12.8.7 3.4 1.8 12.9 9.1 11.8 9.1-.3 0 .5 2 1.8 4.5 2 4 2.1 5.2 1.3 8.8-.6 2.3-1 5-1 5.9 0 1-.3 1.8-.9 1.8-.5 0-.9.8-.9 1.8s-.4 2.2-.9 2.8c-1.5 1.5-2.8 11.4-2.5 19.4.5 12.2.1 10.9 4.9 16.4 1.8 2.1 2.2 3.2 1.4 4.2-.6.7-1.2 4.5-1.4 8.4-.2 3.9-.8 7.6-1.3 8.3-.6.7-1.3 3.4-1.7 6.2-.6 4.5-4.1 13.7-6.6 17.5-.5.8-1.6 2.9-2.4 4.7-.8 1.8-3.3 5.1-5.6 7.5-2.3 2.4-5 5.6-6 7.3-1.7 2.7-1.7 3.1-.2 4.7.9 1 2.9 1.8 4.5 1.8 1.5 0 2.8.4 2.8.9 0 1.2-8.1 5.1-10.6 5.1-1.1 0-3 .7-4.2 1.6-2.3 1.6-10.2 3.5-24.1 5.9-4.7.8-10.7 2.1-13.5 2.9-10.2 2.8-13.6 3-15.7.7-1-1.1-1.9-2.4-1.9-3 0-.5-.7-1.2-1.5-1.5-.9-.3-23.7-.8-50.8-1.1-49.1-.6-54.3-1-66.7-4.6-5-1.5-13-5.1-13-6 0-.4-1.2-1-2.7-1.4-4.4-1-11-5.6-12.5-8.6-.7-1.5-3.7-7.3-6.7-12.8-4.8-9.1-5.7-10.3-9.7-12.1-3.2-1.5-4.4-2.7-4.5-4.3-.2-4.1.2-8.2 1.3-12.2.6-2.2 1.2-5.5 1.4-7.3.2-3 1.8-15.8 2.9-24.2.2-1.9.9-5.3 1.4-7.5.5-2.2 1.2-6.5 1.6-9.5 1-7.5 1.3-9.5 1.5-9.5.1 0 .4-2.5.6-5.5.2-3 .9-7.9 1.7-10.8.9-3.3 1-5.2.4-5.2-1.8 0 6.6-6.9 10.3-8.6 1.9-.8 5.2-2.4 7.3-3.5 2-1.1 3.7-1.7 3.7-1.3 0 .3.6.2 1.3-.3.6-.5 4.6-1.5 8.7-2.2 4.1-.7 9.5-1.9 12-2.7 2.5-.8 5.3-1.4 6.3-1.4s3-.6 4.5-1.4c2.7-1.4 24.5-5.5 33.7-6.3 2.7-.2 5.1-.6 5.4-.8.2-.3 2.9-.2 6 .1 3.1.3 8.5.7 12.1.9zm254.8 15c2.6 1.4 5.9 2.5 7.5 2.5 3.2 0 7.7 4 7.7 6.8 0 1.1 2 4.7 4.5 8.1 2.5 3.4 4.4 6.4 4.3 6.9-.3.8 4.2 10.4 5.2 11.2.4.3 1.1 2.4 1.7 4.7.8 3.2.8 4.8-.3 6.8-.7 1.4-1.6 4.1-2 6-.3 1.9-1 3.5-1.4 3.5-.5 0-1.1 1.3-1.5 2.8-.3 1.6-2.6 4.9-5.1 7.3-2.4 2.4-6.3 6.9-8.7 9.9-2.3 3-4.8 6.1-5.5 6.8-2 2.1-6.6 9.2-10.2 15.7-3.9 7.1-8.8 12.5-11.2 12.5-.9 0-2.8 1.5-4.1 3.4-4.2 6.2-20.4 23.6-30.2 32.4-4.4 3.9-6.7 3.1-4.6-1.5.7-1.4 1.7-4.9 2.3-7.7.5-2.8 1.2-6 1.4-7.1.2-1.1 1.6-6.3 3-11.5 4.6-16.9 8.8-35.6 9.7-43.5.1-1.1.5-2.2.8-2.5.8-.8 2.9-13.3 2.9-17.9 0-2.3.7-5.2 1.5-6.5.9-1.4 1.7-5.7 2.1-10.5.2-4.5.9-9.3 1.4-10.6.5-1.4.6-2.5.3-2.5-.4 0-.2-.5.5-1.2s1.2-2.1 1.2-3.3c0-1.1 1.1-4 2.5-6.4 1.4-2.3 2.5-5.5 2.5-7.1 0-2.9 2.2-5 8.2-8.1 4.7-2.4 8.2-2.3 13.6.6zm-246 167.2c-1.6.2-4 .2-5.5 0-1.6-.2-.3-.4 2.7-.4s4.3.2 2.8.4zm-152.2 307.4c.4.7 7.5.9 23.8.4l23.1-.8 2.4 5.7c2.5 6.1 2.5 7.6-.5 17.6-.9 3-1.6 6.4-1.6 7.4.1 1-.6 2.8-1.4 4-.7 1.1-1.4 3-1.4 4.1 0 1.1-1.1 4.1-2.5 6.7-1.4 2.6-2.5 5.4-2.5 6.3 0 .8-.4 1.5-.9 1.5s-1.5 2-2.2 4.5c-.9 2.9-1.8 4.4-2.6 4.1-.8-.4-1.3.3-1.3 1.9 0 1.3-.6 2.8-1.3 3.2-.7.4-1.7 2-2.2 3.5-.6 1.5-4.3 6.3-8.2 10.6-5.5 6.1-8.9 8.7-13.7 11.1-3.6 1.7-7.1 3.1-7.8 3.1-.8 0-1.8.4-2.4.9-1.1 1-13.3 3.9-19.9 4.6-2.7.3-5.7 1.2-6.6 2.1-1.1 1-1.9 1.2-2.4.5-.4-.8-1.2-.8-2.7 0-1.1.6-5.9 1.5-10.6 2-4.8.5-10.9 1.2-13.5 1.5-3.9.5-5.1.3-6.2-1.2-.7-1-1.1-2.4-.8-3 .7-2-3.8-4.2-9.7-4.9-3-.3-6.2-.8-7-1-.8-.2-7.3-.7-14.5-1-7.1-.3-15.7-1-19-1.6-3.3-.5-7.9-.9-10.3-.9-2.4 0-5.3-.5-6.4-1.1-1.3-.7-2.4-.7-3-.1-1 1-12.9-4.7-13.6-6.6-.2-.6 1.4-1.4 3.4-1.8 2.1-.4 4.7-1.8 5.9-3.2 2-2.3 2-2.8.8-5.3-1.7-3.4-2.7-4.1-8.4-6.4-4.6-1.9-9.9-7.7-9.9-10.9 0-.8-.4-1.8-1-2.1-.5-.3-1-1.7-1-3s-.4-2.6-.9-2.9c-.5-.3-1.2-2.7-1.6-5.3-.4-2.7-1.5-6.5-2.6-8.7-1-2.1-1.6-4.2-1.4-4.6.3-.5-1.1-3.7-3.1-7.1-4.2-7.6-4.5-10.2-1.3-15.5 1.3-2.2 2.9-4.9 3.5-5.9 1-1.8 2.4-2 14.9-2.3 10.8-.3 14 0 15.3 1.1 5 4.4 7.6 4.8 27.5 4.8 10.6 0 26-.7 34.2-1.6 8.3-.8 21.1-1.7 28.5-2 23-.9 41-2.2 41.7-2.8 1-1.1 4.1-.8 4.9.4zm-190.9 20.6c.4.9 1.4 2.4 2.4 3.4s2.4 4 3.2 6.6c.8 2.6 2.2 6.1 3.1 7.8.9 1.6 1.6 3.7 1.6 4.5 0 .9.4 2 1 2.6 1.5 1.5 2.5 10.4 1.1 10.4-.6 0-1.1-.4-1.1-.9s-.8-1.1-1.8-1.3c-2.3-.6-6.6-8.1-9.7-16.8-2.2-6.2-3-10.7-2.6-15.8.1-2.6 1.9-2.9 2.8-.5z" />
  <path
    d="M367.3 544c-1.3.5-2.4 2.2-2.9 4.2-1.2 4.9-1.1 5.1 1.6 7.5 2.9 2.4 2.4 3.3-2.1 4.2-4.6.9-5.7 5.2-2.6 9.8 1.2 1.8 2.9 3.3 3.8 3.3.9 0 1.9.3 2.3.7.3.4 1.4.8 2.4.8 2 .3 11.1 1.3 16.7 2 2.2.3 5.1.7 6.5 1 4.1.8 10.2 1.6 15 1.9 2.5.2 8.1 1.1 12.5 2.1 4.4.9 11.4 1.8 15.5 1.9 10.6.4 24.9 4 27 6.7 1.5 2 9.3 5.1 11.5 4.5 2.4-.6 6.2-6.2 5.1-7.4-.3-.3 0-1.5.7-2.6 1.2-1.9.9-2.4-3.4-6.1-2.6-2.2-4.8-4.8-4.8-5.7-.2-3-4.2-5.8-8.4-5.8-4.1 0-7.7-1.5-9-3.6-.4-.8-1.4-1.4-2.1-1.4-.7 0-2.4-.8-3.7-1.9-6.4-5-15.7-8.6-24.9-9.7-3-.3-6.8-1-8.5-1.5-1.6-.4-7-1.1-12-1.4-12.5-.7-19.2-1.5-25-3-5.9-1.5-8.2-1.6-11.2-.5zM870 551.9c-.8.6-1.8.7-2.2.5-.4-.3-1.6-.1-2.5.5-1.1.6-2.4.6-3.5 0-1.2-.6-1.8-.6-1.8.1 0 .5-.7 1-1.5 1s-3.4.9-5.8 2c-2.3 1.1-6.9 2.8-10.2 3.9-3.3 1.1-7.8 2.7-10 3.7-3.8 1.6-8.1 2.9-13.5 4-1.4.2-4 1.2-5.8 2-1.8.8-3.7 1.2-4.2.9-.6-.3-1-.1-1 .4 0 .6-.3 1-.7.9-.8-.1-2.4.4-7.1 2.3-1.3.5-2.8.7-3.3.4-.5-.4-.9-.2-.9.4 0 .5-2.5 1.7-5.5 2.6-3 .8-5.5 1.9-5.5 2.3 0 .7-1.4 1.4-9.5 4.7-2.1.9-4.2 2.1-4.6 2.7-.4.6-3.3 1.2-6.6 1.2-6.9.2-15.5 3.1-18.4 6.2-2.8 3-3.9 11.4-1.5 11.4.9 0 1.6.6 1.6 1.4 0 3.5 16.7 4.4 23.3 1.3 15.2-7.1 24.8-9.5 32.2-7.9 4.7 1 16.8.9 21.4-.2 1.4-.3 6.1-1 10.5-1.6 4.5-.6 9.9-1.7 12.1-2.5 7.8-2.5 21.3-3.8 28.5-2.6 5.9 1 9.2 0 13.7-4.1l2.2-2 5.2 2.6c2.9 1.4 6.6 2.6 8.2 2.6 5.3 0 10.2-8.1 8.9-14.6-.6-3.2-2.1-4.7-7-6.9-1.8-.8-7.9-5.7-13.4-11-10.1-9.4-10.2-9.5-15.2-9.5-2.8 0-5.8.4-6.6.9zM375.9 613.4c-1.2 1.2-21.2 3.6-32.1 3.9-9.9.3-13.1.7-14.5 1.9-1 .9-4.6 2.8-8.1 4.2-6.1 2.6-6.4 2.6-10.9 1.1-5.8-2-7.7-.9-11.6 6.6-2.6 5.1-2.7 6.1-2.7 17.9.1 6.9-.1 14.3-.4 16.5-2.5 21.1-4 49.3-2.7 50.9 1.3 1.7 2 7.2 2.2 18.9.2 9.7 2.2 21.3 4.2 24.4.5.7.5 1.8.2 2.3-.4.6-.1 1.7.5 2.5s.9 1.8.6 2.4c-.3.5-.2 1.1.3 1.3.5.1 1.2 2.3 1.4 4.8.3 2.5 1.2 6.3 2 8.4 1.2 3.4 1.2 4.4 0 6.8-.8 1.5-1.9 3-2.4 3.4-1 .6-.2 7.2 1.1 8.9.4.5 1.3 2.8 2 5.1 1.9 6.4 10.6 16.4 17.5 20.1 13.1 7 16.4 8.2 26 9.8 5.5.9 10.3 1.9 10.7 2.1.5.3 7.2.7 15.1 1 7.8.3 15.8.7 17.7 1 1.9.3 6.9.6 11 .8 9.1.4 15.9 1.2 30.8 3.3 16 2.2 34.7 1.4 46.2-2.1 4.7-1.5 13.2-3.5 19-4.6 5.8-1 12.9-2.8 15.8-4 2.9-1.1 5.7-1.8 6.2-1.5.4.3 3.6-.4 7-1.5 3.5-1.1 6.9-2 7.6-2 2 0 15.3-6 19.3-8.7 1.8-1.3 5.4-4.1 8-6.3 2.5-2.1 5.6-4.7 6.7-5.7 1.5-1.2 2.4-3.6 2.9-7.3.4-3 1.5-7.1 2.5-9 3.5-7 5.5-14.1 4.3-14.8-1.2-.8.1-9.7 1.8-11.7.4-.6 1-2.5 1.4-4.2.3-1.8 1-4.4 1.5-5.9.6-1.4 1-5 .9-8-.1-2.9.3-5.9.8-6.6.6-.7 1.3-4.2 1.7-7.8 1.2-10.4 2.3-16.3 3.8-20.3.6-1.5 1.2-5.3 1.3-8.5 1-23 1.8-39.4 2-43.7.3-3.8-.3-6.3-2.3-10.4-1.5-2.9-3.2-5.6-3.9-5.8-.7-.3-1.3-1-1.3-1.7 0-.6-1.7-2.2-3.7-3.6s-4.1-3-4.7-3.5c-4.4-4.1-15.7-9.7-20.6-10.1-1.9-.2-6.4-.8-10-1.3-3.6-.6-8.1-1-10-.9-3.5.1-24.2-2.6-29-3.8-1.4-.3-10.9-.8-21.3-1-10.3-.2-19.3-.6-19.9-1-1.3-.8-2.5-.9-17.3-2-11-.7-74-1.6-74.6-1zm91.4 18.5c1.5.6 9.1 1.1 16.9 1.2 7.8.1 16 .6 18.3 1 2.3.4 9.6 1 16.4 1.3 11 .4 12.7.7 16.1 3 2.5 1.7 5.8 2.7 10.1 3.1 6.9.7 22.2 5.4 27.1 8.2 3.1 1.9 6.8 7 6.8 9.5 0 .9-.9 3.6-2 6.1-1.4 3.2-1.8 5.7-1.4 8.8.3 2.4 0 6.4-.6 8.9-.7 2.5-1.3 6.5-1.5 9-.1 2.5-.5 6.8-.9 9.7-.5 3.3-.4 5.9.4 7.3 3.9 7.2-.5 33.3-6.6 40.1-1.9 2.1-4.2 11.7-4.5 18.5-.2 4.9-2.2 10.8-4.6 13.2-.7.7-1.3 2.1-1.3 3 0 1-.9 2.3-2 3-1.1.7-2 2.1-2 3.1 0 1.1-.4 2.2-1 2.6-1 .6-.2 3.6 1.4 4.7.6.4 2.5.8 4.3.8 4.1 0 3.6 1.6-1.5 5-2 1.4-3.9 2.7-4.2 3-.8.9-11.1 3.8-16 4.5-8.6 1.3-30.7 7.3-38.6 10.5-15.9 6.3-43.7 11.2-46.9 8.1-.6-.5-10.4-1.1-22-1.5-24.3-.6-28.4-.9-34.5-2.5-2.5-.7-7-1.6-10-2.1-11.4-1.7-19.4-4.4-23-7.7-2.1-1.9-3.6-2.3-10-2.4-4.1-.1-9.9-.2-12.9-.3l-5.4-.1-3-6c-1.7-3.3-3.4-6.9-3.9-8.1-1.4-3.1-2.3-23.9-1.7-39.7.2-4.2-2-6.6-5.8-6.7-3.1 0-3.7-3.2-1.8-9.1 1.3-3.9 1.5-5.6.6-7.7-.6-1.5-1.6-4.1-2.2-5.7-1.2-3.3-2.3-16.5-2-26.5.1-6.1.1-11.3-.2-18.5-.2-6.4 1.1-20.3 2.1-22.1.6-1.1.8-3.8.6-6-.5-3.3 0-4.8 3-9.4 2-3 4.6-6 5.8-6.6 2.9-1.6 14.4-5.2 18.3-5.8 1.7-.2 3-.5 3-.6 0-.4 5.5-1 9.9-1.1 3.9 0 5.8.6 9 3 3.9 2.7 4.5 2.8 8.6 1.9 6-1.3 13.2-2.3 26.5-3.8 6.1-.6 13.3-1.8 16-2.5 6-1.7 48.2-1.3 52.8.4z" />
  <path
    d="M423 669.9c-4.7 1-10.2 2.7-12.3 3.9-2.1 1.2-4.4 2.2-5.2 2.2-.8 0-1.5.4-1.5.9s-1.5 1.3-3.2 1.6c-9.5 2-22.8 11.7-31 22.6-3.5 4.5-8.8 14.9-8.8 17.1 0 .9-.3 1.9-.8 2.2-.4.2-.8 5.4-1 11.5-.1 6.1-.9 12.8-1.6 14.9-.8 2.2-1.6 7.1-1.7 10.9-.3 5.9 0 7.8 2.1 11.9 2.2 4.3 11 14.4 12.5 14.4.4 0 2.1 1.1 3.9 2.5 1.8 1.4 3.7 2.5 4.1 2.5.4 0 2.3 1.1 4.1 2.5 3.3 2.5 10.5 4.6 17.8 5.1 2.2.1 7.3.7 11.5 1.3 25.4 3.5 25.6 3.5 31.4.8 3-1.3 6.7-3.6 8.3-5 2.6-2.3 11.2-9.5 21.3-17.5 1.8-1.5 4.2-3.5 5.2-4.5 1-.9 2.4-1.7 2.9-1.7.6 0 1-.5 1-1.2 0-.6 1.1-2.6 2.5-4.4 1.4-1.8 2.5-3.9 2.5-4.6 0-.7.9-2.8 2-4.6 1.1-1.8 2-4 2-4.8 0-.9.8-2.8 1.9-4.2 3.1-4.5 5.1-20.7 3-25.2-.1-.3-.3-1-.4-1.5-1.3-7.6-6.1-19.4-10.3-25.6-.9-1.4-3.5-5.2-5.6-8.5-2.2-3.2-4.9-6.6-6-7.4-3.9-2.9-11.1-6.7-14.1-7.3-10.9-2.5-26.4-2.8-36.5-.8zm23.7 15.5c6.8 1.8 15.1 5.8 19 9.3 3.3 2.9 7.2 10.3 7.3 13.8 0 1.2.5 2.6 1.2 3.3 2.1 2.1 4.1 8.7 4.2 13.7.1 7.1-1.3 16.9-2.5 17.3-.5.2-.9 1-.9 1.7 0 2.4-1.7 2.6-7.7.9-5.9-1.6-8.1-1.3-12.6 1.8-1.4 1.1-2.4.9-5.7-1-7.5-4.2-15.4-8.2-16.6-8.2-.6 0-3-1.7-5.4-3.8-3.5-3.1-4.3-4.5-4.7-8.2-.6-5.6 4.1-23.7 8.3-32.3.8-1.6 1.4-3.5 1.4-4.3 0-5.4 4.6-6.7 14.7-4zM401.5 712c-.3.5-1.2 1-1.8 1-.7 0-.6-.4.3-1 1.9-1.2 2.3-1.2 1.5 0zm28.5 41c8.7 3.5 8.7 3.3.2 11.9-8.9 9-11.4 10.6-14.1 9.2-1-.6-2.1-1.6-2.4-2.4-.9-2.4 2.7-19.2 4.8-22.7.4-.7 1.6-.5 3.3.4 1.5.8 5.2 2.4 8.2 3.6zm-40.7 1.4c3.3 3.2 5.6 4.6 8.6 5.1 4.1.7 4.2.7 3.5 4.3-1 5.3-2.2 7.2-4.7 7.2-4.9 0-13.9-11.9-13.3-17.5.6-4.6.3-4.6 5.9.9zm58.5 8.9c.7.6 4.1 1.3 7.5 1.6l6.2.6-4.5 2.7c-4 2.3-14.7 5.8-17.9 5.8-2.5 0-2.1-3.1 1.1-7.3 3.3-4.4 5.2-5.3 7.6-3.4zM615.5 689.5c-.5.2-2.6.6-4.5.9-4.2.8-6.5 2.4-7.4 5.3-.6 1.7.2 3.1 3.9 6.8 3.4 3.5 4.3 5 3.5 5.9-.5.7-.6 1.6-.2 2 .4.4.7 1.1.8 1.4.6 5 7.1 5.9 11.1 1.6 2.4-2.6 2.7-2.6 9.6-1.9 4 .4 11.5.7 16.7.6 5.2-.1 12.5.4 16.2 1 8.3 1.3 11.6.1 13.3-5.1.7-2 2.2-4 3.6-4.6 12.1-5.6 13.2-6.7 10.5-10.9l-1.8-2.8-11.2.7c-6.1.4-15.2 1-20.3 1.4-8.3.6-36.2-.8-40.9-2.1-1-.3-2.3-.4-2.9-.2zM606.2 889.6c-2 1.6-3.2 3.4-3.2 5 0 2.3-.2 2.4-6.5 2.2-8.8-.2-11.5 2.3-14.1 13.3-2.8 11.5-2.7 23.1.1 33.9 1.6 6.4 6.2 16 7.5 16 .4 0 2 1.2 3.6 2.8 4 3.7 9.6 6.9 13.6 7.7 6.8 1.2 50.7 2.4 56.4 1.5 5.6-.9 7.8-2.3 13-8 2.4-2.6 8.2-19 11.5-32.3 1-4.2 3-10 4.5-12.9 3.5-6.8 3.7-9.1 1.5-12-1.5-1.8-1.8-3.5-1.5-7 .5-6-.8-7.2-8.8-8.7-7.7-1.5-28.7-3.1-32.5-2.5-6 .8-27.6.5-28.5-.4-.5-.5-2.4-.6-4.3-.2-1.9.4-3.5.7-3.7.5-.2-.1-1.4-.5-2.8-.8-1.8-.4-3.4.1-5.8 1.9zm67.8 15.9c.5.3.9 2 .9 3.8-.1 1.8.3 4.3.8 5.5 1 2.6-.8 12.2-3.3 17.7-.7 1.6-1.5 4.1-1.8 5.5-.9 5.6-5.9 17-7.9 18.3-2.4 1.5-8.6 3-12.7 3-13 0-28.6-.7-33.5-1.5-6.5-1.1-11.5-2.8-11.5-4 0-.5-.6-.8-1.2-.8-2.1 0-6-6.6-7-11.8-1.6-8.6-1.7-14.6-.2-21.7 2.3-10.8 3.3-11.6 15-12.7 5.5-.5 11.9-1.2 14.4-1.6 5.2-.8 46.6-.6 48 .3zM444.5 903.7c-1.6 2.1-4.2 4.9-5.8 6.3-1.6 1.3-3.8 4.3-4.9 6.5-1.2 2.2-2.4 4.2-2.8 4.5-1.1.9-5 9.5-5 11.3 0 .9-.4 1.7-1 1.7-1.8 0-1.1 7.6.9 9.8 4.3 5 12.4.2 15-8.8.7-2.5 3.8-9.6 6.8-15.7 5.9-12.1 6.2-15 1.6-18-1.8-1.2-2.3-1-4.8 2.4zM851.9 905.7c-2.8 4.4-3 5.4-2.6 11 .3 3.4.2 6.5-.1 6.8-.6.6-.5 7.1.2 12.5.6 5.2 4.8 13.5 8.3 16.4 3.8 3.2 8.6 3.4 10.6.5 1.7-2.3.9-7.4-1.8-11.5-.9-1.4-1.8-3.6-1.9-4.8-.1-1.2-.5-2.6-.9-3.2-1.1-1.9-1.9-23.4-.8-23.4 1.9 0 .4-5-2.1-7-3.9-3-5.5-2.5-8.9 2.7zM790.9 907.2c-5.2 4.8-5.6 8.5-2 18.9 5.5 16 7.1 19.4 10.1 22.2 3.8 3.4 6.2 3 10.6-1.9 2.6-2.8 3-3.9 2.5-6.8-.4-2.1-1.7-4.3-3.3-5.6-1.6-1.2-2.8-2.8-2.8-3.5 0-.7-.6-2-1.4-2.8-1.6-1.6-3.6-11-3.6-16.8 0-2.1-.3-4.4-.6-5.3-1-2.7-5.7-1.9-9.5 1.6zM411.2 915.7c-1.6.6-13 12.2-14.2 14.4-1.4 2.4-1.5 12.6-.2 14.2 1.2 1.5 8 2.1 9.9.9.6-.4 3-4.3 5.3-8.7 2.3-4.4 4.9-8.7 5.6-9.6.8-.8 1.4-2.2 1.4-3 0-.8.5-2 1.1-2.6.8-.8 0-1.8-2.7-3.7-4.1-2.7-4.1-2.8-6.2-1.9zM853.9 667.5c-.3.2-3 .7-6 1.1-5.6.6-10.9 2.3-10.9 3.6 0 .5-.5.8-1.2.8-.6 0-2.6 1.1-4.4 2.5-1.8 1.4-4.5 2.5-6.1 2.5-4.8.1-19 8-17.8 10 .3.4-3.4 4.7-8 9.4-4.7 4.8-8.5 9.3-8.5 10.1 0 .7-2 3.5-4.4 6.1-2.4 2.6-5.6 7.1-7.1 10.1-1.5 2.9-3 5.3-3.4 5.3-.3 0-.7 1-.8 2.2-.1 1.3-.7 4.9-1.4 8-2.3 10.6 1.4 20.4 13.6 36.5 8.3 10.8 12.5 14.7 20.9 18.8 7.2 3.6 8.5 3.9 15.4 3.7 4.2-.1 9-.7 10.6-1.2 21.7-7 24.5-8.2 35.7-15.8 4.9-3.3 15.3-13.6 19.4-19.1 1.4-1.9 2.9-3.7 3.3-4 1.3-.9 5.4-7.1 4.7-7.1-.3 0 .2-1.2 1.3-2.8 2.4-3.4 3.4-5.9 3.8-9.7.2-1.7.7-3.7 1-4.5.4-.8.8-4.7 1.1-8.5.2-3.9.5-7.5.7-8 .2-.6-.2-4.2-.9-8-1.6-9-1.8-9.7-3-11.1-.5-.6-2.3-2.8-4-4.9-4.2-5.2-7.8-8.5-9.3-8.5-.7 0-4.1-2.2-7.5-4.8-6.6-5.2-16.5-10.6-20.9-11.6-1.4-.3-3.2-.8-4-1.1-.8-.3-1.6-.3-1.9 0zm8.5 16.5c3.4 1.6 10.2 6.3 15.1 10.3 8 6.6 9.3 8.1 11.4 13.5 2.2 5.6 2.3 7 1.7 16.9-.4 5.9-1 11-1.5 11.3-.4.3-1.4 2.7-2.2 5.4-.8 2.7-2 5.1-2.7 5.3-.7.3-1.9 1.8-2.7 3.2-1.7 3.4-7.5 9.1-9.1 9.1-.7 0-3.5-1.6-6.4-3.5-6.4-4.3-11.3-5.7-20.4-5.7-3.9 0-7.5-.3-8.1-.7-.5-.4-3.1-1.5-5.6-2.5-8.9-3.2-20.4-18.9-19.4-26.3.2-1.6.4-3.7.4-4.8.1-1.1 1.2-3.2 2.6-4.7 1.4-1.5 2.5-3.1 2.5-3.5.1-.4 2.7-3.7 5.9-7.2l5.9-6.5 6.3-.4c6.9-.5 7.9-1.2 7.9-5.4 0-2 .8-3.2 3-4.3 1.7-.9 3-1.3 3-1 0 .3.8.1 1.8-.4 2.6-1.6 4.1-1.3 10.6 1.9zm-54.1 63.9c7.1 6.9 6.9 8.5-1.2 8.5-6.4 0-8.1-1.8-8.1-8.2 0-8.1 1.2-8.2 9.3-.3zm45.7 21.2c0 .5.7.9 1.6.9 3.3 0 .5 2.4-7.2 6.4-4.4 2.3-9.6 4.7-11.5 5.4-5.1 1.8-16.5 2.6-17.3 1.3-.4-.6-1.6-1.1-2.7-1.1-2.7 0-12.8-9.7-10.9-10.4 5.5-2 10.6-2.4 13-1.1 6 3.3 7.8 3.9 12.6 3.9 6.2.1 9.7-1.6 11.1-5.3 1-2.8 1.1-2.9 6.2-1.8 2.8.5 5.1 1.4 5.1 1.8zM1013.6 274.6c-6 6.9-7.2 9.6-8.5 19.6-.6 5-.5 6.1 1.3 8.3 2.6 3.1 7.4 4.1 10.1 2 1.4-1.1 2-2.8 2-5.8.1-2.3.4-4.8.8-5.4.4-.6.1-1.3-.5-1.5-.9-.3-.1-2.8 2.6-8.2 3.8-7.4 3.9-8 2.5-10.5-2.4-4.3-5.8-3.8-10.3 1.5zM1046.8 275.7c-1 .2-1.8 1.4-1.8 2.5 0 1.2-.3 1.9-.6 1.5-.6-.6-4.8 6.1-6 9.5-.4 1-1.3 1.8-2 1.8-.8 0-1.4.4-1.4 1 0 .5.5 1 1.2 1s.6.6-.3 1.7c-.8 1-2 2.9-2.6 4.3-4.3 9.8-6.6 16.7-6.9 20-.2 3.1.2 4.1 2.6 5.8 1.6 1.2 3 1.8 3.2 1.3.2-.5 1.2-1.1 2.3-1.3 3.8-.6 5.3-3 5.3-8.3 0-3.3.9-7 2.6-10.7 1.4-3.1 2.6-6.4 2.6-7.3 0-.8.7-1.8 1.5-2.1.8-.4 1.5-1.7 1.5-2.9 0-1.3.5-2.7 1-3 1.4-.9 4-7.3 4-9.9-.1-2.3-2.2-5.7-3.6-5.5-.5.1-1.7.3-2.6.6zM1068.3 301.8c-.6.4-1.2 2.3-1.4 4.2-.2 1.9-.6 3.7-.9 4-1.5 1.5-6 13.1-6.6 17.3-.2 1.5-1.1 3.8-2 5.2-.9 1.3-1.4 3-1.2 3.7.3.7-.6 4.3-1.9 8-3.2 9.3-3 12.1.9 15.1l3.1 2.5-2.6 2.5c-1.5 1.3-2.7 3.1-2.7 4 0 .9-.4 1.8-1 2.2-.5.3-.7 1.2-.4 1.9.3.8.1 1.7-.5 2.1-.6.3-1.1 1.7-1.1 3s-.4 2.6-.9 2.9c-1.3.9-.1 4.6 1.5 4.6.7 0 1.1.6.8 1.3-.3 1 2.1 3.1 5.6 4.8.3.1 2.9.5 5.8.9 5.1.6 5.4.5 6.7-2 1.2-2.3 1.2-2.9-.3-4.3-7.8-7.5-7.8-7.6-5.7-9.1 8.7-6.1 14.4-14.4 17-24.3 1.4-5.1 4.2-10.9 7.1-14.4 1.1-1.2 1.1-2.2.2-4.7-.7-1.8-1.7-3.3-2.3-3.4-3.8-.5-7.1-.4-7.6.4-.3.5-1.9 1-3.5 1.1-2.5.2-2.9-.1-2.7-2.3.2-3.1 1.9-13.6 2.8-17.1 1.4-5.6-2.7-12.3-6.2-10.1zM1065.5 402.1c-.4.6-.5 1.2-.2 1.5.2.3.7-.2 1-1.1.7-1.7.1-2-.8-.4zM1104.1 508.9c-2.1 2.2-4.2 5.5-4.6 7.2-.4 1.8-1.6 4.8-2.6 6.6-1.1 1.9-1.9 3.8-1.9 4.3 0 .6-1.3 2.9-3 5.2-4.6 6.3-3.8 12.8 1.5 12.8 2.5 0 6.5-3.4 6.5-5.5 0-.8.5-1.5 1-1.5.6 0 1-.6.8-1.3-.3-1.6 1.1-4 8.7-15.3 5.9-8.7 6.2-9.6 5-12.1-.5-1.2-1.7-2.4-2.5-2.6-.8-.3-2.3-.8-3.2-1.2-1.2-.5-2.8.5-5.7 3.4zM1000.3 1162.9c-2.8.9-5.5 1.9-5.9 2.3-.4.5-1.7.8-2.8.8-3.3 0-17.6 6.1-17.6 7.5 0 .7-.2 2-.5 2.7-.4 1 .8 2.1 3.3 3.2 3.1 1.4 5.7 1.7 12.4 1.3 4.7-.2 10.1-1.1 12.1-1.8 3.4-1.2 3.8-1.1 6.1 1 1.3 1.2 2.6 3.2 2.9 4.4.3 1.2 1.3 4.7 2.2 7.7.9 3 2.1 7.5 2.6 9.9 1.6 7.8 6.8 16.9 12.8 22.2 3 2.7 6.4 4.9 7.5 4.9 1.2 0 2.6.4 3.2.8 1.6 1 3.9 8.3 5.4 16.7 1.3 7.6 2.8 13.8 4 17 .5 1.1 1.3 4.9 2 8.5.6 3.6 1.6 8.5 2.2 11 .9 4.1 2.7 17.3 2.8 21 .1.8.4 3.6.6 6.2l.6 4.8h7.4c7.2 0 7.5-.1 8.5-2.8.7-1.7.8-5.2.4-9.2-.4-3.6-.8-7.4-.8-8.5 0-1.1-.4-5.2-.8-9-.5-3.9-1.2-9.3-1.4-12-.3-2.8-.8-6.6-1-8.5-1.7-12.8-1.9-17.4-1.3-36.2.2-5.1-.1-6.1-2.7-8.9-2.9-3-5.9-4.7-9.9-5.5-1-.2-2.5-.9-3.3-1.5-1.1-1-1.6-1-2.2 0-.6.9-1.7.7-4.7-.9-6.9-3.8-11-10.3-12-19-.3-2.5-1.1-6.3-1.9-8.5-.7-2.2-1.8-6-2.5-8.5-1.9-7.4-5.3-11.7-10.2-13.1-6.8-1.8-11.9-1.8-17.5 0z" />
</svg>